<?xml version="1.0"?>
<svg xmlns:rdf="http://www.w3.org/1999/02/22-rdf-syntax-ns#" xmlns="http://www.w3.org/2000/svg" xmlns:cc="http://web.resource.org/cc/" xmlns:xlink="http://www.w3.org/1999/xlink" xmlns:dc="http://purl.org/dc/elements/1.1/" id="svg18001" viewBox="0 0 360 360" version="1.0">
 <defs id="defs18003">
  <linearGradient id="linearGradient6580">
   <stop id="stop6583" stop-color="#fff" stop-opacity=".50196" offset="0"/>
   <stop id="stop6581" stop-color="#fff" stop-opacity="0" offset="1"/>
  </linearGradient>
  <radialGradient id="radialGradient2815" fx="294.25" fy="564.1" gradientUnits="userSpaceOnUse" cy="564.01" cx="294.15" gradientTransform="scale(1.1339 .88192)" r="26.496">
   <stop id="stop2814" stop-color="#ebf1fe" offset="0"/>
   <stop id="stop2812" stop-color="#d9e6fc" offset=".21078"/>
   <stop id="stop2811" stop-color="#b1ccf9" offset=".42637"/>
   <stop id="stop2810" stop-color="#b1ccf9" offset=".68247"/>
   <stop id="stop2809" stop-color="#d9e6fc" offset=".80314"/>
   <stop id="stop2808" stop-color="#fffffe" offset=".92786"/>
   <stop id="stop2807" stop-color="#ebf1fe" offset="1"/>
  </radialGradient>
  <radialGradient id="radialGradient4069" fx="294.25" fy="564.1" gradientUnits="userSpaceOnUse" cy="564.01" cx="294.15" gradientTransform="scale(1.1339 .88192)" r="26.496">
   <stop id="stop4068" stop-color="#4d5cf1" stop-opacity="0" offset="0"/>
   <stop id="stop4067" stop-color="#3038c7" stop-opacity=".80337" offset="1"/>
  </radialGradient>
  <linearGradient id="linearGradient6579" y2="70.25" xlink:href="#linearGradient6580" gradientUnits="userSpaceOnUse" x2="186.5" gradientTransform="scale(.86050 1.1621)" y1="25.188" x1="115.15"/>
  <linearGradient id="linearGradient6585" y2="115.6" xlink:href="#linearGradient6580" gradientUnits="userSpaceOnUse" x2="114.88" gradientTransform="scale(1.07 .93456)" y1="135.99" x1="53.37"/>
  <linearGradient id="linearGradient6587" y2="50.602" xlink:href="#linearGradient6580" gradientUnits="userSpaceOnUse" x2="276.23" gradientTransform="scale(.69920 1.4302)" y1="17.838" x1="211.7"/>
  <linearGradient id="linearGradient6589" y2="72.38" xlink:href="#linearGradient6580" gradientUnits="userSpaceOnUse" x2="277.28" gradientTransform="scale(.78392 1.2756)" y1="24.89" x1="239.09"/>
  <linearGradient id="linearGradient6591" y2="106.73" xlink:href="#linearGradient6580" gradientUnits="userSpaceOnUse" x2="247.31" gradientTransform="scale(1.0855 .92126)" y1="68.193" x1="227.44"/>
  <linearGradient id="linearGradient6593" y2="172.89" xlink:href="#linearGradient6580" gradientUnits="userSpaceOnUse" x2="231.63" gradientTransform="scale(1.1999 .83340)" y1="139.89" x1="229.81"/>
  <linearGradient id="linearGradient6596" y2="249.08" xlink:href="#linearGradient6580" gradientUnits="userSpaceOnUse" x2="215.24" gradientTransform="scale(1.3824 .72336)" y1="281.94" x1="228.28"/>
  <linearGradient id="linearGradient6598" y2="241.04" xlink:href="#linearGradient6580" gradientUnits="userSpaceOnUse" x2="267.46" gradientTransform="scale(1.1444 .87385)" y1="291.47" x1="229.85"/>
  <linearGradient id="linearGradient6600" y2="196" xlink:href="#linearGradient6580" gradientUnits="userSpaceOnUse" x2="232.55" gradientTransform="scale(.98881 1.0113)" y1="216.13" x1="205.41"/>
  <linearGradient id="linearGradient6602" y2="221.85" xlink:href="#linearGradient6580" gradientUnits="userSpaceOnUse" x2="259.37" gradientTransform="scale(.84699 1.1806)" y1="265.69" x1="255.55"/>
  <linearGradient id="linearGradient6604" y2="182.56" xlink:href="#linearGradient6580" gradientUnits="userSpaceOnUse" x2="349.54" gradientTransform="scale(.71048 1.4075)" y1="182.56" x1="236.17"/>
  <linearGradient id="linearGradient6606" y2="215.11" xlink:href="#linearGradient6580" gradientUnits="userSpaceOnUse" x2="200.79" gradientTransform="scale(.76451 1.308)" y1="238.46" x1="155.72"/>
  <linearGradient id="linearGradient6608" y2="268.29" xlink:href="#linearGradient6580" gradientUnits="userSpaceOnUse" x2="106.96" gradientTransform="scale(1.0408 .96084)" y1="257.06" x1="83.269"/>
  <linearGradient id="linearGradient6610" y2="240.25" xlink:href="#linearGradient6580" gradientUnits="userSpaceOnUse" x2="44.598" gradientTransform="scale(1.2075 .82817)" y1="224.92" x1="64.539"/>
  <linearGradient id="linearGradient6612" y2="215.51" xlink:href="#linearGradient6580" gradientUnits="userSpaceOnUse" x2="75.859" gradientTransform="scale(1.3345 .74933)" y1="201.3" x1="55.914"/>
  <linearGradient id="linearGradient6614" y2="148.06" xlink:href="#linearGradient6580" gradientUnits="userSpaceOnUse" x2="48.464" gradientTransform="scale(1.3549 .73807)" y1="140.11" x1="27.518"/>
  <linearGradient id="linearGradient5268" y2=".86154" x2=".32870" y1="-.10769" x1=".15741">
   <stop id="stop2153" stop-color="#fff" offset="0"/>
   <stop id="stop2778" stop-color="#fff" stop-opacity=".49804" offset="0.01"/>
   <stop id="stop2154" stop-color="#fff" stop-opacity="0" offset="1"/>
  </linearGradient>
 </defs>
 <g id="g6615" transform="translate(-14.75,6)">
  <path id="path4693" d="m193.08 26.733c-11.77 0.641-23.01 7.124-30.38 16.375-7.96-7.027-17.63-11.498-29.47-10.469-15.36-0.367-24.42 9.114-28.68 21.469-0.34-0.03-0.66-0.133-1-0.156-8.633 0.304-18.068 0.11-25.661 4.844-9.938 9.085-13.74 23.485-11.687 36.687-3.695 0.158-7.418 0.538-11.156 1.375-12.534 1.21-21.121 10.362-24.469 22.062-5.784 13.16-2.491 29.21 8.094 38.94 4.617 4.17 9.793 7.5 15.281 10.22-0.699 0.41-1.435 0.76-2.125 1.18-10.106 6.73-20.563 17.35-18.844 30.54 1.951 11.49 10.873 19.1 20.531 24.87-0.733 2.19-1.366 4.48-1.781 6.88-5.807 20.78 10.402 36.65 29.156 39.93 1.542 11.75 9.181 22.42 19.911 27.85 6.23 4.53 13.32 5.66 20.25 4.62 0.27 1.27 0.42 2.55 0.78 3.81 4.79 14.66 19.63 24.14 34.84 23.97 9.37 1.42 17.53-2.27 23.81-8.31 0.66 1.61 1.22 3.23 1.97 4.81 18.3 24.41 43.97 14.74 59-5 11.84 6.18 27.32 5.81 38.13-3.18 6.46-4.48 11.81-10.47 14.5-17.41 19.36 1.71 37.26-7.23 38.25-32.09-0.08-0.46-0.24-0.89-0.32-1.35 1.54-0.01 3.06 0.07 4.6-0.06 15.3-1.93 27.44-14.73 30.15-29.69 5.23-14.74-3.75-28.86-15.65-37.06 12.19-8.81 16.93-25.26 12.65-39.53-0.91-7.02-4.44-12.52-9.28-16.72 1.31-3.17 2.35-6.54 2.94-10.16 6.04-22.33-13.15-38.987-33.56-40.309 1.77-8.502 1.3-17.418-4.53-24.282-10.2-11.091-26.66-10.473-40.41-9-0.91 0.094-1.77 0.332-2.62 0.532-0.01-0.308 0.04-0.598 0.03-0.907 1.07-12.546-6.38-22.658-17.28-28.062-11.91-8.061-28.28-7.721-39.75 0.937-1.51 1.157-2.84 2.477-4.22 3.75-4.63-4.921-9.54-9.696-16.03-11.718-2-0.239-3.99-0.296-5.97-0.188z" fill-opacity=".25098" fill-rule="evenodd"/>
  <path id="path2821" d="m174.48 138.19c-16.57 24.86-48.61 32.68-76.834 32.98-22.526-0.11-46.992-4.72-64.187-20.26-10.585-9.73-13.871-25.78-8.087-38.94 3.348-11.7 11.929-20.834 24.463-22.045 27.784-6.221 54.515 7.677 77.735 21.365 15.5 9.2 30.55 19.26 46.91 26.9z" fill-rule="evenodd" fill="#bbd5fe"/>
  <path id="path6613" d="m174.34 138.38c-16.58 24.85-48.61 32.68-76.838 32.97-22.526-0.1-46.992-4.71-64.188-20.25-10.585-9.73-13.87-25.78-8.087-38.94 3.349-11.7 11.93-20.837 24.464-22.047 27.783-6.222 54.519 7.676 77.739 21.367 15.49 9.2 30.54 19.26 46.91 26.9z" fill-rule="evenodd" fill="url(#linearGradient6614)"/>
  <path id="path2820" d="m170.09 193.95c-1.29-22.3-18.98-42.27-40.93-46.34-27.99-6.83-58.299-0.28-82.554 14.71-10.105 6.73-20.552 17.36-18.833 30.55 2.52 14.85 16.684 23.29 29.025 29.53 9.577 4.89 20.501 1.36 30.527 0.2 28.825-5.68 54.735-20.42 82.765-28.65z" fill-rule="evenodd" fill="#c3dafe"/>
  <path id="path6611" d="m168.43 195.04c-1.28-22.29-18.98-42.26-40.93-46.34-27.986-6.82-58.296-0.27-82.551 14.72-10.106 6.73-20.553 17.36-18.834 30.54 2.52 14.86 16.684 23.29 29.025 29.54 9.578 4.88 20.501 1.36 30.528 0.19 28.822-5.68 54.732-20.41 82.762-28.65z" fill-rule="evenodd" fill="url(#linearGradient6612)"/>
  <path id="path2819" d="m180.83 172.43c-9.05 44.56-45.36 86.34-91.736 92.41-23.359 3.98-49.763-14.56-42.583-40.25 5.417-31.26 39.29-45.03 67.159-49.71 22.24-4.28 44.83-0.67 67.16-2.45z" fill-rule="evenodd" fill="#eaf4fe"/>
  <path id="path6609" d="m181.03 172.33c-9.05 44.55-45.36 86.34-91.73 92.4-23.359 3.99-49.763-14.56-42.583-40.25 5.417-31.26 39.29-45.03 67.163-49.7 22.24-4.29 44.83-0.68 67.15-2.45z" fill-rule="evenodd" fill="url(#linearGradient6610)"/>
  <path id="path2818" d="m200.52 188.34c-26.07-13.55-57.42-4.07-80.7 10.91-20.289 12.78-39.062 31.66-44.104 55.8-2.503 15.22 6.298 30.48 19.87 37.34 12.934 9.41 29.524 4.44 40.794-5.04 28.38-21.02 40.07-55.67 56.35-85.56 2.46-4.56 5.03-9.06 7.79-13.45z" fill-rule="evenodd" fill="#c3dafe"/>
  <path id="path6607" d="m200.33 188.39c-26.07-13.56-57.41-4.08-80.69 10.9-20.297 12.78-39.07 31.66-44.112 55.8-2.503 15.22 6.298 30.48 19.87 37.34 12.932 9.42 29.522 4.44 40.792-5.04 28.39-21.02 40.07-55.67 56.35-85.56 2.46-4.56 5.04-9.06 7.79-13.44z" fill-rule="evenodd" fill="url(#linearGradient6608)"/>
  <path id="path2817" d="m196.63 184.09c-29.39-0.01-52.84 22.86-66.59 46.88-12.11 20.7-20.07 46.11-13.42 69.85 4.8 14.66 19.64 24.15 34.85 23.98 15.82 2.39 28.25-9.67 33.87-23.28 15.51-31.74 9.9-67.88 10.57-101.9 0.08-5.18 0.29-10.36 0.72-15.53z" fill-rule="evenodd" fill="#bbd5fe"/>
  <path id="path6605" d="m196.81 184.07c-29.38-0.01-52.83 22.85-66.58 46.87-12.12 20.7-20.08 46.11-13.42 69.86 4.79 14.65 19.64 24.14 34.85 23.97 15.81 2.39 28.24-9.67 33.87-23.28 15.5-31.74 9.9-67.88 10.57-101.9 0.08-5.18 0.29-10.36 0.71-15.52z" fill-rule="evenodd" fill="url(#linearGradient6606)"/>
  <path id="path2816" d="m225.18 176.22c-45.34 30.17-72.44 93.58-47.93 145.07 29.16 38.89 77.11-8.68 70.74-45.81 1.82-34.81-18.2-65.57-22.81-99.26z" fill-rule="evenodd" fill="#aac9fe"/>
  <path id="path6603" d="m224.96 177.17c-45.34 30.17-72.44 93.58-47.93 145.06 29.16 38.9 77.11-8.67 70.74-45.8 1.82-34.81-18.2-65.57-22.81-99.26z" fill-rule="evenodd" fill="url(#linearGradient6604)"/>
  <path id="path2888" d="m209.95 180.62c-19.98 16.1-22.14 44.02-17.49 66.66 5.26 25.74 17.77 51.73 40.23 66.97 12.12 8.29 29.77 8.78 41.68-1.14 10.28-7.1 17.73-18.06 16.17-30.52-0.39-27.14-20.35-47.99-39.35-65.22-13.69-12.31-28.37-23.6-41.24-36.75z" fill-rule="evenodd" fill="#98bbfd"/>
  <path id="path6601" d="m209.64 179.86c-19.99 16.09-22.14 44.01-17.49 66.65 5.26 25.74 17.77 51.73 40.22 66.97 12.13 8.29 29.78 8.79 41.69-1.13 10.27-7.11 17.73-18.07 16.17-30.53-0.39-27.13-20.35-47.99-39.35-65.22-13.69-12.31-28.37-23.59-41.24-36.74z" fill-rule="evenodd" fill="url(#linearGradient6602)"/>
  <path id="path2887" d="m205.29 171.4c54.45-0.9 112.76 35.91 121.81 92.21-1.92 48.57-68.4 36.64-84.24 2.45-21.26-27.62-22.24-64.31-37.57-94.66z" fill-rule="evenodd" fill="#aac9fe"/>
  <path id="path6599" d="m205.59 170.83c54.45-0.9 112.76 35.91 121.81 92.21-1.92 48.57-68.4 36.64-84.24 2.45-21.26-27.62-22.24-64.31-37.57-94.66z" fill-rule="evenodd" fill="url(#linearGradient6600)"/>
  <path id="path6906" d="m231.96 161.49c-5.58 28.85 12.42 56.21 33.4 74.27 18.03 15.82 41.46 28.45 66.04 26.42 15.3-1.92 27.43-14.7 30.15-29.66 5.35-15.08-4.14-29.57-16.43-37.68-28.23-21.24-64.77-22.59-98.05-29.7-5.07-1.06-10.12-2.25-15.11-3.65z" fill-rule="evenodd" fill="#bbd5fe"/>
  <path id="path6597" d="m232.45 161.19c-5.58 28.85 12.42 56.21 33.4 74.27 18.03 15.82 41.46 28.45 66.04 26.42 15.3-1.92 27.43-14.7 30.15-29.66 5.35-15.08-4.14-29.57-16.43-37.68-28.22-21.24-64.77-22.59-98.05-29.7-5.07-1.06-10.12-2.25-15.11-3.65z" fill-rule="evenodd" fill="url(#linearGradient6598)"/>
  <path id="path2890" d="m210.86 151.45c8.12 28.25 36.57 44.45 63.46 51.02 23.25 5.92 49.86 6.54 70.84-6.43 12.76-8.66 17.77-25.55 13.4-40.12-2.07-15.86-17.1-24.47-31.74-26.11-34.79-6.12-67.96 9.27-100.85 18.04-5 1.35-10.03 2.58-15.11 3.6z" fill-rule="evenodd" fill="#c3dafe"/>
  <path id="path6595" d="m211.54 150.93c8.12 28.24 36.58 44.44 63.47 51.01 23.24 5.92 49.86 6.54 70.84-6.43 12.76-8.66 17.77-25.55 13.4-40.12-2.08-15.86-17.11-24.46-31.75-26.11-34.78-6.11-67.96 9.27-100.84 18.04-5 1.36-10.04 2.59-15.12 3.61z" fill-rule="evenodd" fill="url(#linearGradient6596)"/>
  <path id="path2884" d="m218.33 182.33c8.68-44.63 44.64-86.713 90.96-93.169 23.32-4.181 49.88 14.149 42.92 39.889-5.16 31.31-38.92 45.36-66.75 50.27-22.2 4.47-44.82 1.05-67.13 3.01z" fill-rule="evenodd" fill="#eaf4fe"/>
  <path id="path6592" d="m218.07 182.22c8.68-44.63 44.63-86.719 90.96-93.175 23.32-4.181 49.88 14.145 42.91 39.895-5.15 31.3-38.91 45.36-66.74 50.27-22.2 4.46-44.82 1.04-67.13 3.01z" fill-rule="evenodd" fill="url(#linearGradient6593)"/>
  <path id="path2885" d="m194.12 140.95c13.2 18.01 38.91 25.14 59.54 16.62 27.2-9.49 49.07-31.48 61.27-57.24 4.83-11.146 7.81-25.749-0.81-35.881-10.19-11.091-26.66-10.468-40.41-8.994-10.7 1.106-17.95 10.006-25.73 16.438-21.1 20.442-34.82 46.897-53.86 69.057z" fill-rule="evenodd" fill="#c3dafe"/>
  <path id="path6590" d="m194.21 140.95c13.2 18.02 38.92 25.15 59.55 16.63 27.2-9.49 49.07-31.48 61.27-57.25 4.82-11.139 7.81-25.742-0.81-35.874-10.19-11.091-26.67-10.468-40.42-8.994-10.69 1.106-17.94 10.006-25.72 16.438-21.1 20.442-34.82 46.9-53.87 69.05z" fill-rule="evenodd" fill="url(#linearGradient6591)"/>
  <path id="path2886" d="m201.18 168.97c-21.46-20.79-23.38-53.71-18.58-81.528 4.16-22.138 13.11-45.372 31.49-59.484 11.48-8.658 27.86-8.997 39.76-0.936 10.91 5.404 18.34 15.491 17.28 28.038 1.11 28.45-17.38 52.24-35.04 72.61-11.84 13.59-24.44 26.57-34.91 41.3z" fill-rule="evenodd" fill="#bbd5fe"/>
  <path id="path6588" d="m201.31 168.67c-21.46-20.79-23.39-53.71-18.59-81.523 4.17-22.138 13.11-45.373 31.5-59.485 11.48-8.658 27.85-8.997 39.75-0.935 10.91 5.403 18.35 15.491 17.28 28.037 1.11 28.45-17.38 52.236-35.03 72.606-11.84 13.59-24.45 26.58-34.91 41.3z" fill-rule="evenodd" fill="url(#linearGradient6589)"/>
  <path id="path2891" d="m190.29 183.2c-22.53-15.57-34.56-41.91-41.17-67.69-5.92-24.265-7.19-51.382 4.76-74.084 7.9-13.701 23.97-23.347 39.96-21.441 8.54 2.659 14.57 9.946 20.44 16.282 12.52 16.676 12 39.214 7.3 58.588-6.95 30.605-22.22 58.425-31.29 88.345z" fill-rule="evenodd" fill="#aac9fe"/>
  <path id="path2822" d="m193.96 161.14c-26.51 6.88-54.31-1.2-78.15-13.04-22.249-11.35-43.61-28.11-53-51.98-5.217-14.93-2.031-33.397 9.855-44.262 7.593-4.734 17.048-4.541 25.677-4.845 20.808 1.409 37.538 16.515 49.138 32.73 18.64 25.247 29.74 54.987 46.48 81.397z" fill-rule="evenodd" fill="#aac9fe"/>
  <path id="path6584" d="m193.77 160.72c-26.5 6.89-54.31-1.2-78.15-13.03-22.244-11.36-43.605-28.11-52.995-51.983-5.217-14.93-2.031-33.397 9.855-44.262 7.593-4.734 17.048-4.541 25.677-4.845 20.803 1.409 37.543 16.515 49.143 32.73 18.64 25.25 29.74 54.98 46.47 81.39z" fill-rule="evenodd" fill="url(#linearGradient6585)"/>
  <path id="path6586" d="m189.22 181.89c-22.52-15.58-34.56-41.91-41.16-67.7-5.93-24.261-7.19-51.377 4.76-74.08 7.9-13.701 23.96-23.347 39.95-21.441 8.55 2.659 14.58 9.946 20.44 16.282 12.52 16.676 12.01 39.214 7.3 58.588-6.95 30.611-22.22 58.431-31.29 88.351z" fill-rule="evenodd" fill="url(#linearGradient6587)"/>
  <path id="path2892" d="m199.28 164.56c-43.69-7.27-84.88-37.74-99.986-79.984-7.619-22.605-1.368-59.614 28.726-58.894 26.83-2.334 43.16 22.778 51.46 44.75 11.86 29.988 15.07 62.478 19.8 94.128z" fill-rule="evenodd" fill="#98bbfd"/>
  <path id="path5336" d="m199.27 164.13c-43.69-7.27-84.88-37.75-99.993-79.984-7.619-22.605-1.369-59.614 28.723-58.895 26.84-2.334 43.17 22.779 51.46 44.75 11.86 29.992 15.07 62.479 19.81 94.129z" fill-rule="evenodd" fill="url(#linearGradient6579)"/>
  <path id="path18050" d="m346.08 499.75a16.746 13.025 0 1 1 -33.49 0 16.746 13.025 0 1 1 33.49 0z" transform="matrix(-3.3787 0 0 4.2565 1332.8 -1960.3)" fill="none"/>
  <path id="path5334" d="m346.08 499.75a16.746 13.025 0 1 1 -33.49 0 16.746 13.025 0 1 1 33.49 0z" fill-rule="evenodd" fill-opacity=".25098" transform="matrix(-3.3787 0 0 4.2565 1307.6 -1944)"/>
  <path id="path2893" d="m346.08 499.75a16.746 13.025 0 1 1 -33.49 0 16.746 13.025 0 1 1 33.49 0z" fill-rule="evenodd" transform="matrix(-3.3788 0 0 4.2567 1304.3 -1949)" fill="url(#radialGradient2815)"/>
  <path id="path3444" d="m346.08 499.75a16.746 13.025 0 1 1 -33.49 0 16.746 13.025 0 1 1 33.49 0z" fill-rule="evenodd" transform="matrix(-3.3788 0 0 4.2567 1304.3 -1949)" fill="url(#radialGradient4069)"/>
 </g>
 <path id="path4646" d="m-57.851 423.55s123.97 272.73 438.02 276.86c404.95 0 657.03-86.77 714.83-165.29-6.2 103.31 16.6 262.4 16.6 262.4l-1289.3 10.33 119.85-384.3z" fill-rule="evenodd" fill-opacity=".75" transform="translate(-610.69 .78263)" fill="url(#linearGradient5268)"/>
 <metadata>
  <rdf:RDF>
   <cc:Work>
    <dc:format>image/svg+xml</dc:format>
    <dc:type rdf:resource="http://purl.org/dc/dcmitype/StillImage"/>
    <cc:license rdf:resource="http://creativecommons.org/licenses/publicdomain/"/>
    <dc:publisher>
     <cc:Agent rdf:about="http://openclipart.org/">
      <dc:title>Openclipart</dc:title>
     </cc:Agent>
    </dc:publisher>
   </cc:Work>
   <cc:License rdf:about="http://creativecommons.org/licenses/publicdomain/">
    <cc:permits rdf:resource="http://creativecommons.org/ns#Reproduction"/>
    <cc:permits rdf:resource="http://creativecommons.org/ns#Distribution"/>
    <cc:permits rdf:resource="http://creativecommons.org/ns#DerivativeWorks"/>
   </cc:License>
  </rdf:RDF>
 </metadata>
</svg>
