<?xml version="1.0" encoding="UTF-8"?>
<svg version="1.1" viewBox="-5 -5 10 10" xmlns="http://www.w3.org/2000/svg" xmlns:xlink="http://www.w3.org/1999/xlink">
<defs>
	<!-- Generated using:
		var r = 4;
		var steps = 36;
		var angle = Math.PI * 2 / steps / 2;

		var a1 = [0, -(r - 1)];
		var a2 = [0, -r];

		var rotate = function(p, angle) { return [p[0] * Math.cos(angle) - p[1] * Math.sin(angle), p[0] * Math.sin(angle) + p[1] * Math.cos(angle)]; };
		var points = [
			rotate(a1, angle),
			rotate(a2, angle),
			rotate(a2, -angle),
			rotate(a1, -angle),
		];

		var d = 'M' + points.map(function(p){return p.join(',');}).join(' ') + ' z';
	-->
	<path id="circle-section" d="M-0.2614672282429745,-2.988584094275237 -0.34862297099063266,-3.984778792366982 0.34862297099063266,-3.984778792366982 0.2614672282429745,-2.988584094275237 z"/>
</defs>
<use xlink:href="#circle-section" x="0" y="0" fill="hsl(0, 100%, 50%)" transform="rotate(0)"/>
<use xlink:href="#circle-section" x="0" y="0" fill="hsl(10, 100%, 50%)" transform="rotate(10)"/>
<use xlink:href="#circle-section" x="0" y="0" fill="hsl(20, 100%, 50%)" transform="rotate(20)"/>
<use xlink:href="#circle-section" x="0" y="0" fill="hsl(30, 100%, 50%)" transform="rotate(30)"/>
<use xlink:href="#circle-section" x="0" y="0" fill="hsl(40, 100%, 50%)" transform="rotate(40)"/>
<use xlink:href="#circle-section" x="0" y="0" fill="hsl(50, 100%, 50%)" transform="rotate(50)"/>
<use xlink:href="#circle-section" x="0" y="0" fill="hsl(60, 100%, 50%)" transform="rotate(60)"/>
<use xlink:href="#circle-section" x="0" y="0" fill="hsl(70, 100%, 50%)" transform="rotate(70)"/>
<use xlink:href="#circle-section" x="0" y="0" fill="hsl(80, 100%, 50%)" transform="rotate(80)"/>
<use xlink:href="#circle-section" x="0" y="0" fill="hsl(90, 100%, 50%)" transform="rotate(90)"/>
<use xlink:href="#circle-section" x="0" y="0" fill="hsl(100, 100%, 50%)" transform="rotate(100)"/>
<use xlink:href="#circle-section" x="0" y="0" fill="hsl(110, 100%, 50%)" transform="rotate(110)"/>
<use xlink:href="#circle-section" x="0" y="0" fill="hsl(120, 100%, 50%)" transform="rotate(120)"/>
<use xlink:href="#circle-section" x="0" y="0" fill="hsl(130, 100%, 50%)" transform="rotate(130)"/>
<use xlink:href="#circle-section" x="0" y="0" fill="hsl(140, 100%, 50%)" transform="rotate(140)"/>
<use xlink:href="#circle-section" x="0" y="0" fill="hsl(150, 100%, 50%)" transform="rotate(150)"/>
<use xlink:href="#circle-section" x="0" y="0" fill="hsl(160, 100%, 50%)" transform="rotate(160)"/>
<use xlink:href="#circle-section" x="0" y="0" fill="hsl(170, 100%, 50%)" transform="rotate(170)"/>
<use xlink:href="#circle-section" x="0" y="0" fill="hsl(180, 100%, 50%)" transform="rotate(180)"/>
<use xlink:href="#circle-section" x="0" y="0" fill="hsl(190, 100%, 50%)" transform="rotate(190)"/>
<use xlink:href="#circle-section" x="0" y="0" fill="hsl(200, 100%, 50%)" transform="rotate(200)"/>
<use xlink:href="#circle-section" x="0" y="0" fill="hsl(210, 100%, 50%)" transform="rotate(210)"/>
<use xlink:href="#circle-section" x="0" y="0" fill="hsl(220, 100%, 50%)" transform="rotate(220)"/>
<use xlink:href="#circle-section" x="0" y="0" fill="hsl(230, 100%, 50%)" transform="rotate(230)"/>
<use xlink:href="#circle-section" x="0" y="0" fill="hsl(240, 100%, 50%)" transform="rotate(240)"/>
<use xlink:href="#circle-section" x="0" y="0" fill="hsl(250, 100%, 50%)" transform="rotate(250)"/>
<use xlink:href="#circle-section" x="0" y="0" fill="hsl(260, 100%, 50%)" transform="rotate(260)"/>
<use xlink:href="#circle-section" x="0" y="0" fill="hsl(270, 100%, 50%)" transform="rotate(270)"/>
<use xlink:href="#circle-section" x="0" y="0" fill="hsl(280, 100%, 50%)" transform="rotate(280)"/>
<use xlink:href="#circle-section" x="0" y="0" fill="hsl(290, 100%, 50%)" transform="rotate(290)"/>
<use xlink:href="#circle-section" x="0" y="0" fill="hsl(300, 100%, 50%)" transform="rotate(300)"/>
<use xlink:href="#circle-section" x="0" y="0" fill="hsl(310, 100%, 50%)" transform="rotate(310)"/>
<use xlink:href="#circle-section" x="0" y="0" fill="hsl(320, 100%, 50%)" transform="rotate(320)"/>
<use xlink:href="#circle-section" x="0" y="0" fill="hsl(330, 100%, 50%)" transform="rotate(330)"/>
<use xlink:href="#circle-section" x="0" y="0" fill="hsl(340, 100%, 50%)" transform="rotate(340)"/>
<use xlink:href="#circle-section" x="0" y="0" fill="hsl(350, 100%, 50%)" transform="rotate(350)"/>

<g text-anchor="middle" dominant-baseline="central" font-family="Arial, sans-serif" font-size="0.4px">
	<text x="0" y="-4.5" transform="rotate(0)">0</text>
	<text x="0" y="-4.5" transform="rotate(10)">10</text>
	<text x="0" y="-4.5" transform="rotate(20)">20</text>
	<text x="0" y="-4.5" transform="rotate(30)">30</text>
	<text x="0" y="-4.5" transform="rotate(40)">40</text>
	<text x="0" y="-4.5" transform="rotate(50)">50</text>
	<text x="0" y="-4.5" transform="rotate(60)">60</text>
	<text x="0" y="-4.5" transform="rotate(70)">70</text>
	<text x="0" y="-4.5" transform="rotate(80)">80</text>
	<text x="0" y="-4.5" transform="rotate(90)">90</text>
	<text x="0" y="-4.5" transform="rotate(100)">100</text>
	<text x="0" y="-4.5" transform="rotate(110)">110</text>
	<text x="0" y="-4.5" transform="rotate(120)">120</text>
	<text x="0" y="-4.5" transform="rotate(130)">130</text>
	<text x="0" y="-4.5" transform="rotate(140)">140</text>
	<text x="0" y="-4.5" transform="rotate(150)">150</text>
	<text x="0" y="-4.5" transform="rotate(160)">160</text>
	<text x="0" y="-4.5" transform="rotate(170)">170</text>
	<text x="0" y="-4.5" transform="rotate(180)">180</text>
	<text x="0" y="-4.5" transform="rotate(190)">190</text>
	<text x="0" y="-4.5" transform="rotate(200)">200</text>
	<text x="0" y="-4.5" transform="rotate(210)">210</text>
	<text x="0" y="-4.5" transform="rotate(220)">220</text>
	<text x="0" y="-4.5" transform="rotate(230)">230</text>
	<text x="0" y="-4.5" transform="rotate(240)">240</text>
	<text x="0" y="-4.5" transform="rotate(250)">250</text>
	<text x="0" y="-4.5" transform="rotate(260)">260</text>
	<text x="0" y="-4.5" transform="rotate(270)">270</text>
	<text x="0" y="-4.5" transform="rotate(280)">280</text>
	<text x="0" y="-4.5" transform="rotate(290)">290</text>
	<text x="0" y="-4.5" transform="rotate(300)">300</text>
	<text x="0" y="-4.5" transform="rotate(310)">310</text>
	<text x="0" y="-4.5" transform="rotate(320)">320</text>
	<text x="0" y="-4.5" transform="rotate(330)">330</text>
	<text x="0" y="-4.5" transform="rotate(340)">340</text>
	<text x="0" y="-4.5" transform="rotate(350)">350</text>
</g>
</svg>
