<?xml version="1.0"?>
<svg xmlns:rdf="http://www.w3.org/1999/02/22-rdf-syntax-ns#" xmlns="http://www.w3.org/2000/svg" xmlns:cc="http://creativecommons.org/ns#" xmlns:dc="http://purl.org/dc/elements/1.1/" xmlns:svg="http://www.w3.org/2000/svg" id="svg2" viewBox="0 0 376.66 377.34" version="1.0">
  <path id="path9808" stroke="#000" stroke-width="5" fill="#ff7f2a" d="m110.51 350.37c-12.933-14.41-22.984-32.94-27.325-50.38-1.624-6.52-2.963-17.47-2.883-23.57 0.136-10.3 2.657-23.15 5.678-28.94l1.408-2.7 6.094-0.68c9.788-1.1 17.888-5.11 21.138-10.46 2.26-3.72 1.16-7.34-2.67-8.74-6.37-2.31-16.544 4.25-23.199 14.96-1.131 1.83-2.196 3.38-2.366 3.46s-1.929-0.01-3.909-0.2c-14.072-1.33-29.776-8.22-42.635-18.7-15.835-12.91-29.002-31.87-36.066-51.93-2.04-5.8-2.1757-5.26 3.7047-14.6 17.009-26.99 43.607-46.16 69.985-50.42 5.604-0.91 15.476-1.31 18.661-0.77 2.041 0.35 2.253 0.62 4.974 6.45 3.21 6.85 6.23 10.75 10.86 14.01 9.55 6.72 17.21-0.34 10.22-9.42-3.79-4.92-11.43-9.28-19.03-10.86l-3.734-0.77-0.805-3.11c-2.178-8.404-2.179-21.418-0.002-32.344 1.841-9.245 7.831-24.056 13.241-32.74 6.89-11.059 16.32-21.809 26.46-30.175 7.31-6.0326 7.16-5.9914 15.09-4.156 8.3 1.9214 23.08 7.303 29.51 10.741 21.29 11.395 35.74 25.816 44.19 44.088 3.42 7.398 5.93 15.126 5.38 16.613-0.11 0.321-1.37 1.541-2.79 2.712-5.19 4.268-8.45 8.489-10.75 13.884-1.89 4.437-2.11 5.427-1.84 8.108 0.32 3.069 1.88 5.499 4.05 6.289 0.62 0.23 2.31-0.05 3.75-0.61 6.34-2.47 10.43-13.413 9.45-25.292l-0.36-4.4 2.49-1.536c4.66-2.868 14.79-6.938 20.71-8.313 13.37-3.111 26.93-3.101 42.96 0.033 7.17 1.403 23.85 7.629 31.13 11.622 5.07 2.784 15.82 9.629 16.04 10.216 0.88 2.347 1.48 19.3 0.97 27.15-2.09 31.57-15.77 58.97-36.97 74.05-6.38 4.53-6.3 4.52-10.22 1.95-4.82-3.17-12.66-5.88-17.71-6.13-5.72-0.28-9.85 1.5-11.04 4.78-1.37 3.76 0.6 6.68 5.74 8.56 5.45 1.98 12.95 1.44 21.09-1.51l5.47-1.99 1.86 1.5c10.44 8.49 20.5 25.41 24.6 41.39 5.22 20.33 4.75 41.33-1.42 63.19l-1.47 5.22-5.57 2.4c-12.68 5.48-23.56 8.41-36.63 9.85-27.08 3-51.88-3.47-68.76-17.95-2.66-2.29-2.76-2.49-2.08-4.35 2.14-5.87 2.29-17.63 0.3-22.59-2.26-5.63-6.01-8.37-9.58-7-7.29 2.8-4.62 18.43 4.91 28.87l2.4 2.62-1.15 3.16c-3.96 10.9-14.13 23.26-26.77 32.54-17.88 13.12-40.6 20.62-65.02 21.46l-5.53 0.19-4.23-4.73z"/>
  <path id="path9810" stroke="#000" stroke-width="5" fill="#ffe6d5" d="m61.806 317.22c-7.22-17.96-10.325-38.82-8.441-56.68 0.705-6.69 3.191-17.44 5.354-23.14 3.651-9.64 10.415-20.85 15.234-25.26l2.245-2.05 5.96 1.44c9.575 2.32 18.552 1.32 23.442-2.59 3.4-2.73 3.6-6.51 0.48-9.13-5.2-4.35-17.001-1.67-26.919 6.12-1.687 1.33-3.22 2.43-3.406 2.44-0.187 0.02-1.809-0.66-3.606-1.52-12.769-6.06-25.169-17.9-33.666-32.15-10.465-17.55-16.353-39.87-16.129-61.14 0.065-6.15-0.246-5.69 8.472-12.45 25.217-19.547 56.765-28.458 83.014-23.444 5.57 1.066 14.99 4.06 17.79 5.659 1.8 1.026 1.91 1.356 2.48 7.764 0.67 7.538 2.17 12.231 5.41 16.881 6.67 9.58 16.29 5.56 12.82-5.36-1.88-5.918-7.56-12.624-14.16-16.709l-3.25-2.008 0.31-3.193c0.82-8.644 5.27-20.873 11.06-30.396 4.89-8.057 15.59-19.926 23.64-26.235 10.26-8.036 22.79-14.914 35.18-19.307 8.94-3.1678 8.78-3.1802 15.6 1.2562 7.15 4.6438 19.2 14.758 24.06 20.185 16.1 17.989 24.76 36.484 26.45 56.544 0.68 8.122 0.39 16.24-0.63 17.453-0.22 0.26-1.82 0.98-3.55 1.59-6.33 2.24-10.85 5.09-14.85 9.37-3.29 3.53-3.84 4.38-4.5 6.99-0.76 3-0.12 5.81 1.65 7.3 0.51 0.42 2.19 0.74 3.73 0.71 6.8-0.15 14.39-9.04 17.53-20.54l1.17-4.26 2.87-0.59c5.36-1.1 16.27-1.457 22.3-0.73 13.63 1.65 26.37 6.3 40.36 14.73 6.26 3.77 19.8 15.32 25.27 21.56 3.82 4.36 11.58 14.46 11.58 15.09 0.03 2.51-5.2 18.64-8.37 25.85-12.76 28.95-34.98 50.01-60.07 56.93-7.54 2.08-7.46 2.1-10.27-1.66-3.44-4.62-9.89-9.85-14.54-11.81-5.28-2.23-9.77-1.96-12.01 0.71-2.57 3.06-1.73 6.49 2.47 10.01 4.44 3.72 11.67 5.78 20.33 5.79h5.82l1.23 2.05c6.91 11.55 10.58 30.89 8.97 47.3-2.06 20.9-9.68 40.47-22.95 58.9l-3.17 4.4-6.06 0.36c-13.78 0.81-25.01-0.17-37.78-3.27-26.48-6.45-47.57-21.01-58.47-40.4-1.72-3.05-1.75-3.28-0.47-4.79 4.01-4.79 8.18-15.78 8.01-21.13-0.2-6.06-2.79-9.92-6.62-9.85-7.8 0.13-10.64 15.74-5.25 28.81l1.35 3.28-2.16 2.58c-7.45 8.89-21.22 17.02-36.28 21.41-21.29 6.22-45.208 5.5-68.435-2.07l-5.265-1.71-2.364-5.89z"/>
  <path id="path9806" stroke="#000" stroke-width="5" fill="#f00" d="m171.57 371.85c-17.07-9.12-32.86-23.1-42.9-38-3.76-5.57-8.76-15.41-10.77-21.17-3.4-9.72-5.42-22.66-4.56-29.13l0.4-3.02 5.49-2.73c8.82-4.38 15.06-10.91 16.29-17.05 0.85-4.27-1.43-7.3-5.5-7.3-6.78 0-14.1 9.65-16.69 21.99-0.44 2.1-0.9 3.93-1.04 4.06-0.13 0.13-1.81 0.65-3.74 1.15-13.675 3.57-30.788 2.46-46.458-2.99-19.296-6.72-38.153-20.03-51.653-36.47-3.8993-4.75-3.844-4.2-1.5101-14.98 6.7511-31.18 25.191-58.29 48.519-71.32 4.956-2.76 14.094-6.52 17.272-7.1 2.037-0.37 2.33-0.19 6.885 4.36 5.358 5.34 9.525 7.97 14.991 9.45 11.274 3.05 16.054-6.21 6.374-12.35-5.238-3.32-13.903-4.81-21.584-3.69l-3.777 0.55-1.818-2.65c-4.922-7.15-9.374-19.38-11.065-30.39-1.431-9.32-0.867-25.286 1.247-35.296 2.693-12.749 7.873-26.074 14.541-37.404 4.809-8.17 4.682-8.08 12.76-9.067 8.456-1.034 24.186-1.033 31.396 0.001 23.91 3.427 42.42 12.034 56.61 26.315 5.75 5.782 10.74 12.187 10.74 13.769 0 0.342-0.76 1.919-1.7 3.506-3.41 5.782-5.03 10.866-5.35 16.721-0.25 4.815-0.13 5.822 1.05 8.247 1.34 2.778 3.64 4.528 5.95 4.528 0.66 0 2.16-0.84 3.32-1.85 5.11-4.492 5.21-16.177 0.22-27.006l-1.84-4.01 1.82-2.296c3.39-4.289 11.53-11.579 16.61-14.894 11.5-7.496 24.25-12.126 40.39-14.663 7.22-1.136 25.02-0.989 33.22 0.275 5.72 0.881 18.16 3.637 18.57 4.113 1.63 1.904 8 17.626 10.19 25.182 8.84 30.378 5.36 60.799-9.41 82.219-4.44 6.45-4.37 6.41-8.94 5.33-5.61-1.32-13.9-1.19-18.73 0.3-5.47 1.69-8.74 4.78-8.74 8.27 0 4 2.85 6.08 8.32 6.08 5.8 0 12.66-3.07 19.3-8.63l4.46-3.75 2.26 0.79c12.72 4.4 27.96 16.86 37.28 30.47 11.85 17.32 18.59 37.21 20.27 59.86l0.41 5.41-4.42 4.17c-10.03 9.48-19.26 15.95-31.04 21.78-24.43 12.08-49.94 14.48-70.76 6.64-3.28-1.23-3.44-1.39-3.44-3.37 0-6.24-3.88-17.34-7.45-21.33-4.04-4.51-8.51-5.8-11.4-3.29-5.88 5.11 1.97 18.89 14.5 25.44l3.15 1.64v3.37c0 11.59-5.32 26.68-14.03 39.73-12.31 18.44-31.1 33.26-53.76 42.4l-5.13 2.07-5.6-2.99z"/>
  <path id="path9812" d="m460.56 275.17a66.036 62.649 0 1 1 -132.07 0 66.036 62.649 0 1 1 132.07 0z" transform="translate(-203.48 -88.646)" stroke="#000" stroke-width="5" fill="#ffe680"/>
  <metadata>
    <rdf:RDF>
      <cc:Work>
        <dc:format>image/svg+xml</dc:format>
        <dc:type rdf:resource="http://purl.org/dc/dcmitype/StillImage"/>
        <cc:license rdf:resource="http://creativecommons.org/licenses/publicdomain/"/>
        <dc:publisher>
          <cc:Agent rdf:about="http://openclipart.org/">
            <dc:title>Openclipart</dc:title>
          </cc:Agent>
        </dc:publisher>
        <dc:title>flower-01</dc:title>
        <dc:date>2007-12-31T15:37:00</dc:date>
        <dc:description>abstract, abstract, clip art, clipart, flower, flower, image, media, nature, nature, plant, plant, png, public domain, red, red, svg, </dc:description>
        <dc:source>http://openclipart.org/detail/10406/flower-01-by-yves_guillou</dc:source>
        <dc:creator>
          <cc:Agent>
            <dc:title>yves_guillou</dc:title>
          </cc:Agent>
        </dc:creator>
        <dc:subject>
          <rdf:Bag>
            <rdf:li>abstract</rdf:li>
            <rdf:li>clip art</rdf:li>
            <rdf:li>clipart</rdf:li>
            <rdf:li>flower</rdf:li>
            <rdf:li>image</rdf:li>
            <rdf:li>media</rdf:li>
            <rdf:li>nature</rdf:li>
            <rdf:li>plant</rdf:li>
            <rdf:li>png</rdf:li>
            <rdf:li>public domain</rdf:li>
            <rdf:li>red</rdf:li>
            <rdf:li>svg</rdf:li>
          </rdf:Bag>
        </dc:subject>
      </cc:Work>
      <cc:License rdf:about="http://creativecommons.org/licenses/publicdomain/">
        <cc:permits rdf:resource="http://creativecommons.org/ns#Reproduction"/>
        <cc:permits rdf:resource="http://creativecommons.org/ns#Distribution"/>
        <cc:permits rdf:resource="http://creativecommons.org/ns#DerivativeWorks"/>
      </cc:License>
    </rdf:RDF>
  </metadata>
</svg>
