<?xml version="1.0" encoding="utf-8"?>

<!DOCTYPE svg PUBLIC "-//W3C//DTD SVG 1.1//EN" "http://www.w3.org/Graphics/SVG/1.1/DTD/svg11.dtd">
<svg version="1.1" id="Layer_1" xmlns="http://www.w3.org/2000/svg" xmlns:xlink="http://www.w3.org/1999/xlink" x="0px" y="0px"
	 viewBox="405.0934 -74.8952 1749.8134 1749.7902" enable-background="new 405.0934 -74.8952 1749.8134 1749.7902"
	 xml:space="preserve">
<g>
	
		<linearGradient id="SVGID_1_" gradientUnits="userSpaceOnUse" x1="106.05" y1="233.0089" x2="1329.5763" y2="560.8518" gradientTransform="matrix(0.9315 0 0 -0.9315 479.9893 1490.4691)">
		<stop  offset="0" style="stop-color:#3F0D05"/>
		<stop  offset="0.0666" style="stop-color:#953A11"/>
		<stop  offset="0.1431" style="stop-color:#E78822"/>
		<stop  offset="0.1913" style="stop-color:#FEC63A"/>
		<stop  offset="0.2546" style="stop-color:#FAD88A"/>
		<stop  offset="0.3211" style="stop-color:#6199C7"/>
		<stop  offset="0.396" style="stop-color:#55BCE8"/>
		<stop  offset="0.4276" style="stop-color:#5F99C9"/>
		<stop  offset="0.4992" style="stop-color:#4A5877"/>
		<stop  offset="0.5807" style="stop-color:#496589"/>
		<stop  offset="0.6622" style="stop-color:#C1AA94"/>
		<stop  offset="0.7338" style="stop-color:#A0796A"/>
		<stop  offset="0.7887" style="stop-color:#FDC339"/>
		<stop  offset="0.8486" style="stop-color:#C95A10"/>
		<stop  offset="0.9218" style="stop-color:#671E11"/>
		<stop  offset="1" style="stop-color:#310908"/>
	</linearGradient>
	<path fill="url(#SVGID_1_)" d="M1705.3219,1203.5164c-15.9634,53.0409-43.603,106.0176-81.3203,156.2112
		c-37.7172,50.2256-85.7675,97.2521-143.6062,138.6482c-57.8396,41.396-123.4529,73.6746-194.1207,96.1642
		c-5.8859,1.8873-11.8044,3.6467-17.7223,5.3744c-38.8051-0.5436-77.2261-3.9668-115.2308-10.0771
		c-67.5328-10.9088-133.1461-30.3591-195.5601-57.8711c-62.4461-27.4802-121.6931-63.118-175.6612-105.9535
		c-43.9874-34.9341-84.6475-74.9865-120.8293-119.1019c-8.1898-9.9811-16.2195-20.0901-23.897-30.4871
		c-41.7161-56.3358-76.97-119.7416-103.4905-188.4259c-26.5205-68.6841-42.8033-138.264-49.8739-208.228
		c-3.071-30.6152-4.3823-61.0385-3.9348-91.2378c1.7276,5.9503,3.5193,11.8687,5.375,17.7549
		c22.5216,70.6357,54.7678,136.2809,96.1645,194.1201c41.3959,57.8395,88.4542,105.8896,138.6476,143.6068
		c50.1934,37.717,103.1703,65.3571,156.2112,81.3204c106.1132,31.927,199.9745,29.3995,266.2273,3.2952
		c26.6478-10.493,48.0502-22.6495,64.301-35.5099c1.4402,0.288,2.9116,0.576,4.3511,0.8318
		c50.4175,8.7655,102.1464,7.9977,152.8842-2.911c50.705-10.9091,99.6831-31.703,144.9506-63.3418
		c45.2346-31.6389,82.2802-71.4034,109.8558-115.5189c19.0031-30.3591,33.7183-63.0856,43.8911-96.9641
		c4.191-13.9159,7.5502-27.9919,10.2057-42.2277c12.8596,16.2512,24.9843,37.6851,35.5093,64.3334
		C1734.754,1003.5421,1737.2487,1097.403,1705.3219,1203.5164z"/>
	
		<linearGradient id="SVGID_2_" gradientUnits="userSpaceOnUse" x1="678.4296" y1="270.4486" x2="350.5908" y2="1493.9591" gradientTransform="matrix(0.9315 0 0 -0.9315 479.9893 1490.4691)">
		<stop  offset="0" style="stop-color:#310908"/>
		<stop  offset="0.0782" style="stop-color:#671E11"/>
		<stop  offset="0.1514" style="stop-color:#C95A10"/>
		<stop  offset="0.2113" style="stop-color:#FDC339"/>
		<stop  offset="0.2662" style="stop-color:#A0796A"/>
		<stop  offset="0.3378" style="stop-color:#C1AA94"/>
		<stop  offset="0.4193" style="stop-color:#496589"/>
		<stop  offset="0.5008" style="stop-color:#4A5877"/>
		<stop  offset="0.5724" style="stop-color:#5F99C9"/>
		<stop  offset="0.604" style="stop-color:#55BCE8"/>
		<stop  offset="0.6789" style="stop-color:#6199C7"/>
		<stop  offset="0.7454" style="stop-color:#FAD88A"/>
		<stop  offset="0.8087" style="stop-color:#FEC63A"/>
		<stop  offset="0.8569" style="stop-color:#E78822"/>
		<stop  offset="0.9334" style="stop-color:#953A11"/>
		<stop  offset="1" style="stop-color:#3F0D05"/>
	</linearGradient>
	<path fill="url(#SVGID_2_)" d="M854.6873,396.4849c-31.9588,106.1134-29.4314,199.9745-3.3272,266.1952
		c10.5251,26.6484,22.6497,48.0823,35.5101,64.3337c-0.2882,1.4394-0.5764,2.879-0.8318,4.3506
		c-8.7654,50.3855-7.9657,102.1146,2.9429,152.8519c10.8773,50.7375,31.6714,99.7155,63.3099,144.9503
		c31.6385,45.267,71.4357,82.3124,115.519,109.8884c30.3914,18.9706,63.0858,33.6863,96.9955,43.8595
		c13.8843,4.1908,27.9919,7.5818,42.1957,10.2048c-16.2507,12.8604-37.6533,25.0168-64.301,35.5099
		c-66.2528,26.1044-160.1141,28.6318-266.2272-3.2952c-53.041-15.9634-106.0179-43.6034-156.2113-81.3204
		c-50.1934-37.7172-97.2516-85.7673-138.6476-143.6068c-41.3967-57.8391-73.6429-123.4843-96.1645-194.1201
		c-1.8557-5.8862-3.6474-11.8046-5.375-17.7549c0.5444-38.8048,3.9676-77.2258,10.1096-115.1989
		c10.8766-67.5645,30.3592-133.1456,57.8396-195.5917c27.4796-62.4459,63.1178-121.6929,105.9531-175.6294
		c34.9337-44.0194,74.9861-84.6797,119.1016-120.8293c9.9807-8.1896,20.0903-16.2194,30.4873-23.9291
		c56.3353-41.7161,119.7413-76.9698,188.4254-103.4583c68.6849-26.5203,138.2648-42.8357,208.2282-49.8735
		c30.6155-3.1032,61.0387-4.3827,91.2379-3.935c-5.9186,1.7276-11.8365,3.4871-17.7231,5.3744
		c-70.6678,22.4896-136.2803,54.7684-194.1199,96.1645c-57.8395,41.3959-105.9218,88.4224-143.6071,138.6479
		C898.2902,290.4674,870.6506,343.4121,854.6873,396.4849z"/>
	
		<linearGradient id="SVGID_3_" gradientUnits="userSpaceOnUse" x1="1039.1831" y1="1211.973" x2="1367.02" y2="-11.5312" gradientTransform="matrix(0.9315 0 0 -0.9315 479.9893 1490.4691)">
		<stop  offset="0" style="stop-color:#310908"/>
		<stop  offset="0.0782" style="stop-color:#671E11"/>
		<stop  offset="0.1514" style="stop-color:#C95A10"/>
		<stop  offset="0.2113" style="stop-color:#FDC339"/>
		<stop  offset="0.2662" style="stop-color:#A0796A"/>
		<stop  offset="0.3378" style="stop-color:#C1AA94"/>
		<stop  offset="0.4193" style="stop-color:#496589"/>
		<stop  offset="0.5008" style="stop-color:#4A5877"/>
		<stop  offset="0.5724" style="stop-color:#5F99C9"/>
		<stop  offset="0.604" style="stop-color:#55BCE8"/>
		<stop  offset="0.6789" style="stop-color:#6199C7"/>
		<stop  offset="0.7454" style="stop-color:#FAD88A"/>
		<stop  offset="0.8087" style="stop-color:#FEC63A"/>
		<stop  offset="0.8569" style="stop-color:#E78822"/>
		<stop  offset="0.9334" style="stop-color:#953A11"/>
		<stop  offset="1" style="stop-color:#3F0D05"/>
	</linearGradient>
	<path fill="url(#SVGID_3_)" d="M2079.9343,811.4693c-0.5757,38.8048-3.9668,77.2258-10.1089,115.1989
		c-10.9092,67.5645-30.3591,133.1456-57.8395,195.5917c-27.5123,62.4141-63.1178,121.6929-105.9531,175.6294
		c-34.9344,44.0193-74.9869,84.6797-119.1024,120.8292c-9.9807,8.1897-20.0903,16.2194-30.4873,23.8972
		c-56.3673,41.7479-119.7733,77.002-188.4253,103.4902c-68.6842,26.5201-138.2643,42.8035-208.2277,49.8735
		c-30.6473,3.071-61.0707,4.3827-91.2378,3.9348c5.9178-1.7277,11.8364-3.4871,17.7223-5.3744
		c70.668-22.4896,136.2811-54.7682,194.1207-96.1642c57.8387-41.3961,105.889-88.4226,143.6062-138.6482
		c37.7173-50.1936,65.3569-103.1703,81.3203-156.2112c31.9268-106.1134,29.4321-199.9742,3.3271-266.1951
		c-10.525-26.6484-22.6497-48.0823-35.5093-64.3334c0.2554-1.4396,0.5436-2.8793,0.7998-4.3509
		c8.7975-50.3855,7.9977-102.1466-2.9117-152.8519c-10.8765-50.7374-31.6705-99.7153-63.309-144.9503
		c-31.6714-45.2671-71.4357-82.3125-115.519-109.8885c-30.3914-19.0026-63.0858-33.6862-96.9963-43.8913
		c-13.8834-4.1588-27.9918-7.5498-42.1957-10.2051c16.2195-12.8604,37.6532-24.9848,64.3019-35.4779
		c66.2208-26.1044,160.0812-28.6316,266.1952,3.2951c53.0723,15.9634,106.0492,43.6035,156.2426,81.3206
		c50.1934,37.7173,97.2524,85.7673,138.6483,143.6067c41.3959,57.8394,73.6428,123.4843,96.1646,194.1201
		C2076.415,799.601,2078.2068,805.5191,2079.9343,811.4693z"/>
	
		<linearGradient id="SVGID_4_" gradientUnits="userSpaceOnUse" x1="388.0354" y1="921.5665" x2="1611.5471" y2="1249.4055" gradientTransform="matrix(0.9315 0 0 -0.9315 479.9893 1490.4691)">
		<stop  offset="0" style="stop-color:#310908"/>
		<stop  offset="0.0782" style="stop-color:#671E11"/>
		<stop  offset="0.1514" style="stop-color:#C95A10"/>
		<stop  offset="0.2113" style="stop-color:#FDC339"/>
		<stop  offset="0.2662" style="stop-color:#A0796A"/>
		<stop  offset="0.3378" style="stop-color:#C1AA94"/>
		<stop  offset="0.4193" style="stop-color:#496589"/>
		<stop  offset="0.5008" style="stop-color:#4A5877"/>
		<stop  offset="0.5724" style="stop-color:#5F99C9"/>
		<stop  offset="0.604" style="stop-color:#55BCE8"/>
		<stop  offset="0.6789" style="stop-color:#6199C7"/>
		<stop  offset="0.7454" style="stop-color:#FAD88A"/>
		<stop  offset="0.8087" style="stop-color:#FEC63A"/>
		<stop  offset="0.8569" style="stop-color:#E78822"/>
		<stop  offset="0.9334" style="stop-color:#953A11"/>
		<stop  offset="1" style="stop-color:#3F0D05"/>
	</linearGradient>
	<path fill="url(#SVGID_4_)" d="M2079.9343,811.4693c-1.7275-5.9503-3.5193-11.8685-5.3743-17.7549
		c-22.5215-70.6357-54.7686-136.2807-96.1644-194.1201c-41.3959-57.8394-88.455-105.8894-138.6483-143.6067
		c-50.1934-37.7171-103.1703-65.3572-156.2426-81.3206c-106.1139-31.9267-199.9744-29.3995-266.1952-3.2951
		c-26.6487,10.4931-48.0823,22.6175-64.3019,35.4779c-1.4713-0.256-2.9116-0.5438-4.3511-0.7998
		c-50.4175-8.7975-102.1464-7.9977-152.8833,2.9111c-50.7057,10.909-99.6838,31.703-144.9506,63.3419
		c-45.2354,31.6387-82.3121,71.4033-109.8565,115.5187c-19.0023,30.3593-33.7184,63.0858-43.8913,96.9641
		c-4.191,13.9159-7.5822,27.9919-10.2049,42.2279c-12.8604-16.2514-24.985-37.6853-35.5101-64.3337
		c-26.1042-66.2208-28.6316-160.0817,3.3272-266.1953c15.9634-53.0728,43.603-106.0175,81.3203-156.2111
		c37.6852-50.2256,85.7675-97.2521,143.6071-138.648c57.8396-41.3961,123.452-73.6749,194.1199-96.1645
		c5.8866-1.8873,11.8043-3.6468,17.723-5.3744c38.8044,0.544,77.2255,3.967,115.231,10.0772
		c67.5321,10.9088,133.1133,30.3592,195.5593,57.8714c62.4459,27.48,121.693,63.1178,175.6619,105.9535
		c43.9873,34.9339,84.6475,74.9544,120.8285,119.1017c8.1577,9.9811,16.1875,20.0901,23.8978,30.4871
		c41.7161,56.3359,76.97,119.7417,103.4897,188.4259c26.4884,68.6843,42.8041,138.2642,49.8417,208.228
		C2079.0706,750.8467,2080.3499,781.27,2079.9343,811.4693z"/>
</g>
</svg>
