<?xml version="1.0" encoding="utf-8"?>

<!DOCTYPE svg PUBLIC "-//W3C//DTD SVG 1.1//EN" "http://www.w3.org/Graphics/SVG/1.1/DTD/svg11.dtd">
<svg version="1.1" id="Layer_1" xmlns="http://www.w3.org/2000/svg" xmlns:xlink="http://www.w3.org/1999/xlink" x="0px" y="0px"
	 viewBox="0 0 1678.453 1678.453" enable-background="new 0 0 1678.453 1678.453" xml:space="preserve">
<g>
	<g>
		<g>
			<path fill="#F33103" d="M313.239,640.68C72.97,436.216-32.555,302.902,91.669,408.455
				C185.311,487.941,478.135,780.748,313.239,640.68z"/>
			<path fill="#194B19" d="M317.7,618.203C97.851,421.25-13.087,278.032,108.273,386.606
				C199.888,468.487,474.062,758.05,317.7,618.203z"/>
			<path fill="#DBF3AF" d="M368.529,633.912c-2.728,7.489-175.219-161.447-253.261-252.502
				c-53.213-62.028-50.484-73.35,10.272-16.146C210.645,445.318,371.195,626.468,368.529,633.912z"/>
			<path fill="#EB1751" d="M370.802,606.945c20.733,34.127-122.509-114.219-195.107-196.721
				c-94.713-107.617-100.531-133.435-32.213-65.756C220.834,421.024,353.986,579.189,370.802,606.945z"/>
			<path fill="#CD9389" d="M376.333,585.036c19,33.432-114.329-111.596-184.798-196.085
				C102.406,282.103,97.288,256.7,162.082,324.23C235.561,400.741,360.769,557.497,376.333,585.036z"/>
			<path fill="#0D832B" d="M382.854,563.318c17.622,33.316-109.252-112.267-174.726-195.122
				c-83.986-106.296-88.015-130.747-26.804-63.627C251.032,380.938,368.515,536.055,382.854,563.318z"/>
			<path fill="#99A7E5" d="M390.358,541.834c15.826,32.331-101.792-109.479-164.912-193.872
				c-78.65-105.133-82.151-129.262-24.241-62.44C267.17,361.573,377.2,514.877,390.358,541.834z"/>
			<path fill="#A919CB" d="M364.665,487.377C213.783,303.868,131.359,157.366,221.696,267.101
				C296.058,357.354,475.877,622.432,364.665,487.377z"/>
			<path fill="#6F8F19" d="M375.782,466.611C235.973,287.523,156.837,139.378,242.783,249.336
				C313.867,340.202,480.219,600.188,375.782,466.611z"/>
			<path fill="#633745" d="M387.797,446.242C255.263,267.325,184.652,124.587,264.452,232.261
				C331.568,322.681,485.907,578.491,387.797,446.242z"/>
			<path fill="#0D8F63" d="M400.692,426.309C277.042,250.25,211.779,109.307,286.666,215.877
				C350.611,306.745,492.355,556.632,400.692,426.309z"/>
			<path fill="#177D99" d="M414.453,406.862c-114.323-171.855-175.41-312.36-105.038-206.63
				C370.59,292.011,499.757,534.893,414.453,406.862z"/>
			<path fill="#A947E3" d="M447.249,415.399c-37.279-51.334-152.391-257.88-142.427-265.595
				C318.308,139.346,496.224,482.815,447.249,415.399z"/>
			<path fill="#510137" d="M444.463,369.535C347.655,206.73,294.732,67.549,356.419,171.239
				C410.755,262.444,518.095,493.163,444.463,369.535z"/>
			<path fill="#199F47" d="M460.668,351.735c-89.032-158.725-137.11-295.483-80.054-193.814
				C431.71,248.84,528.687,472.838,460.668,351.735z"/>
			<path fill="#63B7FB" d="M477.634,334.546c-82.326-155.877-124.963-288.605-72.391-189.113
				C453.173,236.008,540.249,452.965,477.634,334.546z"/>
			<path fill="#FB433F" d="M495.336,317.999c-73.804-148.724-114.321-283.436-65.064-184.222
				C474.996,223.741,552.754,433.578,495.336,317.999z"/>
			<path fill="#390975" d="M513.75,302.14c-67.448-145.008-103.196-276.123-58.081-179.174
				C496.948,211.554,566.297,414.91,513.75,302.14z"/>
			<path fill="#E7A39F" d="M532.848,286.993c-60.54-139.182-92.903-269.299-51.432-173.949
				C519.431,200.313,580.667,396.772,532.848,286.993z"/>
			<path fill="#E39F49" d="M552.595,272.575c-54.692-134.973-82.792-261.547-45.119-168.568
				C542.231,189.63,595.911,379.323,552.595,272.575z"/>
			<path fill="#010149" d="M572.962,258.929c-48.58-129.197-73.385-254.098-39.146-163.063
				C565.546,180.102,611.928,362.4,572.962,258.929z"/>
			<path fill="#0D6F3F" d="M593.916,246.07c-43.47-125.134-64.193-245.712-33.504-157.411
				C589.228,171.463,628.734,346.147,593.916,246.07z"/>
			<path fill="#E95DC3" d="M615.419,234.015C577.344,114.744,559.713-3.759,587.223,82.379
				C613.159,163.476,646.335,330.708,615.419,234.015z"/>
			<path fill="#7D8951" d="M648.16,251.035c-7.036,2.402-54.545-199.349-45.337-202.171
				C612.07,46.008,655.254,248.617,648.16,251.035z"/>
			<path fill="#351907" d="M669.541,239.734c-6.869,2.046-47.269-191.945-38.393-194.334
				C639.934,43.036,676.533,237.656,669.541,239.734z"/>
			<path fill="#F59F13" d="M682.901,202.948c-24.78-104.474-32.737-211.497-14.29-133.735
				C686.359,143.898,703.353,289.023,682.901,202.948z"/>
			<path fill="#E3698B" d="M706.262,194.347C685.377,95.128,680.18-8.129,695.939,66.736
				C711.204,139.121,723.616,276.637,706.262,194.347z"/>
			<path fill="#F951ED" d="M729.994,186.658c-17.342-94.224-19.892-193.166-6.686-121.414
				C736.195,135.125,744.473,265.165,729.994,186.658z"/>
			<path fill="#6B8583" d="M754.056,179.879c-13.989-88.634-14.232-183.924-3.38-115.155
				C761.309,131.952,765.866,254.539,754.056,179.879z"/>
			<path fill="#FB33E5" d="M778.411,174.026c-11.092-84.164-9.002-174.145-0.404-108.868
				C786.528,129.676,787.757,244.764,778.411,174.026z"/>
			<path fill="#595BA5" d="M803.018,169.115c-8.37-79.036-4.313-164.467,2.246-102.529
				C811.806,128.211,810.112,235.904,803.018,169.115z"/>
			<path fill="#E5991F" d="M829.798,165.094c-7.351-77.383,2.133-153.552,7.582-96.157
				C842.653,124.148,835.887,228.821,829.798,165.094z"/>
		</g>
		<g>
			<path fill="#11AB17" d="M600.504,907.41C407.807,739.152,291.682,609.283,411.727,716.86
				C482.691,780.388,714.899,1007.106,600.504,907.41z"/>
			<path fill="#852521" d="M599.253,893.801c-185.187-170.437-294.71-299.826-180.69-192.297
				C488.24,767.15,710.469,995.989,599.253,893.801z"/>
			<path fill="#8B0300" d="M628.936,907.359c-0.723,6.322-146.953-145.231-160.136-159.125
				c-114.359-120.538-103.069-121.651-42.781-61.832C499.423,759.164,629.4,902.902,628.936,907.359z"/>
			<path fill="#FB0B95" d="M628.225,894.329c-0.735,4.436-130.611-132.386-198.088-211.256c-53.071-61.983-50.66-68.5,3.961-11.487
				C504.481,744.983,628.905,889.993,628.225,894.329z"/>
			<path fill="#B3F703" d="M628.079,881.171c-0.939,4.314-125.399-133.812-189.611-213.046
				c-50.095-61.766-47.246-67.674,4.325-11.041C510.18,731.018,628.959,876.964,628.079,881.171z"/>
			<path fill="#A71D1F" d="M628.51,867.914c-1.552,5.735-127.508-147.034-142.325-165.367
				c-86.63-107.216-92.172-126.74-34.091-59.622C516.732,717.551,629.574,863.853,628.51,867.914z"/>
			<path fill="#158DA7" d="M629.529,854.589c-1.313,4.043-114.748-135.768-172.499-215.329
				c-44.016-60.585-41.045-66.087,4.964-10.12C523.198,703.526,630.773,850.639,629.529,854.589z"/>
			<path fill="#8F97D3" d="M604.884,810.64C467.325,637.174,389.2,509.072,472.475,615.758
				C529.684,688.986,694.304,923.222,604.884,810.64z"/>
			<path fill="#AB0541" d="M608.076,796.837C477.263,622.793,405.432,497.374,483.523,602.808
				C538.47,676.93,693.31,910.06,608.076,796.837z"/>
			<path fill="#A55B79" d="M611.916,783.139C488.198,609.34,421.992,486.099,495.122,590.32
				C547.543,664.906,693.165,897.101,611.916,783.139z"/>
			<path fill="#AB0585" d="M616.4,769.581c-115.986-172.196-177.773-294.5-109.152-191.265
				C557.151,653.279,693.514,883.893,616.4,769.581z"/>
			<path fill="#E5B30F" d="M621.521,756.196c-108.477-170.39-165.848-291.47-101.637-189.367
				C567.353,642.197,694.414,870.505,621.521,756.196z"/>
			<path fill="#3B6DEF" d="M627.272,743.016c-101.087-168.213-154.183-287.974-94.265-187.134
				C577.862,631.261,695.972,857.134,627.272,743.016z"/>
			<path fill="#A18FCD" d="M633.645,730.074c-92.876-163.981-143.192-284.733-87.053-184.576
				C588.798,620.688,698.224,843.899,633.645,730.074z"/>
			<path fill="#A9515F" d="M640.628,717.403c-83.731-157.139-132.85-281.814-80.014-181.702
				C600.566,611.287,700.813,830.194,640.628,717.403z"/>
			<path fill="#039D57" d="M648.211,705.033c-78.719-157.357-121.32-275.636-73.16-178.519
				C611.964,600.839,704.435,817.291,648.211,705.033z"/>
			<path fill="#C15DE1" d="M656.38,692.998c-72.508-154.756-110.75-270.228-66.506-175.04
				C624.851,593.109,708.189,803.454,656.38,692.998z"/>
			<path fill="#519733" d="M665.12,681.329c-66.513-152.002-100.448-264.232-60.065-171.277
				C637.434,584.485,712.839,790.16,665.12,681.329z"/>
			<path fill="#B797A7" d="M674.423,670.064c-60.627-148.725-90.561-257.946-53.853-167.244
				C650.177,575.851,718.265,777.456,674.423,670.064z"/>
			<path fill="#576301" d="M684.264,659.229c-53.923-142.64-81.441-252.31-47.877-162.951
				C663.412,568.076,724.148,764.576,684.264,659.229z"/>
			<path fill="#F7DD73" d="M694.624,648.853c-48.185-138.077-72.421-245.612-42.145-158.406
				C677.481,562.341,730.472,751.412,694.624,648.853z"/>
			<path fill="#BB23B5" d="M705.481,638.965c-42.784-133.5-63.768-238.523-36.669-153.622
				C691.26,555.58,737.648,739.169,705.481,638.965z"/>
			<path fill="#A7755B" d="M716.814,629.595c-37.627-128.65-55.513-231.141-31.461-148.617
				C705.482,549.94,745.39,727.131,716.814,629.595z"/>
			<path fill="#99C339" d="M728.599,620.77c-33.052-124.775-47.552-223-26.529-143.406
				C720.004,545.161,753.668,715.239,728.599,620.77z"/>
			<path fill="#536D3B" d="M748.545,639.63c-3.657,1.39-43.642-190.679-38.052-192.607
				C716.031,445.113,752.288,638.21,748.545,639.63z"/>
			<path fill="#A7E5E9" d="M753.419,604.866c-24.279-115.157-33.096-206.401-17.528-132.419
				C749.658,537.742,771.941,692.542,753.419,604.866z"/>
			<path fill="#5FC1A3" d="M766.398,597.834c-19.978-108.413-26.669-198.39-13.473-126.677
				C764.691,534.973,781.914,681.856,766.398,597.834z"/>
			<path fill="#738F67" d="M779.715,591.446c-16.268-102.984-20.581-189.574-9.725-120.788
				C779.782,532.565,792.434,671.776,779.715,591.446z"/>
			<path fill="#85FB09" d="M793.338,585.721c-12.732-96.552-15.004-180.905-6.288-114.771
				C794.966,530.856,803.448,662.179,793.338,585.721z"/>
			<path fill="#777B89" d="M807.235,580.674c-9.66-91.165-9.835-171.601-3.167-108.646
				C810.198,529.728,814.939,653.16,807.235,580.674z"/>
			<path fill="#CBC373" d="M821.371,576.32c-6.826-85.125-5.17-162.346-0.365-102.423
				C825.47,529.385,826.875,644.708,821.371,576.32z"/>
			<path fill="#7F8F5B" d="M835.448,572.674c-4.268-92.403,0.503-148.05,2.901-96.119
				C840.298,518.23,838.58,639.687,835.448,572.674z"/>
		</g>
		<g>
			<path fill="#A9C5F7" d="M846.591,1135.92c-46.336-43.387-214.697-195.791-214.606-203.002
				C632.207,925.718,808.126,1099.159,846.591,1135.92z"/>
			<path fill="#59E9E1" d="M844.289,1133.625c-16.805-16.63-35.457-34.617-104.903-101.86
				c-113.68-110.379-128.867-133.047-73.65-79.403C715.439,1000.548,802.13,1091.3,844.289,1133.625z"/>
			<path fill="#1FF131" d="M842.009,1131.108c-48.417-50.073-204.665-207.514-203.909-214.126
				C638.809,910.175,805.731,1092.427,842.009,1131.108z"/>
			<path fill="#0141B3" d="M839.767,1128.37c0,0-2.245-2.627-99.339-107.067c-104.957-113.259-122.901-140.629-69.054-82.625
				C707.403,977.451,838.971,1127.37,839.767,1128.37z"/>
			<path fill="#1BDDCD" d="M837.58,1125.415c-212.168-241.861-215.86-253.461-162.8-193.237
				C713.82,976.447,766.262,1040.381,837.58,1125.415z"/>
			<path fill="#41F71B" d="M835.341,1122.111c-162.7-192.004-226.323-279.371-156.783-196.182
				C714.853,969.306,836.205,1123.112,835.341,1122.111z"/>
			<path fill="#0B5583" d="M833.316,1118.734C712.529,969.653,603.591,820.175,682.693,919.95
				C718.325,964.853,834.145,1119.735,833.316,1118.734z"/>
			<path fill="#ABA5F5" d="M831.51,1115.291c-191.763-255.28-190.622-262.68-144.344-201.036
				C717.728,954.89,756.217,1009.461,831.51,1115.291z"/>
			<path fill="#7373A1" d="M829.588,1111.384c-88.122-119.274-216.331-313.197-137.63-202.523
				C727.019,958.078,830.352,1112.386,829.588,1111.384z"/>
			<path fill="#C191EF" d="M827.915,1107.426c-78.868-111.851-207.553-317.603-130.864-203.645
				C731.702,955.184,828.646,1108.426,827.915,1107.426z"/>
			<path fill="#0317E5" d="M824.959,1101.1C664.553,849.413,660.167,832.6,702.425,899.026
				C724.6,933.83,841.146,1126.103,824.959,1101.1z"/>
			<path fill="#612D1D" d="M823.665,1096.798C667.755,838.12,670.192,831.553,708.058,894.607
				C729.406,930.102,838.959,1121.718,823.665,1096.798z"/>
			<path fill="#890733" d="M822.543,1092.347C674.499,832.245,678.82,828.504,713.93,890.535
				C733.775,925.542,836.955,1117.136,822.543,1092.347z"/>
			<path fill="#89C5B1" d="M821.606,1087.757c-135.1-251.766-136.436-266.384-101.586-200.939
				C738.315,921.119,835.183,1112.443,821.606,1087.757z"/>
			<path fill="#7FDD1B" d="M820.866,1083.042c-115.328-228.372-132.079-274.627-94.558-199.578
				C742.837,916.473,833.583,1107.538,820.866,1083.042z"/>
			<path fill="#EBBDEB" d="M820.331,1078.215c-109.074-230.039-121.63-270.496-87.559-197.737
				C748.525,914.068,832.146,1102.371,820.331,1078.215z"/>
			<path fill="#89B12D" d="M820.01,1073.29c-99.958-225.128-112.517-268.354-80.621-195.423
				C756.549,917.043,830.847,1097.297,820.01,1073.29z"/>
			<path fill="#CD53C9" d="M819.913,1068.281c-88.246-212.885-104.645-268.478-73.771-192.647
				C762.184,914.977,829.914,1091.958,819.913,1068.281z"/>
			<path fill="#4185EB" d="M820.045,1063.203c-78.11-202.52-96.249-266.781-67.039-189.42
				C768.129,913.763,829.133,1086.272,820.045,1063.203z"/>
			<path fill="#391F67" d="M820.415,1058.073c-52.155-142.487-93.636-280.946-60.451-185.756
				C774.058,912.664,828.588,1080.4,820.415,1058.073z"/>
			<path fill="#0F97AF" d="M821.027,1052.907c-41.722-123.198-85.693-280.428-54.032-181.668
				C780.063,911.975,828.411,1074.707,821.027,1052.907z"/>
			<path fill="#414199" d="M820.064,1041.696c-56.439-191.87-66.529-241.358-45.989-171.148
				C784.534,906.268,834.408,1089.861,820.064,1041.696z"/>
			<path fill="#81997B" d="M815.6,1015.008c-43.248-163.411-52.283-212.212-34.415-144.766
				C787.668,894.683,844.655,1123.92,815.6,1015.008z"/>
			<path fill="#290329" d="M817.898,1010.644c-38.485-162.048-44.789-204.243-29.593-140.325
				C793.132,890.598,843.528,1117.544,817.898,1010.644z"/>
			<path fill="#4F2FE5" d="M820.409,1006.371c-30.471-144.639-39.208-202.982-24.994-135.59
				C801.198,898.173,841.85,1108.03,820.409,1006.371z"/>
			<path fill="#73B18D" d="M823.133,1002.213c-27.542-149.578-31.775-190.995-20.64-130.596
				C807.785,900.29,841.084,1099.579,823.133,1002.213z"/>
			<path fill="#BD77C5" d="M826.061,998.165c-22.186-140.554-25.928-184.735-16.541-125.343
				C813.949,900.806,840.853,1091.743,826.061,998.165z"/>
			<path fill="#CD932D" d="M829.19,994.251c-18.47-140.156-19.886-174.217-12.713-119.861
				C820.256,902.978,840.966,1083.471,829.19,994.251z"/>
			<path fill="#CB97C7" d="M832.515,990.485c-14.186-133.965-14.654-165.889-9.169-114.171
				C826.621,907.13,841.45,1074.708,832.515,990.485z"/>
			<path fill="#7363E9" d="M836.027,986.879c-9.851-122.908-10.008-159.219-5.919-108.297
				C832.538,908.77,842.425,1066.52,836.027,986.879z"/>
			<path fill="#89113F" d="M839.719,983.446c-6.259-114.821-5.634-150.955-2.973-102.262
				C838.41,911.529,843.822,1058.458,839.719,983.446z"/>
			<path fill="#D7CD01" d="M839.767,884.187c-0.478-26.275-0.395-26.775-0.447-0.013
				C839.027,1035.58,842.638,1042.251,839.767,884.187z"/>
		</g>
	</g>
	<g>
		<g>
			<path fill="#39F9A5" d="M640.68,1365.214c-202.676,238.168-338.573,346.73-232.225,221.57
				C487.934,1493.151,780.748,1200.318,640.68,1365.214z"/>
			<path fill="#DD6B27" d="M618.203,1360.754C421.25,1580.602,278.033,1691.54,386.606,1570.18
				C468.487,1478.566,758.05,1204.391,618.203,1360.754z"/>
			<path fill="#612D8B" d="M633.912,1309.924c7.489,2.728-161.447,175.219-252.502,253.261
				c-62.065,53.244-73.318,50.45-16.146-10.272C445.679,1467.425,626.503,1307.271,633.912,1309.924z"/>
			<path fill="#756D2D" d="M606.945,1307.651c33.891-20.59-113.255,121.661-196.721,195.107
				c-107.544,94.649-133.484,100.581-65.756,32.213C420.983,1457.661,579.158,1324.486,606.945,1307.651z"/>
			<path fill="#0127E3" d="M585.036,1302.12c33.391-18.977-111.468,114.222-196.085,184.798
				c-106.897,89.17-132.258,94.253-64.721,29.453C400.741,1442.892,557.497,1317.684,585.036,1302.12z"/>
			<path fill="#2985B5" d="M563.318,1295.599c33.316-17.622-112.314,109.289-195.122,174.726
				c-106.117,83.845-130.874,88.131-63.627,26.804C380.971,1427.39,536.065,1309.933,563.318,1295.599z"/>
			<path fill="#B3191B" d="M541.834,1288.095c32.783-16.048-111.731,103.476-193.872,164.912
				c-105.175,78.681-129.259,82.148-62.44,24.241C361.563,1411.292,514.872,1301.256,541.834,1288.095z"/>
			<path fill="#278359" d="M487.377,1313.788c-183.603,150.959-329.984,233.284-220.276,142.968
				C357.354,1382.395,622.432,1202.577,487.377,1313.788z"/>
			<path fill="#D9C151" d="M466.611,1302.671C286.384,1443.37,139.81,1521.279,249.336,1435.67
				C340.202,1364.586,600.188,1198.234,466.611,1302.671z"/>
			<path fill="#9571B5" d="M446.242,1290.656c-178.872,132.501-321.672,203.158-213.981,123.345
				C322.683,1346.884,578.491,1192.547,446.242,1290.656z"/>
			<path fill="#1F6F69" d="M426.309,1277.761c-176.057,123.648-317.003,188.913-210.432,114.027
				C306.745,1327.843,556.632,1186.098,426.309,1277.761z"/>
			<path fill="#33B7AB" d="M406.862,1264c-171.86,114.326-312.358,175.408-206.63,105.038
				C292.011,1307.864,534.894,1178.697,406.862,1264z"/>
			<path fill="#9F0361" d="M415.399,1231.205c-51.327,37.274-257.879,152.393-265.595,142.427
				C139.347,1360.145,482.816,1182.229,415.399,1231.205z"/>
			<path fill="#57373D" d="M369.535,1233.99c-163.459,97.197-301.729,149.579-198.296,88.044
				C262.444,1267.698,493.163,1160.359,369.535,1233.99z"/>
			<path fill="#A72DCD" d="M351.735,1217.786c-156.402,87.728-296.321,137.58-193.814,80.054
				C248.84,1246.743,472.838,1149.766,351.735,1217.786z"/>
			<path fill="#CF7D8D" d="M334.546,1200.819c-155.505,82.13-288.739,125.034-189.113,72.391
				C235.96,1225.306,452.978,1138.197,334.546,1200.819z"/>
			<path fill="#B75D57" d="M317.999,1183.118c-148.236,73.562-283.628,114.417-184.222,65.064
				C223.731,1203.462,433.58,1125.698,317.999,1183.118z"/>
			<path fill="#B54DA5" d="M302.14,1164.704c-145.008,67.448-276.123,103.196-179.174,58.081
				C211.561,1181.502,414.908,1112.157,302.14,1164.704z"/>
			<path fill="#45551D" d="M286.993,1145.605c-139.181,60.54-269.299,92.903-173.949,51.432
				C200.318,1159.02,396.77,1097.788,286.993,1145.605z"/>
			<path fill="#21D3B1" d="M272.575,1125.858c-134.973,54.692-261.547,82.792-168.568,45.119
				C189.629,1136.223,379.319,1082.544,272.575,1125.858z"/>
			<path fill="#0F8BFB" d="M258.929,1105.491c-129.197,48.58-254.098,73.385-163.063,39.146
				C180.102,1112.907,362.4,1066.525,258.929,1105.491z"/>
			<path fill="#F17DDB" d="M246.07,1084.538c-125.129,43.468-245.714,64.193-157.411,33.504
				C171.103,1089.35,346.442,1049.616,246.07,1084.538z"/>
			<path fill="#ABEB07" d="M234.015,1063.034C114.748,1101.108-3.76,1118.74,82.379,1091.23
				C163.529,1065.278,330.655,1032.135,234.015,1063.034z"/>
			<path fill="#AB43F3" d="M251.035,1030.293c2.402,7.036-199.349,54.545-202.171,45.337
				C46.014,1066.404,248.612,1023.186,251.035,1030.293z"/>
			<path fill="#B94513" d="M239.734,1008.913c2.046,6.869-191.945,47.269-194.334,38.393
				C43.033,1038.512,237.657,1001.924,239.734,1008.913z"/>
			<path fill="#F53F4D" d="M202.948,995.552c-104.469,24.778-211.499,32.738-133.735,14.29
				C143.955,992.081,289,975.106,202.948,995.552z"/>
			<path fill="#67D3F1" d="M194.347,972.192C95.05,993.093-8.098,998.267,66.736,982.514
				C139.121,967.249,276.637,954.837,194.347,972.192z"/>
			<path fill="#495399" d="M186.658,948.46c-94.223,17.342-193.167,19.893-121.414,6.686
				C135.11,942.261,265.176,933.978,186.658,948.46z"/>
			<path fill="#995BFB" d="M179.879,924.397c-88.634,13.989-183.924,14.232-115.155,3.38
				C131.952,917.144,254.539,912.587,179.879,924.397z"/>
			<path fill="#45C7C1" d="M174.026,900.043c-84.163,11.092-174.145,9.002-108.869,0.404
				C129.6,891.935,244.786,890.693,174.026,900.043z"/>
			<path fill="#6557D5" d="M169.115,875.435c-79.048,8.371-164.462,4.312-102.529-2.246
				C128.09,866.66,235.941,868.338,169.115,875.435z"/>
			<path fill="#65B391" d="M165.093,848.655c-77.666,7.378-153.447-2.143-96.157-7.582
				C124.158,835.8,228.821,842.566,165.093,848.655z"/>
		</g>
		<g>
			<path fill="#6D5507" d="M907.41,1077.949c-168.22,192.653-298.143,308.841-190.55,188.777
				C780.388,1195.762,1007.106,963.554,907.41,1077.949z"/>
			<path fill="#79EFE9" d="M893.801,1079.2c-170.997,185.796-299.618,294.49-192.297,180.69
				C767.15,1190.213,995.989,967.984,893.801,1079.2z"/>
			<path fill="#ED8955" d="M907.359,1049.518c6.213,0.71-141.687,143.591-159.125,160.136
				c-120.561,114.381-121.635,103.053-61.832,42.781C759.039,1179.156,902.894,1049.053,907.359,1049.518z"/>
			<path fill="#CF8143" d="M894.329,1050.228c4.436,0.735-132.386,130.611-211.256,198.088c-61.983,53.071-68.5,50.66-11.487-3.961
				C744.853,1174.097,889.988,1049.548,894.329,1050.228z"/>
			<path fill="#A5DD39" d="M881.171,1050.374c4.314,0.939-133.812,125.399-213.046,189.611
				c-61.766,50.095-67.674,47.246-11.041-4.325C730.97,1168.317,876.958,1049.493,881.171,1050.374z"/>
			<path fill="#870F37" d="M867.914,1049.943c5.735,1.552-147.034,127.508-165.367,142.325
				c-107.168,86.591-126.774,92.202-59.622,34.091C717.398,1161.854,863.847,1048.878,867.914,1049.943z"/>
			<path fill="#1DD527" d="M854.589,1048.925c4.037,1.311-135.713,114.709-215.329,172.499
				c-60.583,44.015-66.089,41.047-10.12-4.964C703.259,1155.475,850.62,1047.674,854.589,1048.925z"/>
			<path fill="#8983DF" d="M810.64,1073.57c-173.197,137.345-301.668,215.762-194.882,132.409
				C688.988,1148.768,923.215,984.155,810.64,1073.57z"/>
			<path fill="#712797" d="M796.837,1070.377C624.23,1200.11,496.795,1273.45,602.808,1194.93
				C676.85,1140.043,910.076,985.132,796.837,1070.377z"/>
			<path fill="#196BA7" d="M783.139,1066.537c-173.799,123.719-297.04,189.924-192.819,116.795
				C664.906,1130.91,897.101,985.288,783.139,1066.537z"/>
			<path fill="#4F57BD" d="M769.581,1062.054c-172.15,115.955-294.523,177.789-191.265,109.152
				C653.487,1121.163,883.843,984.973,769.581,1062.054z"/>
			<path fill="#F5792D" d="M756.196,1056.933c-170.354,108.454-291.485,165.858-189.367,101.637
				C642.311,1111.029,870.416,984.096,756.196,1056.933z"/>
			<path fill="#7DC515" d="M743.016,1051.181c-168.141,101.044-288.006,154.202-187.134,94.265
				C631.261,1100.592,857.133,982.481,743.016,1051.181z"/>
			<path fill="#AD7F39" d="M730.074,1044.809c-163.99,92.881-284.726,143.188-184.576,87.053
				C620.688,1089.655,843.899,980.229,730.074,1044.809z"/>
			<path fill="#2329A1" d="M717.403,1037.825c-157.355,83.847-281.726,132.803-181.702,80.014
				C611.388,1077.834,830.178,977.649,717.403,1037.825z"/>
			<path fill="#27B7FB" d="M705.033,1030.242c-154.4,77.24-276.805,121.9-178.519,73.16
				C600.839,1066.489,817.291,974.018,705.033,1030.242z"/>
			<path fill="#077317" d="M692.998,1022.073c-155.896,73.042-269.78,110.541-175.04,66.506
				C593.171,1053.573,803.433,970.274,692.998,1022.073z"/>
			<path fill="#7FEF99" d="M681.329,1013.333c-151.366,66.235-264.488,100.559-171.277,60.065
				C584.641,1040.951,790.113,965.635,681.329,1013.333z"/>
			<path fill="#D513BB" d="M670.064,1004.03c-147.979,60.324-258.24,90.68-167.244,53.853
				C576.477,1028.022,777.067,960.347,670.064,1004.03z"/>
			<path fill="#E725AB" d="M659.229,994.189c-142.712,53.95-252.282,81.431-162.951,47.877
				C568.726,1014.796,764.438,954.357,659.229,994.189z"/>
			<path fill="#01D143" d="M648.853,983.829c-138.077,48.185-245.612,72.421-158.406,42.145
				C562.342,1000.972,751.403,947.985,648.853,983.829z"/>
			<path fill="#577F73" d="M638.965,972.972c-133.5,42.784-238.523,63.768-153.622,36.669
				C555.499,987.219,739.269,940.773,638.965,972.972z"/>
			<path fill="#CF9991" d="M629.595,961.639c-128.655,37.628-231.139,55.513-148.617,31.461
				C549.998,972.954,727.123,933.066,629.595,961.639z"/>
			<path fill="#6D97A9" d="M620.77,949.854c-124.775,33.052-223,47.552-143.406,26.529
				C545.148,958.452,715.257,924.78,620.77,949.854z"/>
			<path fill="#096707" d="M639.63,929.908c1.39,3.657-190.679,43.642-192.607,38.052
				C445.097,962.375,638.219,926.19,639.63,929.908z"/>
			<path fill="#B72343" d="M604.866,925.034c-115.157,24.279-206.401,33.096-132.419,17.528
				C537.743,928.795,692.542,906.512,604.866,925.034z"/>
			<path fill="#97117D" d="M597.834,912.056c-108.413,19.977-198.39,26.67-126.677,13.473
				C534.959,913.764,681.864,896.538,597.834,912.056z"/>
			<path fill="#7BA9A3" d="M591.446,898.739c-102.98,16.267-189.576,20.581-120.788,9.725
				C532.567,898.671,671.775,886.019,591.446,898.739z"/>
			<path fill="#559B01" d="M585.721,885.115c-96.561,12.734-180.898,15.003-114.771,6.288
				C530.844,883.489,662.182,875.005,585.721,885.115z"/>
			<path fill="#756DBF" d="M580.674,871.218c-91.101,9.653-171.626,9.837-108.646,3.167
				C529.695,868.259,653.17,863.513,580.674,871.218z"/>
			<path fill="#056105" d="M576.32,857.083c-85.152,6.828-162.325,5.168-102.423,0.365
				C529.385,852.983,644.708,851.578,576.32,857.083z"/>
			<path fill="#5BDD23" d="M572.674,843.005c-92.403,4.268-148.05-0.503-96.119-2.902
				C518.223,838.156,639.689,839.873,572.674,843.005z"/>
		</g>
		<g>
			<path fill="#576375" d="M1135.92,831.862c-43.327,46.271-195.774,214.697-203.002,214.606
				C925.713,1046.246,1098.954,870.542,1135.92,831.862z"/>
			<path fill="#31BF5D" d="M1133.625,834.164c-16.63,16.805-34.617,35.457-101.86,104.903
				c-110.379,113.68-133.043,128.863-79.403,73.65C1000.548,963.014,1091.3,876.323,1133.625,834.164z"/>
			<path fill="#81FD25" d="M1131.108,836.444c-50.145,48.486-207.513,204.665-214.126,203.909
				C910.175,1039.644,1092.427,872.722,1131.108,836.444z"/>
			<path fill="#775937" d="M1128.37,838.686c0,0-2.628,2.246-107.067,99.339c-113.274,104.971-140.619,122.892-82.625,69.054
				C977.461,971.042,1127.369,839.484,1128.37,838.686z"/>
			<path fill="#E1D793" d="M1125.415,840.873c-241.861,212.168-253.461,215.86-193.237,162.8
				C976.437,964.642,1040.384,912.188,1125.415,840.873z"/>
			<path fill="#D1E355" d="M1122.111,843.112c-198.302,168.036-276.922,224.276-196.182,156.783
				C969.306,963.601,1123.112,842.249,1122.111,843.112z"/>
			<path fill="#2B078D" d="M1118.734,845.138C968.049,967.174,820.621,1074.509,919.95,995.761
				C964.857,960.126,1119.735,844.309,1118.734,845.138z"/>
			<path fill="#EDDFEF" d="M1115.291,846.943c-255.458,191.897-262.589,190.554-201.036,144.344
				C954.89,960.725,1009.461,922.236,1115.291,846.943z"/>
			<path fill="#69A1BB" d="M1111.384,848.865c-123.626,91.327-311.996,215.477-202.523,137.63
				C958.114,951.409,1112.384,848.103,1111.384,848.865z"/>
			<path fill="#456F19" d="M1107.426,850.538c-111.734,78.804-317.365,207.393-203.645,130.864
				C955.181,946.754,1108.427,849.807,1107.426,850.538z"/>
			<path fill="#BF575B" d="M1101.1,853.494c-249.274,158.872-269.763,165.595-202.074,122.534
				C933.429,954.108,1126.118,837.299,1101.1,853.494z"/>
			<path fill="#A3CF35" d="M1096.798,854.789c-258.004,155.501-265.604,153.687-202.191,115.606
				C931.757,948.051,1121.639,839.541,1096.798,854.789z"/>
			<path fill="#3DA531" d="M1092.347,855.91c-260.159,148.073-263.824,143.712-201.812,108.613
				C925.465,944.722,1117.209,841.456,1092.347,855.91z"/>
			<path fill="#01CB91" d="M1087.757,856.847C833.944,993.045,822.385,992.744,886.818,958.432
				C922.34,939.488,1112.348,843.324,1087.757,856.847z"/>
			<path fill="#01B957" d="M1083.042,857.587C854.938,972.778,808.289,989.73,883.464,952.145
				C916.488,935.609,1107.55,844.865,1083.042,857.587z"/>
			<path fill="#958317" d="M1078.215,858.122c-227.251,107.75-271.775,122.229-197.737,87.559
				C913.917,929.999,1102.371,846.308,1078.215,858.122z"/>
			<path fill="#6FDB29" d="M1073.29,858.443c-224.248,99.567-268.716,112.676-195.423,80.621
				C917.042,921.905,1097.297,847.606,1073.29,858.443z"/>
			<path fill="#A52D23" d="M1068.281,858.541c-212.867,88.241-268.484,104.648-192.647,73.771
				C915.164,916.193,1091.863,848.58,1068.281,858.541z"/>
			<path fill="#99C9C7" d="M1063.203,858.408c-202.52,78.109-266.781,96.249-189.42,67.039
				C913.799,910.31,1086.237,849.334,1063.203,858.408z"/>
			<path fill="#136319" d="M1058.073,858.038c-141.842,51.919-281.161,93.711-185.756,60.451
				C912.099,904.592,1080.69,849.76,1058.073,858.038z"/>
			<path fill="#D53735" d="M1052.907,857.427c-117.369,39.751-282.328,86.302-181.668,54.032
				C911.961,898.394,1074.76,850.026,1052.907,857.427z"/>
			<path fill="#9B31F5" d="M1041.696,858.39c-193.296,56.859-240.709,66.339-171.148,45.989
				C903.678,894.677,1090.175,843.951,1041.696,858.39z"/>
			<path fill="#134961" d="M1015.008,862.853c-159.075,42.1-214.179,52.804-144.766,34.415
				C894.792,890.757,1123.821,833.825,1015.008,862.853z"/>
			<path fill="#FBD7C7" d="M1010.644,860.556C857.982,896.812,802.13,906.36,870.32,890.148
				C890.598,885.321,1117.544,834.926,1010.644,860.556z"/>
			<path fill="#F3EF87" d="M1006.371,858.044c-144.412,30.423-203.078,39.229-135.59,24.994
				C897.968,877.298,1108.04,836.601,1006.371,858.044z"/>
			<path fill="#419F1B" d="M1002.213,855.321c-141.721,26.095-194.523,32.425-130.596,20.64
				C898.629,870.974,1100.083,837.277,1002.213,855.321z"/>
			<path fill="#B723A3" d="M998.165,852.392c-141.871,22.394-184.153,25.836-125.343,16.541
				C900.806,864.504,1091.743,837.6,998.165,852.392z"/>
			<path fill="#052717" d="M994.251,849.263c-137.579,18.131-175.341,20.035-119.861,12.713
				C903.152,858.174,1083.412,837.494,994.251,849.263z"/>
			<path fill="#9BCBF3" d="M990.485,845.938c-133.884,14.178-165.926,14.658-114.171,9.169
				C906.271,851.924,1074.937,836.979,990.485,845.938z"/>
			<path fill="#C569A3" d="M986.879,842.426c-122.9,9.85-159.223,10.008-108.297,5.919
				C908.659,845.924,1066.72,836.012,986.879,842.426z"/>
			<path fill="#2D0D87" d="M983.446,838.734c-114.929,6.265-150.911,5.632-102.262,2.973
				C911.346,840.054,1058.507,834.629,983.446,838.734z"/>
			<path fill="#F71D57" d="M884.187,838.687c-26.269,0.478-26.765,0.395-0.013,0.447
				C1036.426,839.427,1041.317,835.831,884.187,838.687z"/>
		</g>
	</g>
	<g>
		<g>
			<path fill="#7D3FC7" d="M1365.214,1037.773c240.408,204.582,345.71,337.706,221.57,232.225
				C1493.149,1190.518,1200.32,897.706,1365.214,1037.773z"/>
			<path fill="#D19D43" d="M1360.754,1060.25c220.384,197.433,330.583,339.988,209.426,231.597
				C1478.566,1209.966,1204.391,920.403,1360.754,1060.25z"/>
			<path fill="#0DE99F" d="M1309.924,1044.541c2.728-7.489,175.219,161.447,253.261,252.502
				c53.213,62.028,50.484,73.35-10.272,16.146C1467.427,1232.777,1307.271,1051.951,1309.924,1044.541z"/>
			<path fill="#E965F3" d="M1307.651,1071.509c-20.75-34.154,122.672,114.405,195.107,196.721
				c94.709,107.612,100.534,133.437,32.213,65.755C1457.665,1257.474,1324.486,1099.295,1307.651,1071.509z"/>
			<path fill="#47AB03" d="M1302.12,1093.417c-19.011-33.451,114.375,111.651,184.798,196.085
				c89.307,107.06,94.142,132.142,29.453,64.721C1442.89,1277.71,1317.683,1120.955,1302.12,1093.417z"/>
			<path fill="#81F56B" d="M1295.599,1115.136c-17.622-33.316,109.29,112.314,174.726,195.122
				c83.787,106.044,88.156,130.901,26.804,63.627C1427.39,1297.482,1309.934,1142.389,1295.599,1115.136z"/>
			<path fill="#D367A5" d="M1288.095,1136.619c-16.049-32.784,103.474,111.729,164.912,193.872
				c78.61,105.079,82.167,129.281,24.241,62.44C1411.295,1316.893,1301.255,1163.581,1288.095,1136.619z"/>
			<path fill="#8BBD0B" d="M1313.788,1191.076c150.507,183.053,233.613,330.385,142.969,220.276
				C1382.346,1321.04,1202.577,1056.021,1313.788,1191.076z"/>
			<path fill="#050107" d="M1302.671,1211.843c139.904,179.209,218.894,327.167,132.998,217.275
				C1364.586,1338.251,1198.234,1078.266,1302.671,1211.843z"/>
			<path fill="#9B0145" d="M1290.656,1232.212c132.509,178.883,203.154,321.668,123.345,213.981
				C1346.885,1355.772,1192.546,1099.963,1290.656,1232.212z"/>
			<path fill="#AB8B73" d="M1277.761,1252.144c123.65,176.059,188.913,317.002,114.026,210.432
				C1327.843,1371.709,1186.098,1121.822,1277.761,1252.144z"/>
			<path fill="#5D4F85" d="M1264,1271.591c114.326,171.859,175.409,312.358,105.038,206.63
				C1307.863,1386.442,1178.697,1143.56,1264,1271.591z"/>
			<path fill="#2BDB05" d="M1231.205,1263.054c37.276,51.329,152.393,257.879,142.427,265.595
				C1360.144,1539.108,1182.226,1195.634,1231.205,1263.054z"/>
			<path fill="#EB13A1" d="M1233.99,1308.918c96.934,163.016,149.682,301.903,88.044,198.296
				C1267.698,1416.01,1160.359,1185.29,1233.99,1308.918z"/>
			<path fill="#41392D" d="M1217.786,1326.719c89.218,159.058,137.043,295.363,80.054,193.814
				C1246.676,1429.493,1149.801,1205.678,1217.786,1326.719z"/>
			<path fill="#EF6771" d="M1200.819,1343.907c82.11,155.467,125.041,288.752,72.391,189.114
				C1225.28,1442.444,1138.203,1225.487,1200.819,1343.907z"/>
			<path fill="#F30FBF" d="M1183.118,1360.454c73.805,148.725,114.321,283.436,65.064,184.222
				C1203.476,1454.749,1125.694,1244.865,1183.118,1360.454z"/>
			<path fill="#638F59" d="M1164.704,1376.313c67.448,145.009,103.195,276.122,58.081,179.174
				C1181.504,1466.894,1112.157,1263.544,1164.704,1376.313z"/>
			<path fill="#111927" d="M1145.605,1391.46c60.541,139.185,92.902,269.297,51.432,173.949
				C1159.003,1478.097,1097.793,1281.697,1145.605,1391.46z"/>
			<path fill="#D331C5" d="M1125.858,1405.878c54.339,134.101,82.929,261.884,45.119,168.568
				C1136.222,1488.822,1082.545,1299.137,1125.858,1405.878z"/>
			<path fill="#719151" d="M1105.491,1419.525c48.58,129.195,73.385,254.099,39.146,163.063
				C1112.908,1498.354,1066.525,1316.053,1105.491,1419.525z"/>
			<path fill="#6B0BD7" d="M1084.538,1432.384c43.47,125.134,64.193,245.712,33.504,157.411
				C1089.354,1507.359,1049.616,1332.009,1084.538,1432.384z"/>
			<path fill="#9F5F3F" d="M1063.034,1444.439c38.073,119.266,55.706,237.775,28.196,151.635
				C1065.417,1515.359,1032.038,1347.494,1063.034,1444.439z"/>
			<path fill="#8B05F1" d="M1030.293,1427.418c7.036-2.402,54.545,199.349,45.337,202.171
				C1066.386,1632.445,1023.198,1429.837,1030.293,1427.418z"/>
			<path fill="#FB6DDF" d="M1008.913,1438.719c6.869-2.046,47.269,191.945,38.393,194.334
				C1038.516,1635.419,1001.921,1440.797,1008.913,1438.719z"/>
			<path fill="#1B5F9F" d="M995.552,1475.506c24.773,104.447,32.74,211.508,14.29,133.735
				C992.094,1534.556,975.1,1389.43,995.552,1475.506z"/>
			<path fill="#6DB70F" d="M972.192,1484.106c20.901,99.297,26.075,202.444,10.323,127.61
				C967.249,1539.332,954.838,1401.816,972.192,1484.106z"/>
			<path fill="#A7B9B9" d="M948.46,1491.795c17.338,94.203,19.893,193.171,6.686,121.414
				C942.252,1543.294,933.982,1413.297,948.46,1491.795z"/>
			<path fill="#B95595" d="M924.397,1498.575c13.989,88.634,14.232,183.924,3.38,115.155
				C917.131,1546.422,912.592,1423.945,924.397,1498.575z"/>
			<path fill="#836B25" d="M900.043,1504.427c11.092,84.163,9.002,174.145,0.404,108.868
				C891.934,1548.843,890.694,1433.67,900.043,1504.427z"/>
			<path fill="#F3F36B" d="M875.435,1509.338c8.37,79.033,4.313,164.468-2.246,102.529
				C866.647,1550.241,868.342,1442.549,875.435,1509.338z"/>
			<path fill="#F15B43" d="M848.655,1513.36c7.378,77.666-2.143,153.448-7.582,96.157
				C835.8,1554.295,842.566,1449.632,848.655,1513.36z"/>
		</g>
		<g>
			<path fill="#095569" d="M1077.949,771.044c192.695,168.256,308.82,298.125,188.777,190.55
				C1195.812,898.109,963.538,671.333,1077.949,771.044z"/>
			<path fill="#E31D3F" d="M1079.2,784.652c191.773,176.499,292.163,297.424,180.69,192.297
				C1190.213,911.304,967.984,682.464,1079.2,784.652z"/>
			<path fill="#8DBBD1" d="M1049.518,771.095c0.711-6.22,143.864,141.976,160.136,159.125
				c114.445,120.628,103.004,121.586,42.781,61.832C1179.034,919.293,1049.053,775.551,1049.518,771.095z"/>
			<path fill="#0DF301" d="M1050.228,784.124c0.735-4.436,130.611,132.386,198.088,211.256
				c53.067,61.979,50.666,68.507-3.961,11.487C1174.097,933.6,1049.548,788.465,1050.228,784.124z"/>
			<path fill="#35BBCD" d="M1050.374,797.282c0.939-4.312,125.385,133.794,189.611,213.046
				c50.095,61.766,47.246,67.674-4.325,11.041C1168.285,947.448,1049.494,801.49,1050.374,797.282z"/>
			<path fill="#EF3FBD" d="M1049.943,810.539c1.552-5.735,127.508,147.034,142.325,165.367
				c86.542,107.107,92.233,126.81,34.091,59.622C1161.651,960.821,1048.883,814.587,1049.943,810.539z"/>
			<path fill="#0F31DB" d="M1048.925,823.864c1.311-4.037,114.707,135.711,172.5,215.329c44.016,60.585,41.046,66.087-4.964,10.12
				C1155.46,975.176,1047.674,827.832,1048.925,823.864z"/>
			<path fill="#EBBF6F" d="M1073.57,867.813c137.874,173.864,215.553,301.401,132.409,194.882
				C1149.151,989.955,984.042,755.096,1073.57,867.813z"/>
			<path fill="#39E13F" d="M1070.377,881.617c130.016,172.984,202.958,299.886,124.553,194.029
				C1140.046,1001.608,985.126,768.37,1070.377,881.617z"/>
			<path fill="#EF7961" d="M1066.537,895.314c123.911,174.07,189.818,296.888,116.795,192.819
				C1131.135,1013.868,985.221,781.259,1066.537,895.314z"/>
			<path fill="#896597" d="M1062.054,908.872c115.986,172.196,177.773,294.5,109.152,191.265
				C1121.171,1024.977,984.985,794.629,1062.054,908.872z"/>
			<path fill="#5587E9" d="M1056.933,922.257c108.477,170.39,165.848,291.47,101.637,189.367
				C1111.232,1036.464,984.04,807.95,1056.933,922.257z"/>
			<path fill="#AD5DBD" d="M1051.181,935.437c101.063,168.172,154.188,287.983,94.265,187.133
				C1100.922,1047.747,982.388,821.164,1051.181,935.437z"/>
			<path fill="#9B459D" d="M1044.809,948.379c92.881,163.99,143.188,284.726,87.053,184.576
				C1089.655,1057.765,980.229,834.555,1044.809,948.379z"/>
			<path fill="#F1C975" d="M1037.825,961.051c83.731,157.139,132.85,281.814,80.014,181.702
				C1078.046,1067.466,977.592,848.167,1037.825,961.051z"/>
			<path fill="#6F11CD" d="M1030.242,973.42c76.94,153.801,122.008,277.024,73.16,178.519
				C1066.489,1077.615,974.018,861.163,1030.242,973.42z"/>
			<path fill="#A1CB17" d="M1022.073,985.455c72.492,154.722,110.756,270.24,66.506,175.04
				C1053.473,1085.066,970.304,875.083,1022.073,985.455z"/>
			<path fill="#23B9CF" d="M1013.333,997.125c66.165,151.205,100.586,264.551,60.065,171.277
				C1041.226,1094.443,965.481,887.989,1013.333,997.125z"/>
			<path fill="#677BE7" d="M1004.031,1008.39c59.826,146.758,90.874,258.718,53.853,167.244
				C1028.276,1102.602,960.188,900.997,1004.031,1008.39z"/>
			<path fill="#437575" d="M994.189,1019.224c53.956,142.729,81.428,252.275,47.877,162.951
				C1014.715,1109.51,954.45,914.259,994.189,1019.224z"/>
			<path fill="#E3DD8D" d="M983.829,1029.601c48.309,138.431,72.373,245.473,42.145,158.406
				C1000.972,1116.11,947.991,927.07,983.829,1029.601z"/>
			<path fill="#5F372B" d="M972.972,1039.488c42.786,133.504,63.768,238.522,36.669,153.622
				C987.034,1122.375,940.856,939.443,972.972,1039.488z"/>
			<path fill="#E1A9F5" d="M961.639,1048.859c37.628,128.656,55.513,231.139,31.461,148.617
				C972.972,1128.515,933.06,951.312,961.639,1048.859z"/>
			<path fill="#A1390B" d="M949.854,1057.683c33.05,124.765,47.553,223.003,26.529,143.406
				C958.449,1133.294,924.782,963.201,949.854,1057.683z"/>
			<path fill="#E30B4D" d="M929.908,1038.823c3.657-1.39,43.642,190.679,38.052,192.607
				C962.423,1233.34,926.165,1040.243,929.908,1038.823z"/>
			<path fill="#CB7995" d="M925.034,1073.588c24.278,115.149,33.097,206.404,17.528,132.419
				C928.779,1140.633,906.517,985.935,925.034,1073.588z"/>
			<path fill="#019785" d="M912.056,1080.619c19.977,108.413,26.67,198.39,13.473,126.677
				C913.746,1143.394,896.545,996.631,912.056,1080.619z"/>
			<path fill="#FD5D53" d="M898.739,1087.007c16.267,102.978,20.581,189.576,9.725,120.788
				C898.671,1145.887,886.019,1006.677,898.739,1087.007z"/>
			<path fill="#A5E763" d="M885.115,1092.733c12.734,96.563,15.003,180.898,6.288,114.771
				C883.489,1147.609,875.005,1016.271,885.115,1092.733z"/>
			<path fill="#B7557B" d="M871.218,1097.779c9.653,91.101,9.838,171.626,3.167,108.646
				C868.255,1148.726,863.514,1025.293,871.218,1097.779z"/>
			<path fill="#49B399" d="M857.083,1102.133c6.828,85.152,5.168,162.325,0.365,102.422
				C852.983,1149.068,851.578,1033.745,857.083,1102.133z"/>
			<path fill="#29DD1D" d="M843.005,1105.779c4.268,92.403-0.503,148.051-2.902,96.119
				C838.156,1160.232,839.872,1038.764,843.005,1105.779z"/>
		</g>
		<g>
			<path fill="#E545DB" d="M831.862,542.533c46.432,43.478,214.697,195.786,214.606,203.002
				C1046.246,752.74,870.539,579.496,831.862,542.533z"/>
			<path fill="#EFD9E1" d="M834.164,544.828c16.805,16.63,35.457,34.617,104.903,101.86
				c113.66,110.359,128.879,133.059,73.65,79.403C963.014,677.905,876.35,587.18,834.164,544.828z"/>
			<path fill="#FB2971" d="M836.444,547.345c48.53,50.191,204.665,207.514,203.909,214.126
				C1039.648,768.247,874.59,588.019,836.444,547.345z"/>
			<path fill="#9549DF" d="M838.686,550.083c0,0,2.302,2.688,99.339,107.067c104.56,112.83,123.134,140.88,69.055,82.625
				C971.067,701.02,839.484,551.085,838.686,550.083z"/>
			<path fill="#A37955" d="M840.873,553.038c212.168,241.861,215.86,253.461,162.8,193.237
				C964.643,702.017,912.19,638.071,840.873,553.038z"/>
			<path fill="#0DD9F7" d="M843.112,556.342c166.155,196.093,224.82,277.572,156.783,196.182
				C963.603,709.15,842.249,555.342,843.112,556.342z"/>
			<path fill="#29B3A9" d="M845.138,559.719c125.806,155.359,228.093,296.5,150.623,198.785
				C960.125,713.596,844.309,558.719,845.138,559.719z"/>
			<path fill="#67934F" d="M846.943,563.162c191.763,255.28,190.622,262.68,144.344,201.036
				C960.725,723.563,922.236,668.992,846.943,563.162z"/>
			<path fill="#012BCF" d="M848.865,567.069c87.815,118.876,216.525,313.47,137.63,202.523
				C951.45,720.397,848.102,566.068,848.865,567.069z"/>
			<path fill="#5F9359" d="M850.538,571.027c79.327,112.503,207.347,317.296,130.864,203.645
				C946.879,723.459,849.807,570.027,850.538,571.027z"/>
			<path fill="#D1AD39" d="M853.494,577.354c158.474,248.651,165.803,270.089,122.534,202.074
				C953.853,744.623,837.308,552.35,853.494,577.354z"/>
			<path fill="#13B9D5" d="M854.789,581.655c155.952,258.755,153.449,265.207,115.606,202.191
				C947.937,746.505,839.571,556.862,854.789,581.655z"/>
			<path fill="#41FB3F" d="M855.91,586.106c148.116,260.229,143.69,263.786,108.613,201.812
				C944.659,752.877,841.487,561.298,855.91,586.106z"/>
			<path fill="#672F29" d="M856.847,590.696c135.02,251.617,136.478,266.462,101.586,200.939
				C940.074,757.214,843.292,566.047,856.847,590.696z"/>
			<path fill="#19F1C9" d="M857.587,595.411c115.328,228.372,132.079,274.627,94.558,199.579
				C935.396,761.54,844.948,571.064,857.587,595.411z"/>
			<path fill="#9BEDC7" d="M858.122,600.238c107.76,227.268,122.223,271.763,87.559,197.737
				C929.992,764.522,846.28,576.022,858.122,600.238z"/>
			<path fill="#7F8399" d="M858.443,605.164c99.958,225.128,112.517,268.354,80.621,195.423
				C921.887,761.371,847.617,581.179,858.443,605.164z"/>
			<path fill="#E1114F" d="M858.541,610.173c88.214,212.81,104.658,268.509,73.771,192.647
				C916.224,763.364,848.565,586.557,858.541,610.173z"/>
			<path fill="#C947A9" d="M858.408,615.25c77.489,200.91,96.484,267.404,67.039,189.42
				C910.036,763.929,849.431,592.46,858.408,615.25z"/>
			<path fill="#B5FBF3" d="M858.038,620.38c52.155,142.487,93.636,280.946,60.451,185.757
				C904.598,766.37,849.76,597.766,858.038,620.38z"/>
			<path fill="#7BD1C7" d="M857.427,625.546c41.722,123.197,85.701,280.451,54.032,181.668
				C898.426,766.59,850.023,603.686,857.427,625.546z"/>
			<path fill="#C5A33D" d="M858.39,636.757c56.176,190.974,66.648,241.765,45.989,171.148
				C894.677,774.774,843.951,588.277,858.39,636.757z"/>
			<path fill="#ABAF47" d="M862.853,663.445c40.946,154.714,53.327,216.153,34.415,144.766
				C890.785,783.769,833.827,554.641,862.853,663.445z"/>
			<path fill="#C5FBBF" d="M860.556,667.809C897.08,821.6,906.238,875.81,890.148,808.134
				C885.321,787.855,834.926,560.909,860.556,667.809z"/>
			<path fill="#499F13" d="M858.044,672.082c32.002,151.908,38.511,199.677,24.994,135.59
				C877.278,780.393,836.606,570.438,858.044,672.082z"/>
			<path fill="#DBBDC5" d="M855.321,676.24c27.537,149.554,31.778,191.01,20.64,130.596
				C870.669,778.17,837.369,578.87,855.321,676.24z"/>
			<path fill="#05699D" d="M852.392,680.288c21.701,137.48,26.145,186.106,16.541,125.343
				C864.465,777.402,837.604,586.735,852.392,680.288z"/>
			<path fill="#8D85AB" d="M849.263,684.202c18.483,140.254,19.88,174.165,12.713,119.861
				C858.247,775.855,837.488,594.998,849.263,684.202z"/>
			<path fill="#1F2BBF" d="M845.938,687.968c14.067,132.836,14.702,166.348,9.169,114.171
				C851.828,771.282,837.003,603.746,845.938,687.968z"/>
			<path fill="#61EBDD" d="M842.426,691.574c9.908,123.614,9.984,158.918,5.919,108.297
				C845.918,769.721,836.028,611.927,842.426,691.574z"/>
			<path fill="#23E5CF" d="M838.734,695.007c6.243,114.521,5.641,151.082,2.973,102.262
				C840.067,767.345,834.628,619.911,838.734,695.007z"/>
			<path fill="#D10321" d="M838.687,794.266c0.474,26.091,0.395,26.947,0.447,0.013
				C839.428,641.863,835.835,637.317,838.687,794.266z"/>
		</g>
	</g>
	<g>
		<g>
			<path fill="#F1754B" d="M1037.773,313.239c204.551-240.371,337.74-345.75,232.225-221.57
				C1190.522,185.299,897.71,478.129,1037.773,313.239z"/>
			<path fill="#836B71" d="M1060.25,317.7c196.954-219.849,340.171-330.787,231.597-209.426
				C1209.966,199.888,920.403,474.062,1060.25,317.7z"/>
			<path fill="#B14DC5" d="M1044.541,368.529c-7.489-2.728,161.447-175.219,252.502-253.261
				c62.028-53.213,73.35-50.483,16.146,10.272C1232.776,211.027,1051.95,371.182,1044.541,368.529z"/>
			<path fill="#893591" d="M1071.509,370.802c-33.905,20.598,113.331-121.728,196.721-195.107
				c107.705-94.79,133.374-100.47,65.755-32.213C1257.429,220.834,1099.264,353.986,1071.509,370.802z"/>
			<path fill="#395FAF" d="M1093.417,376.333c-33.588,19.088,112.266-114.888,196.085-184.798
				c106.875-89.152,132.289-94.283,64.721-29.453C1277.599,235.67,1120.912,360.794,1093.417,376.333z"/>
			<path fill="#A32751" d="M1115.136,382.854c-33.316,17.622,112.267-109.252,195.122-174.726
				c106.109-83.839,130.879-88.135,63.627-26.804C1297.479,251.066,1142.385,368.522,1115.136,382.854z"/>
			<path fill="#215FEB" d="M1136.619,390.358c-32.783,16.048,111.732-103.477,193.872-164.912
				c105.074-78.606,129.273-82.16,62.44-24.242C1316.89,267.162,1163.582,377.197,1136.619,390.358z"/>
			<path fill="#19611B" d="M1191.076,364.665c184.112-151.377,329.778-233.114,220.276-142.968
				C1321.1,296.058,1056.021,475.877,1191.076,364.665z"/>
			<path fill="#53C561" d="M1211.843,375.782c178.869-139.638,327.349-219.036,217.275-132.998
				C1338.251,313.867,1078.266,480.219,1211.843,375.782z"/>
			<path fill="#D115B3" d="M1232.211,387.797c179.141-132.7,321.568-203.08,213.981-123.345
				C1355.772,331.568,1099.963,485.907,1232.211,387.797z"/>
			<path fill="#83999F" d="M1252.144,400.692c176.056-123.648,317.003-188.914,210.432-114.027
				C1371.704,350.613,1121.824,492.353,1252.144,400.692z"/>
			<path fill="#DF4FF1" d="M1271.591,414.454c171.857-114.324,312.359-175.409,206.63-105.038
				C1386.442,370.59,1143.56,499.757,1271.591,414.454z"/>
			<path fill="#213549" d="M1263.054,447.249c51.334-37.279,257.881-152.391,265.595-142.427
				C1539.107,318.308,1195.637,496.224,1263.054,447.249z"/>
			<path fill="#692B0B" d="M1308.918,444.463c162.841-96.829,301.977-149.726,198.296-88.044
				C1416.04,410.737,1185.281,518.1,1308.918,444.463z"/>
			<path fill="#41E38D" d="M1326.719,460.668c156.356-87.703,296.338-137.59,193.814-80.054
				C1429.613,431.71,1205.616,528.687,1326.719,460.668z"/>
			<path fill="#FD031D" d="M1343.907,477.634c155.44-82.095,288.762-125.046,189.114-72.391
				C1442.444,453.174,1225.487,540.25,1343.907,477.634z"/>
			<path fill="#6D331B" d="M1360.454,495.336c148.725-73.805,283.436-114.321,184.223-65.064
				C1454.773,474.966,1244.858,552.763,1360.454,495.336z"/>
			<path fill="#213D61" d="M1376.313,513.75c145.009-67.448,276.122-103.195,179.174-58.081
				C1466.902,496.946,1263.543,566.297,1376.313,513.75z"/>
			<path fill="#F59B95" d="M1391.46,532.848c139.184-60.541,269.297-92.902,173.949-51.432
				C1478.126,519.437,1281.686,580.665,1391.46,532.848z"/>
			<path fill="#A37307" d="M1405.878,552.595c134.973-54.692,261.547-82.792,168.568-45.119
				C1488.809,542.237,1299.148,595.904,1405.878,552.595z"/>
			<path fill="#A389F5" d="M1419.525,572.962c129.196-48.581,254.099-73.385,163.063-39.146
				C1498.328,565.555,1316.072,611.921,1419.525,572.962z"/>
			<path fill="#612F43" d="M1432.384,593.916c125.134-43.47,245.712-64.193,157.411-33.504
				C1507.335,589.108,1332.016,628.835,1432.384,593.916z"/>
			<path fill="#0B8501" d="M1444.439,615.419c119.268-38.074,237.775-55.706,151.636-28.196
				C1514.93,613.174,1347.797,646.319,1444.439,615.419z"/>
			<path fill="#8157B9" d="M1427.418,648.16c-2.402-7.036,199.349-54.545,202.171-45.337
				C1632.444,612.067,1429.837,655.256,1427.418,648.16z"/>
			<path fill="#817983" d="M1438.719,669.541c-2.045-6.869,191.945-47.269,194.334-38.393
				C1635.419,639.94,1440.797,676.53,1438.719,669.541z"/>
			<path fill="#D30B07" d="M1475.506,682.901c104.474-24.78,211.497-32.737,133.735-14.29
				C1534.597,686.349,1389.416,703.356,1475.506,682.901z"/>
			<path fill="#5337CB" d="M1484.106,706.262c99.219-20.885,202.476-26.082,127.61-10.323
				C1539.325,711.206,1401.815,723.616,1484.106,706.262z"/>
			<path fill="#81DB75" d="M1491.795,729.994c94.204-17.339,193.174-19.894,121.414-6.686
				C1543.328,736.195,1413.28,744.474,1491.795,729.994z"/>
			<path fill="#1F03B7" d="M1498.575,754.056c88.634-13.989,183.924-14.232,115.155-3.38
				C1546.429,761.321,1423.937,765.863,1498.575,754.056z"/>
			<path fill="#0D3B83" d="M1504.427,778.411c84.164-11.092,174.145-9.002,108.869-0.404
				C1548.853,786.518,1433.667,787.76,1504.427,778.411z"/>
			<path fill="#7B597D" d="M1509.338,803.018c79.041-8.37,164.466-4.313,102.529,2.246
				C1550.241,811.806,1442.557,810.111,1509.338,803.018z"/>
			<path fill="#7B6383" d="M1513.36,829.798c77.375-7.35,153.546,2.134,96.157,7.582
				C1554.296,842.653,1449.632,835.887,1513.36,829.798z"/>
		</g>
		<g>
			<path fill="#83DBCF" d="M771.044,600.504c168.122-192.541,298.184-308.886,190.55-188.777
				C897.438,483.391,671.508,714.715,771.044,600.504z"/>
			<path fill="#EB69CB" d="M784.652,599.253c176.279-191.534,297.52-292.265,192.297-180.69
				C911.304,488.24,682.464,710.469,784.652,599.253z"/>
			<path fill="#830BDF" d="M771.095,628.936c-6.219-0.711,141.977-143.866,159.125-160.136
				c120.538-114.359,121.651-103.069,61.832-42.781C919.374,499.337,775.555,629.4,771.095,628.936z"/>
			<path fill="#F3AF87" d="M784.124,628.225c-4.437-0.735,132.39-130.614,211.256-198.088c61.983-53.071,68.5-50.66,11.487,3.961
				C933.419,504.53,788.452,628.904,784.124,628.225z"/>
			<path fill="#2FB17B" d="M797.282,628.079c-4.314-0.939,133.812-125.399,213.046-189.611
				c61.766-50.095,67.674-47.246,11.041,4.325C947.441,510.175,801.49,628.959,797.282,628.079z"/>
			<path fill="#99591B" d="M810.539,628.51c-5.735-1.552,147.034-127.508,165.367-142.325
				c107.166-86.59,126.775-92.203,59.622-34.091C960.862,516.767,814.594,629.572,810.539,628.51z"/>
			<path fill="#E5E759" d="M823.864,629.529c-4.037-1.311,135.713-114.709,215.329-172.499c60.585-44.016,66.087-41.045,10.12,4.964
				C974.884,523.234,827.813,630.773,823.864,629.529z"/>
			<path fill="#0DB797" d="M867.813,604.884c173.543-137.619,301.527-215.652,194.882-132.409
				C989.385,529.748,755.276,694.268,867.813,604.884z"/>
			<path fill="#296753" d="M881.617,608.076c172.91-129.961,299.925-202.986,194.029-124.553
				C1001.523,538.47,768.393,693.31,881.617,608.076z"/>
			<path fill="#CF138D" d="M895.314,611.916c173.842-123.749,296.975-189.879,192.819-116.795
				C1014.137,547.128,781.104,693.343,895.314,611.916z"/>
			<path fill="#7FBD53" d="M908.872,616.4c172.157-115.959,294.515-177.783,191.265-109.152
				C1025.174,557.151,794.561,693.514,908.872,616.4z"/>
			<path fill="#59D15D" d="M922.257,621.521c170.39-108.477,291.47-165.848,189.367-101.637
				C1036.214,567.379,808.021,694.367,922.257,621.521z"/>
			<path fill="#7D1B5D" d="M935.437,627.272c168.325-101.154,287.931-154.157,187.133-94.265
				C1047.196,577.859,821.32,695.972,935.437,627.272z"/>
			<path fill="#69E9F1" d="M948.379,633.645c163.972-92.871,284.738-143.195,184.576-87.053
				C1057.765,588.798,834.555,698.224,948.379,633.645z"/>
			<path fill="#13EFB7" d="M961.051,640.628c159.552-85.017,280.855-132.344,181.702-80.014
				C1067.203,600.547,848.192,700.848,961.051,640.628z"/>
			<path fill="#E387F3" d="M973.42,648.211c157.358-78.72,275.631-121.318,178.519-73.16
				C1077.615,611.964,861.163,704.435,973.42,648.211z"/>
			<path fill="#E5ED4B" d="M985.455,656.38c154.722-72.492,270.24-110.756,175.04-66.506
				C1085.344,624.851,874.999,708.189,985.455,656.38z"/>
			<path fill="#ED3177" d="M997.125,665.12c151.11-66.123,264.586-100.601,171.277-60.065
				C1094.023,637.41,888.281,712.845,997.125,665.12z"/>
			<path fill="#DB4591" d="M1008.39,674.423c148.725-60.627,257.946-90.561,167.244-53.853
				C1102.602,650.178,900.997,718.265,1008.39,674.423z"/>
			<path fill="#81A187" d="M1019.224,684.264c142.64-53.923,252.31-81.441,162.951-47.877
				C1110.376,663.413,913.876,724.148,1019.224,684.264z"/>
			<path fill="#89CFB9" d="M1029.601,694.624c138.165-48.216,245.577-72.409,158.406-42.145
				C1116.112,677.481,927.041,730.472,1029.601,694.624z"/>
			<path fill="#F90785" d="M1039.488,705.481c133.499-42.784,238.523-63.768,153.622-36.669
				C1122.873,691.26,939.284,737.648,1039.488,705.481z"/>
			<path fill="#B34567" d="M1048.859,716.814c129.476-37.868,230.817-55.419,148.617-31.461
				C1128.499,705.486,951.319,745.391,1048.859,716.814z"/>
			<path fill="#A3572B" d="M1057.683,728.599c124.776-33.052,223-47.552,143.406-26.529
				C1133.292,720.005,963.201,753.672,1057.683,728.599z"/>
			<path fill="#4D3F31" d="M1038.823,748.545c-1.39-3.657,190.679-43.642,192.607-38.052
				C1233.354,716.071,1040.235,752.267,1038.823,748.545z"/>
			<path fill="#C50BF7" d="M1073.588,753.419c115.133-24.274,206.411-33.098,132.419-17.528
				C1140.713,749.658,985.912,771.941,1073.588,753.419z"/>
			<path fill="#FDB7F1" d="M1080.619,766.398c108.41-19.977,198.391-26.67,126.677-13.473
				C1143.49,764.69,996.591,781.915,1080.619,766.398z"/>
			<path fill="#9F5BB9" d="M1087.007,779.715c103.015-16.273,189.562-20.579,120.788-9.725
				C1145.888,779.782,1006.677,792.434,1087.007,779.715z"/>
			<path fill="#63593B" d="M1092.733,793.338c96.553-12.733,180.906-15.004,114.771-6.288
				C1147.606,794.965,1016.272,803.448,1092.733,793.338z"/>
			<path fill="#E531A5" d="M1097.779,807.235c91.172-9.66,171.598-9.834,108.646-3.167
				C1148.763,810.194,1025.282,814.94,1097.779,807.235z"/>
			<path fill="#B78715" d="M1102.133,821.371c85.127-6.826,162.345-5.17,102.423-0.365
				C1149.068,825.47,1033.745,826.875,1102.133,821.371z"/>
			<path fill="#B39581" d="M1105.779,835.448c92.403-4.268,148.051,0.503,96.119,2.902
				C1160.238,840.297,1038.761,838.581,1105.779,835.448z"/>
		</g>
		<g>
			<path fill="#D9C7D1" d="M542.533,846.591c43.38-46.328,195.79-214.697,203.002-214.606
				C752.735,632.207,579.295,808.125,542.533,846.591z"/>
			<path fill="#3B690B" d="M544.828,844.289c16.63-16.805,34.617-35.457,101.86-104.903
				c110.379-113.68,133.047-128.867,79.403-73.65C677.905,715.439,587.153,802.13,544.828,844.289z"/>
			<path fill="#7FF3E1" d="M547.345,842.009c50.025-48.37,207.516-204.665,214.126-203.909
				C768.279,638.809,586.027,805.731,547.345,842.009z"/>
			<path fill="#2F2FC1" d="M550.083,839.767c0,0,2.688-2.302,107.067-99.339c113.259-104.957,140.629-122.901,82.625-69.054
				C701.003,707.401,551.084,838.97,550.083,839.767z"/>
			<path fill="#D19921" d="M553.038,837.58c241.861-212.168,253.461-215.86,193.237-162.8
				C702.004,713.822,638.064,766.268,553.038,837.58z"/>
			<path fill="#B111E7" d="M556.342,835.341C755.32,666.733,832.828,611.43,752.524,678.558
				C709.144,714.855,555.341,836.205,556.342,835.341z"/>
			<path fill="#1F658D" d="M559.719,833.316c149.849-121.383,298.387-229.589,198.785-150.623
				C713.597,718.328,558.718,834.145,559.719,833.316z"/>
			<path fill="#AFF7ED" d="M563.162,831.51c255.28-191.763,262.68-190.622,201.036-144.344
				C723.563,717.728,668.992,756.217,563.162,831.51z"/>
			<path fill="#797597" d="M567.069,829.588c118.862-87.823,313.339-216.432,202.523-137.63
				C720.317,727.06,566.069,830.35,567.069,829.588z"/>
			<path fill="#BDA59D" d="M571.027,827.915c111.933-78.926,317.389-207.409,203.645-130.864
				C723.333,731.658,570.027,828.646,571.027,827.915z"/>
			<path fill="#2993F5" d="M577.354,824.959C825.99,666.494,847.451,659.151,779.428,702.425
				C744.549,724.648,552.35,841.146,577.354,824.959z"/>
			<path fill="#B977DD" d="M581.655,823.665c250.883-151.213,268.92-155.679,202.191-115.606
				C749.274,728.851,556.643,839.016,581.655,823.665z"/>
			<path fill="#E763EB" d="M586.106,822.543C846.866,674.131,849.646,678.992,787.918,713.93
				C752.969,733.742,561.261,836.988,586.106,822.543z"/>
			<path fill="#575907" d="M590.696,821.606c253.813-136.198,265.372-135.898,200.939-101.586
				C757.281,738.343,566.009,835.182,590.696,821.606z"/>
			<path fill="#A700DF" d="M595.411,820.866c228.371-115.328,274.627-132.079,199.579-94.558
				C761.646,743.004,571.017,833.528,595.411,820.866z"/>
			<path fill="#7D0FE7" d="M600.238,820.331c228.826-108.499,271.05-121.889,197.737-87.559
				C764.64,748.406,576.051,832.161,600.238,820.331z"/>
			<path fill="#8131AF" d="M605.164,820.01c222.39-98.74,269.525-113.029,195.423-80.621
				C761.43,756.54,581.147,830.851,605.164,820.01z"/>
			<path fill="#D153D1" d="M610.173,819.913c212.885-88.248,268.476-104.645,192.647-73.771
				C763.597,762.134,586.541,829.893,610.173,819.913z"/>
			<path fill="#F1CDFD" d="M615.25,820.045c202.416-78.07,266.821-96.264,189.42-67.039
				C764.639,768.148,592.216,829.119,615.25,820.045z"/>
			<path fill="#C959F1" d="M620.38,820.415c142.487-52.155,280.946-93.637,185.757-60.451
				C765.79,774.058,597.996,828.609,620.38,820.415z"/>
			<path fill="#D74FFF" d="M625.546,821.027c118.528-40.143,281.964-86.186,181.668-54.032
				C766.485,780.061,603.726,828.417,625.546,821.027z"/>
			<path fill="#E53DE9" d="M636.757,820.064c192.01-56.481,241.293-66.51,171.148-45.989
				C774.775,783.776,588.277,834.502,636.757,820.064z"/>
			<path fill="#E3093B" d="M663.445,815.6c158.789-42.024,214.309-52.838,144.766-34.415
				C783.662,787.696,554.636,844.627,663.445,815.6z"/>
			<path fill="#DD63A5" d="M667.809,817.898c149.898-35.6,209.771-46.103,140.325-29.593
				C787.867,793.129,560.905,843.529,667.809,817.898z"/>
			<path fill="#216755" d="M672.082,820.409c152.214-32.066,199.539-38.482,135.59-24.994
				C780.485,801.155,570.413,841.852,672.082,820.409z"/>
			<path fill="#991589" d="M676.24,823.133c141.765-26.103,194.496-32.42,130.596-20.64
				C778.162,807.786,578.871,841.084,676.24,823.133z"/>
			<path fill="#012B6D" d="M680.288,826.061c143.753-22.691,183.309-25.703,125.343-16.541
				C777.284,814.007,586.777,840.842,680.288,826.061z"/>
			<path fill="#459301" d="M684.202,829.19c136.623-18.005,175.768-20.091,119.861-12.713
				C775.687,820.228,595.162,840.943,684.202,829.19z"/>
			<path fill="#713D05" d="M687.968,832.515c132.836-14.067,166.348-14.702,114.171-9.169
				C773.237,826.417,603.454,841.481,687.968,832.515z"/>
			<path fill="#ADA37B" d="M691.574,836.027c121.295-9.722,159.904-10.063,108.297-5.919
				C769.832,832.526,611.724,842.442,691.574,836.027z"/>
			<path fill="#83419F" d="M695.007,839.719c114.565-6.245,151.063-5.64,102.262-2.973
				C767.346,838.386,619.908,843.826,695.007,839.719z"/>
			<path fill="#DBCBB5" d="M794.266,839.767c26.279-0.478,26.771-0.395,0.013-0.447
				C642.231,839.026,636.915,842.626,794.266,839.767z"/>
		</g>
	</g>
</g>
</svg>
