<?xml version="1.0" encoding="utf-8"?>
<!DOCTYPE svg PUBLIC "-//W3C//DTD SVG 1.1//EN" "http://www.w3.org/Graphics/SVG/1.1/DTD/svg11.dtd">
<svg version="1.1" id="Layer_1" xmlns="http://www.w3.org/2000/svg" xmlns:xlink="http://www.w3.org/1999/xlink" x="0px" y="0px"
	 viewBox="0 0 1653.3572 1604.8125" enable-background="new 0 0 1653.3572 1604.8125" xml:space="preserve">
<g>
	<g enable-background="new    ">
		<g enable-background="new    ">
			<defs>
				<path id="SVGID_1_" enable-background="new    " d="M1641.9108,1338.4722c-12.9678-21.3577-37.1014-42.5806-73.1503-63.0614
					L829.2328,0C1100.1277,446.1657,1371.0159,892.3065,1641.9108,1338.4722z"/>
			</defs>
			<clipPath id="SVGID_2_">
				<use xlink:href="#SVGID_1_"  overflow="visible"/>
			</clipPath>
			<g clip-path="url(#SVGID_2_)">
				<path fill="#FFFF00" d="M878.4871,84.9454c2.4009,1.3641,4.0083,2.7776,4.872,4.2L829.2328,0L878.4871,84.9454"/>
				<path fill="#C7B299" d="M927.7947,169.9827c4.8045,2.7296,8.0209,5.5581,9.7493,8.4046l-54.1849-89.2419
					c-0.8637-1.4225-2.4711-2.836-4.872-4.2L927.7947,169.9827"/>
				<path fill="#00FF00" d="M977.107,255.028c7.2083,4.0953,12.0339,8.339,14.627,12.6096l-54.19-89.2503
					c-1.7283-2.8465-4.9447-5.675-9.7492-8.4046L977.107,255.028"/>
				<path fill="#FF0000" d="M1026.4146,340.0653c9.6118,5.4608,16.0466,11.1195,19.5043,16.8142l-54.1849-89.2419
					c-2.593-4.2706-7.4187-8.5143-14.627-12.6096L1026.4146,340.0653"/>
				<path d="M1075.7222,425.1026c12.0153,6.8264,20.0592,13.9001,24.3815,21.0188l-54.1848-89.2419
					c-3.4576-5.6947-9.8925-11.3534-19.5043-16.8142L1075.7222,425.1026"/>
				<path fill="#006837" d="M1125.0342,510.1475c14.4191,8.1921,24.0723,16.6809,29.2592,25.2238l-54.1897-89.2499
					c-4.3223-7.1187-12.3662-14.1924-24.3815-21.0188L1125.0342,510.1475"/>
				<path fill="#D4145A" d="M1174.3418,595.1848c16.8225,9.5576,28.0848,19.4615,34.1364,29.4283l-54.1848-89.2419
					c-5.1869-8.5428-14.8401-17.0317-29.2592-25.2238L1174.3418,595.1848"/>
				<path fill="#0071BC" d="M1223.6494,680.2221c19.2261,10.9232,32.0974,22.2421,39.0137,33.6329
					c-16.2555-26.7725-37.9294-62.4693-54.1849-89.2419c-6.0515-9.9669-17.3138-19.8707-34.1364-29.4283L1223.6494,680.2221"/>
				<path fill="#999999" d="M1272.9614,765.267c21.6299,12.2889,36.1105,25.0229,43.8914,37.8379l-54.1897-89.2499
					c-6.9163-11.3909-19.7876-22.7098-39.0137-33.6329L1272.9614,765.267"/>
				<path fill="#B3B3B3" d="M1322.269,850.3044c24.0333,13.6544,40.123,27.8034,48.7686,42.0424l-54.1848-89.2419
					c-7.7809-12.815-22.2615-25.549-43.8914-37.8379L1322.269,850.3044"/>
				<path fill="#00A99D" d="M1371.5765,935.3417c26.437,15.0199,44.1357,30.584,53.6459,46.2471l-54.1848-89.2419
					c-8.6455-14.2391-24.7352-28.3881-48.7686-42.0425L1371.5765,935.3417"/>
				<path fill="#9E005D" d="M1420.8885,1020.3866c28.8407,16.3856,48.1488,33.3649,58.5236,50.452l-54.1897-89.2499
					c-9.5101-15.6631-27.2089-31.2272-53.6459-46.2471L1420.8885,1020.3866"/>
				<path fill="#00A99D" d="M1470.1962,1105.4238c31.2443,17.7512,52.1614,36.1455,63.4008,54.6566l-54.1848-89.2418
					c-10.3748-17.0872-29.6829-34.0664-58.5236-50.452l49.3076,85.0374"/>
				<path fill="#A67C52" d="M1519.5084,1190.4692c33.6479,19.1168,56.1744,38.9263,68.2786,58.8616l-54.1901-89.2504
					c-11.2394-18.5111-32.1565-36.9054-63.4008-54.6566L1519.5084,1190.4692"/>
				<path fill="#A67C52" d="M1568.7605,1275.4108c36.0488,20.4808,60.1825,41.7037,73.1503,63.0614l-54.1238-89.1414
					c-12.1041-19.9353-34.6306-39.7448-68.2786-58.8616L1568.7605,1275.4108"/>
			</g>
		</g>
		<g enable-background="new    ">
			<defs>
				<path id="SVGID_3_" enable-background="new    " d="M829.2328,0l739.5278,1275.4108
					c-200.9622-114.175-696.1157-162.054-1105.9562-106.9406c-248.153,33.3705-408.1312,96.848-451.126,167.0842
					C284.2,890.3602,556.7113,445.1942,829.2328,0z"/>
			</defs>
			<clipPath id="SVGID_4_">
				<use xlink:href="#SVGID_3_"  overflow="visible"/>
			</clipPath>
			<g clip-path="url(#SVGID_4_)">
				<path fill="#C7B299" d="M864.1384,79.864c5.8506,1.3513,10.7916,3.0604,14.3488,5.0814L829.2328,0L864.1384,79.864"/>
				<path fill="#009245" d="M844.2496,76.9222c7.2261,0.5891,14.0157,1.5852,19.8887,2.9417L829.2328,0L844.2496,76.9222"/>
				<path fill="#C1272D" d="M821.7397,76.4221c7.6199-0.2712,15.2832-0.089,22.5099,0.5001L829.2328,0c0,0,0,0,0,0L821.7397,76.4221
					"/>
				<path fill="#F7931E" d="M799.6215,78.6215c1.6636-0.2888,3.3999-0.5557,5.2064-0.7986
					c5.4766-0.7365,11.1819-1.1968,16.9118-1.4008L829.2328,0L799.6215,78.6215"/>
				<path fill="#C69C6D" d="M783.2073,83.0505c4.1808-1.744,9.707-3.2647,16.4142-4.4291L829.2328,0L783.2073,83.0505"/>
				<path fill="#2E3192" d="M774.8649,88.8189c1.3264-2.0574,4.1619-4.0245,8.3425-5.7684L829.2328,0L774.8649,88.8189"/>
				<path fill="#754C24" d="M774.7818,88.9511c0.027-0.0441,0.0547-0.0882,0.0831-0.1322L829.2328,0c0,0,0,0,0,0
					C812.8975,26.6853,791.1171,62.2658,774.7818,88.9511"/>
				<path fill="#00FFFF" d="M899.0817,159.8143c11.7075,2.7042,21.595,6.1242,28.7131,10.1683l-49.3076-85.0373
					c-3.5571-2.021-8.4982-3.7301-14.3488-5.0814L899.0817,159.8143"/>
				<path fill="#FF0000" d="M844.2496,76.9222c7.2261,0.5891,14.0157,1.5852,19.8887,2.9417l34.9433,79.9504
					c-11.7525-2.7146-25.3391-4.7077-39.7991-5.8866L844.2496,76.9222"/>
				<path fill="#C7B299" d="M821.7397,76.4221c7.6199-0.2712,15.2832-0.089,22.5099,0.5001l15.033,77.0055
					c-14.4613-1.179-29.7963-1.5435-45.0442-1.0008L821.7397,76.4221"/>
				<path d="M799.6215,78.6215c1.6636-0.2888,3.3999-0.5557,5.2064-0.7986c5.4766-0.7365,11.1819-1.1968,16.9118-1.4008
					l-7.5013,76.5048c-11.4659,0.4081-22.8828,1.3293-33.8419,2.803c-3.6149,0.4861-7.0893,1.0201-10.4183,1.5981L799.6215,78.6215"
					/>
				<path fill="#00A99D" d="M783.2073,83.0505c4.1808-1.744,9.707-3.2647,16.4142-4.4291l-29.6434,78.7066
					c-13.4216,2.33-24.4799,5.373-32.8462,8.8629L783.2073,83.0505"/>
				<path fill="#C69C6D" d="M774.8649,88.8189c1.3264-2.0574,4.1619-4.0245,8.3425-5.7684L737.132,166.191
					c-8.3656,3.4896-14.0397,7.426-16.6939,11.5429L774.8649,88.8189"/>
				<path fill="#FCEE21" d="M720.2719,177.9984c0.054-0.0882,0.1094-0.1764,0.1662-0.2645l54.4268-88.915
					c-0.0284,0.044-0.056,0.0881-0.0831,0.1322C758.4288,115.6653,736.6248,151.2842,720.2719,177.9984"/>
				<path fill="#D4145A" d="M934.0283,239.7723c17.5649,4.0571,32.3993,9.1882,43.0787,15.2557l-49.3123-85.0453
					c-7.1181-4.0441-17.0056-7.4642-28.7131-10.1683L934.0283,239.7723"/>
				<path fill="#FF1D25" d="M859.2826,153.9277c14.46,1.1789,28.0466,3.172,39.7991,5.8866l34.9466,79.958
					c-17.6325-4.0727-38.0166-7.0631-59.7112-8.8318L859.2826,153.9277"/>
				<path fill="#8CC63F" d="M814.2384,152.9269c15.2479-0.5427,30.5829-0.1782,45.0442,1.0008l15.0344,77.0128
					c-21.6965-1.7689-44.7039-2.3158-67.5806-1.5015L814.2384,152.9269"/>
				<path fill="#662D91" d="M769.9781,157.328c3.329-0.5779,6.8035-1.1119,10.4183-1.5981
					c10.9591-1.4737,22.3759-2.3949,33.8419-2.803l-7.502,76.5121c-17.2027,0.6123-34.3315,1.9944-50.7736,4.2054
					c-5.4234,0.7293-10.6362,1.5305-15.6308,2.3976L769.9781,157.328"/>
				<path fill="#754C24" d="M737.132,166.191c8.3663-3.4899,19.4246-6.533,32.8462-8.863l-29.6462,78.714
					c-20.1368,3.4957-36.7277,8.0612-49.2798,13.2972L737.132,166.191"/>
				<path fill="#0071BC" d="M720.438,177.7339c2.6542-4.117,8.3283-8.0533,16.6939-11.543l-46.0798,83.1483
					c-12.551,5.2355-21.064,11.1413-25.0461,17.3181L720.438,177.7339"/>
				<path fill="#0071BC" d="M665.7567,267.0542c0.081-0.1324,0.1641-0.2646,0.2493-0.3968l54.432-88.9234
					c-0.0568,0.0881-0.1122,0.1762-0.1662,0.2645C703.9173,204.7151,682.1112,240.3374,665.7567,267.0542"/>
				<path fill="#754C24" d="M968.9716,319.7227c23.4218,5.4099,43.2026,12.252,57.4431,20.3426L977.107,255.028
					c-10.6794-6.0675-25.5139-11.1986-43.0787-15.2557L968.9716,319.7227"/>
				<path fill="#C7B299" d="M874.317,230.9405c21.6946,1.7687,42.0787,4.7591,59.7112,8.8318l34.9433,79.9504
					c-23.512-5.4308-50.693-9.4182-79.6215-11.7767L874.317,230.9405"/>
				<path fill="#00A99D" d="M806.7364,229.439c22.8768-0.8143,45.8841-0.2673,67.5806,1.5015l15.033,77.0055
					c-28.9311-2.3587-59.6101-3.088-90.115-2.0022L806.7364,229.439"/>
				<path fill="#00FFFF" d="M740.332,236.042c4.9946-0.8671,10.2074-1.6683,15.6308-2.3976
					c16.4421-2.2111,33.5709-3.5931,50.7736-4.2054l-7.5013,76.5048c-22.9387,0.8165-45.7791,2.6594-67.7037,5.6077
					c-7.2318,0.9725-14.1827,2.0409-20.8427,3.1971L740.332,236.042"/>
				<path fill="#FCEE21" d="M691.0522,249.3393c12.5521-5.236,29.143-9.8016,49.2798-13.2972l-29.6434,78.7066
					c-26.8513,4.6613-48.9742,10.7492-65.7118,17.7311L691.0522,249.3393"/>
				<path fill="#2E3192" d="M666.006,266.6574c3.9821-6.1768,12.4951-12.0826,25.0461-17.3181l-46.0754,83.1404
					c-16.7361,6.9813-28.0876,14.8564-33.3976,23.0927L666.006,266.6574"/>
				<path fill="#662D91" d="M611.2467,356.1015c0.1081-0.1765,0.2189-0.3529,0.3325-0.5291l54.4268-88.915
					c-0.0852,0.1321-0.1683,0.2644-0.2493,0.3968C649.4037,293.7684,627.5997,329.3873,611.2467,356.1015"/>
				<path fill="#39B54A" d="M1003.9148,399.6731c29.2787,6.7627,54.006,15.3158,71.8074,25.4295l-49.3076-85.0373
					c-14.2404-8.0906-34.0212-14.9327-57.443-20.3426L1003.9148,399.6731"/>
				<path fill="#22B573" d="M889.35,307.946c28.9285,2.3585,56.1096,6.3459,79.6215,11.7767l34.9432,79.9504
					c-29.3914-6.7888-63.3693-11.7734-99.5318-14.7216L889.35,307.946"/>
				<path fill="#22B573" d="M799.235,305.9438c30.5049-1.0858,61.1839-0.3565,90.115,2.0022l15.033,77.0055
					c-36.1656-2.9485-74.5162-3.8602-112.6492-2.5029L799.235,305.9438"/>
				<path fill="#29ABE2" d="M710.6886,314.7486c6.66-1.1562,13.611-2.2245,20.8427-3.1971
					c21.9247-2.9483,44.765-4.7912,67.7037-5.6077l-7.5013,76.5048c-28.6749,1.0207-57.2267,3.3244-84.6339,7.01
					c-9.0402,1.2157-17.7292,2.5512-26.0547,3.9965L710.6886,314.7486"/>
				<path fill="#7AC943" d="M644.9768,332.4797c16.7375-6.9819,38.8605-13.0698,65.7118-17.7311l-29.6434,78.7066
					c-33.5656,5.8269-61.2208,13.4372-82.1437,22.165L644.9768,332.4797"/>
				<path fill="#736357" d="M611.5792,355.5724c5.3099-8.2363,16.6615-16.1114,33.3976-23.0927l-46.0754,83.1404
					c-20.9211,8.7271-35.1113,18.5714-41.7491,28.8673L611.5792,355.5724"/>
				<path fill="#C69C6D" d="M556.7367,445.1489c0.1351-0.2207,0.2737-0.4411,0.4156-0.6614l54.4269-88.915
					c-0.1136,0.1762-0.2244,0.3525-0.3325,0.5291C594.8937,382.8157,573.0897,418.4347,556.7367,445.1489"/>
				<path fill="#ED1E79" d="M1038.8612,479.6307c35.1361,8.1156,64.8102,18.3798,86.173,30.5169l-49.312-85.0449
					c-17.8014-10.1138-42.5287-18.6668-71.8074-25.4295L1038.8612,479.6307"/>
				<path fill="#999999" d="M904.383,384.9515c36.1625,2.9482,70.1404,7.9328,99.5318,14.7216l34.9464,79.9576
					c-35.2714-8.1469-76.0468-14.1287-119.4438-17.6668L904.383,384.9515"/>
				<path fill="#FF7BAC" d="M791.7338,382.4486c38.133-1.3573,76.4836-0.4456,112.6492,2.5029l15.0344,77.0124
					c-43.4009-3.5384-89.4238-4.6325-135.1855-3.0036L791.7338,382.4486"/>
				<path fill="#662D91" d="M681.0452,393.4552c8.3255-1.4453,17.0146-2.7809,26.0547-3.9965
					c27.4072-3.6856,55.959-5.9893,84.6339-7.01l-7.502,76.5117c-34.4114,1.2249-68.6753,3.9895-101.5654,8.4124
					c-10.8488,1.4589-21.2761,3.0616-31.2672,4.796L681.0452,393.4552"/>
				<path fill="#9E005D" d="M598.9014,415.6201c20.923-8.7278,48.5781-16.3381,82.1437-22.165l-29.646,78.7136
					c-40.2808,6.9926-73.4685,16.1254-98.5773,26.5992L598.9014,415.6201"/>
				<path fill="#998675" d="M557.1523,444.4875c6.6378-10.2959,20.8279-20.1403,41.7491-28.8673l-46.0795,83.1479
					c-25.1066,10.4729-42.1356,22.2867-50.1013,34.6424L557.1523,444.4875"/>
				<path fill="#B3B3B3" d="M502.2219,534.2042c0.1621-0.2648,0.3284-0.5294,0.4988-0.7938l54.4317-88.923
					c-0.142,0.2203-0.2805,0.4407-0.4156,0.6614C540.3823,471.8655,518.5763,507.4876,502.2219,534.2042"/>
				<path fill="#D4145A" d="M1073.8046,559.5811c40.9929,9.4684,75.6135,21.4435,100.5372,35.6038l-49.3076-85.0373
					c-21.3628-12.1371-51.0369-22.4012-86.173-30.5169L1073.8046,559.5811"/>
				<path fill="#998675" d="M919.4174,461.9639c43.397,3.5381,84.1725,9.5199,119.4438,17.6668l34.9434,79.9504
					c-41.1509-9.5049-88.7232-16.4838-139.3542-20.6116L919.4174,461.9639"/>
				<path fill="#534741" d="M784.2318,458.9603c45.7618-1.6289,91.7847-0.5348,135.1855,3.0036l15.033,77.0055
					c-50.6354-4.1282-104.33-5.4047-157.7198-3.5043L784.2318,458.9603"/>
				<path fill="#999999" d="M651.3992,472.1688c9.991-1.7344,20.4184-3.3372,31.2672-4.796
					c32.8901-4.4229,67.154-7.1876,101.5655-8.4124l-7.5013,76.5048c-40.1476,1.4291-80.1229,4.6545-118.4956,9.8147
					c-12.6571,1.7021-24.8226,3.572-36.4791,5.5955L651.3992,472.1688"/>
				<path fill="#009245" d="M552.8219,498.768c25.1088-10.4739,58.2965-19.6067,98.5773-26.5993l-29.6434,78.7066
					c-46.9952,8.1582-85.7151,18.8134-115.0092,31.0331L552.8219,498.768"/>
				<path fill="#39B54A" d="M502.7206,533.4105c7.9657-12.3557,24.9947-24.1695,50.1013-34.6424l-46.0753,83.1405
					c-29.2916,12.2186-49.1592,26.0017-58.4528,40.417L502.7206,533.4105"/>
				<path fill="#FCEE21" d="M447.7119,623.2515c0.1891-0.309,0.3831-0.6176,0.5819-0.926l54.4268-88.915
					c-0.1704,0.2643-0.3367,0.5289-0.4988,0.7938C485.8689,560.9184,464.0649,596.5374,447.7119,623.2515"/>
				<path fill="#00FFFF" d="M1108.7478,639.5315c46.8499,10.8212,86.4169,24.5073,114.9016,40.6907l-49.3076-85.0373
					c-24.9237-14.1603-59.5443-26.1354-100.5372-35.6038L1108.7478,639.5315"/>
				<path fill="#FBB03B" d="M934.4503,538.9694c50.631,4.1278,98.2034,11.1068,139.3542,20.6116l34.9432,79.9504
					c-47.0303-10.863-101.3995-18.8391-159.2645-23.5566L934.4503,538.9694"/>
				<path fill="#7AC943" d="M776.7305,535.4651c53.3899-1.9004,107.0845-0.6239,157.7198,3.5043l15.033,77.0055
					c-57.87-4.718-119.2361-6.1769-180.2542-4.0049L776.7305,535.4651"/>
				<path fill="#333333" d="M621.7558,550.8754c11.6564-2.0236,23.822-3.8934,36.4791-5.5955
					c38.3727-5.1602,78.348-8.3856,118.4956-9.8147l-7.5013,76.5048c-45.8837,1.6332-91.5705,5.3195-135.4257,11.217
					c-14.4655,1.9453-28.3692,4.0823-41.6911,6.395L621.7558,550.8754"/>
				<path d="M506.7466,581.9084c29.2942-12.2197,68.014-22.8749,115.0092-31.0331l-29.6434,78.7065
					c-53.7097,9.3239-97.9616,21.5013-131.4412,35.467L506.7466,581.9084"/>
				<path fill="#754C24" d="M448.2938,622.3255c9.2935-14.4153,29.1611-28.1984,58.4528-40.4171l-46.0754,83.1404
					c-33.4767,13.9645-56.1829,29.7167-66.8042,46.1917L448.2938,622.3255"/>
				<path fill="#998675" d="M393.2019,712.2989c0.2162-0.3531,0.4378-0.7059,0.6651-1.0583l54.4268-88.915
					c-0.1988,0.3084-0.3928,0.6171-0.5819,0.926C431.3589,649.9658,409.5549,685.5847,393.2019,712.2989"/>
				<path fill="#D9E021" d="M1143.6942,719.489c52.7073,12.1742,97.2211,27.5714,129.2672,45.7781l-49.312-85.0449
					c-28.4847-16.1834-68.0518-29.8694-114.9016-40.6907L1143.6942,719.489"/>
				<path fill="#736357" d="M949.4833,615.9749c57.8649,4.7175,112.2342,12.6936,159.2645,23.5566l34.9464,79.9575
					c-52.9103-12.2211-114.077-21.1943-179.1765-26.5017L949.4833,615.9749"/>
				<path fill="#C1272D" d="M769.2292,611.97c61.018-2.1719,122.3842-0.713,180.2542,4.0049l15.0343,77.0124
					c-65.1052-5.3078-134.1437-6.9491-202.7905-4.5057L769.2292,611.97"/>
				<path fill="#8CC63F" d="M592.1124,629.5819c13.3219-2.3126,27.2256-4.4497,41.6911-6.395
					c43.8552-5.8975,89.542-9.5837,135.4257-11.217l-7.502,76.5117c-51.6203,1.8374-103.0191,5.9846-152.3573,12.6193
					c-16.274,2.1885-31.9161,4.5927-46.9035,7.1945L592.1124,629.5819"/>
				<path fill="#736357" d="M460.6712,665.0489c33.4796-13.9656,77.7315-26.1431,131.4412-35.467l-29.646,78.7136
					c-60.4247,10.4895-110.2093,24.1895-147.8747,39.9012L460.6712,665.0489"/>
				<path fill="#ED1C24" d="M393.8669,711.2405c10.6213-16.4749,33.3275-32.2272,66.8042-46.1917l-46.0795,83.1479
					c-37.6621,15.7104-63.2071,33.4321-75.1564,51.9668L393.8669,711.2405"/>
				<path fill="#29ABE2" d="M338.687,801.3542c0.2432-0.3972,0.4926-0.7941,0.7482-1.1906l54.4317-88.923
					c-0.2272,0.3524-0.4489,0.7052-0.6651,1.0583C376.8474,739.0155,355.0415,774.6376,338.687,801.3542"/>
				<path d="M1178.6375,799.4395c58.5642,13.527,108.0245,30.635,143.6316,50.8649l-49.3076-85.0373
					c-32.0461-18.2067-76.5599-33.6039-129.2672-45.7781L1178.6375,799.4395"/>
				<path fill="#666666" d="M964.5177,692.9873c65.0995,5.3074,126.2662,14.2806,179.1765,26.5017l34.9432,79.9504
					c-58.7896-13.5791-126.7534-23.5495-199.0868-29.4467L964.5177,692.9873"/>
				<path fill="#998675" d="M761.7272,688.4816c68.6468-2.4434,137.6853-0.8021,202.7905,4.5057l15.033,77.0055
					c-72.3397-5.8976-149.0499-7.7213-225.3248-5.0063L761.7272,688.4816"/>
				<path fill="#754C24" d="M562.4664,708.2955c14.9874-2.6018,30.6295-5.006,46.9035-7.1945
					c49.3382-6.6348,100.737-10.7819,152.3573-12.6194l-7.5013,76.5049c-57.3564,2.0416-114.4667,6.6496-169.2874,14.0216
					c-18.0825,2.4316-35.4626,5.1031-52.1155,7.994L562.4664,708.2955"/>
				<path fill="#006837" d="M414.5916,748.1968c37.6654-15.7117,87.45-29.4117,147.8747-39.9012l-29.6434,78.7065
					c-67.1392,11.6552-122.4558,26.8775-164.3067,44.3351L414.5916,748.1968"/>
				<path fill="#9E005D" d="M339.4352,800.1636c11.9493-18.5347,37.4943-36.2564,75.1564-51.9668l-46.0753,83.1404
					c-41.8472,17.4561-70.2308,37.1471-83.5079,57.7414L339.4352,800.1636"/>
				<path fill="#39B54A" d="M284.177,890.4016c0.2702-0.4414,0.5473-0.8824,0.8314-1.3229l54.4268-88.915
					c-0.2556,0.3965-0.5051,0.7934-0.7482,1.1906C322.334,828.0684,300.53,863.6874,284.177,890.4016"/>
				<path fill="#ED1E79" d="M1213.5808,879.3898c64.421,14.8798,118.8278,33.6988,157.9958,55.9518l-49.3076-85.0373
					c-35.6071-20.2299-85.0674-37.338-143.6316-50.8649L1213.5808,879.3898"/>
				<path fill="#8C6239" d="M979.5507,769.9928c72.3334,5.8972,140.2972,15.8676,199.0868,29.4467l34.9434,79.9504
					c-64.6691-14.9371-139.4298-25.9046-218.9971-32.3915L979.5507,769.9928"/>
				<path fill="#0071BC" d="M754.2259,764.9865c76.2749-2.715,152.985-0.8914,225.3248,5.0063l15.033,77.0055
					c-79.5743-6.4874-163.9561-8.4935-247.8591-5.507L754.2259,764.9865"/>
				<path fill="#F15A24" d="M532.8229,787.0021c16.6529-2.8909,34.0331-5.5623,52.1155-7.994
					c54.8207-7.372,111.931-11.98,169.2874-14.0216l-7.5013,76.5048c-63.0925,2.2457-125.9143,7.3146-186.2176,15.4239
					c-19.8908,2.6749-39.0092,5.6134-57.3275,8.7935L532.8229,787.0021"/>
				<path fill="#CCCCCC" d="M368.5163,831.3372c41.8508-17.4576,97.1675-32.68,164.3067-44.3351l-29.6434,78.7066
					c-73.8536,12.8207-134.7025,29.5654-180.7387,48.769L368.5163,831.3372"/>
				<path fill="#39B54A" d="M285.0084,889.0786c13.2771-20.5943,41.6607-40.2853,83.5079-57.7414l-46.0754,83.1404
					c-46.0322,19.2018-77.2544,40.8621-91.8594,63.516L285.0084,889.0786"/>
				<path fill="#3FA9F5" d="M229.667,979.4489c0.2972-0.4855,0.6021-0.9706,0.9145-1.4553l54.4269-88.915
					c-0.2841,0.4406-0.5612,0.8815-0.8314,1.3229C267.824,917.1158,246.02,952.7347,229.667,979.4489"/>
				<path fill="#998675" d="M1248.5272,959.3474c70.2784,16.2327,129.632,36.7628,172.3615,61.0392l-49.312-85.0449
					c-39.1681-22.2531-93.5748-41.072-157.9958-55.9518L1248.5272,959.3474"/>
				<path fill="#7AC943" d="M994.5837,846.9983c79.5673,6.4869,154.3281,17.4544,218.9971,32.3915l34.9464,79.9576
					c-70.5491-16.2953-152.1073-28.26-238.9092-35.3367L994.5837,846.9983"/>
				<path fill="#2E3192" d="M746.7246,841.4913c83.903-2.9865,168.2847-0.9805,247.8591,5.507l15.0343,77.0125
					c-86.8095-7.0773-178.8636-9.2658-270.3954-6.0078L746.7246,841.4913"/>
				<path fill="#FF0000" d="M503.1796,865.7087c18.3183-3.1801,37.4366-6.1186,57.3275-8.7935
					c60.3033-8.1093,123.1251-13.1782,186.2176-15.4239l-7.502,76.5117c-68.8291,2.45-137.3629,7.9797-203.1492,16.8264
					c-21.6994,2.918-42.556,6.1238-62.5399,9.5929L503.1796,865.7087"/>
				<path fill="#B3B3B3" d="M322.4409,914.4777c46.0362-19.2036,106.8851-35.9482,180.7387-48.769l-29.646,78.7136
					c-80.5687,13.9865-146.9501,32.2537-197.1721,53.2033L322.4409,914.4777"/>
				<path fill="#009245" d="M230.5815,977.9937c14.6049-22.6539,45.8271-44.3141,91.8594-63.516l-46.0795,83.1479
					c-50.2177,20.9478-84.2787,44.5775-100.2116,69.2911L230.5815,977.9937"/>
				<path fill="#662D91" d="M175.1522,1068.5043c0.3242-0.5297,0.6568-1.059,0.9977-1.5876l54.4317-88.923
					c-0.3125,0.4846-0.6173,0.9697-0.9145,1.4553C213.3126,1006.1655,191.5066,1041.7876,175.1522,1068.5043"/>
				<path fill="#B3B3B3" d="M1283.4705,1039.2977c76.1354,17.5856,140.4354,39.8267,186.7258,66.1262l-49.3076-85.0374
					c-42.7295-24.2764-102.083-44.8065-172.3615-61.0392L1283.4705,1039.2977"/>
				<path fill="#1A1A1A" d="M1009.618,924.0107c86.8019,7.0767,168.3602,19.0414,238.9092,35.3367l34.9432,79.9503
					c-76.4285-17.6532-164.7836-30.6151-258.8195-38.2815L1009.618,924.0107"/>
				<path fill="#00FFFF" d="M739.2226,918.003c91.5318-3.2581,183.5859-1.0696,270.3954,6.0077l15.033,77.0056
					c-94.0441-7.6672-193.7698-10.038-292.9297-6.5084L739.2226,918.003"/>
				<path fill="#736357" d="M473.5335,944.4222c19.9839-3.4691,40.8405-6.6749,62.5399-9.5929
					c65.7863-8.8467,134.3201-14.3764,203.1492-16.8264l-7.5013,76.5048c-74.5652,2.6542-148.8105,8.6447-220.0793,18.2286
					c-23.5078,3.1612-46.1026,6.6342-67.7519,10.3924L473.5335,944.4222"/>
				<path fill="#1A1A1A" d="M276.3614,997.6255c50.222-20.9496,116.6035-39.2168,197.1721-53.2033l-29.6434,78.7066
					c-87.2832,15.152-159.1967,34.9416-213.6042,57.6371L276.3614,997.6255"/>
				<path d="M176.1498,1066.9166c15.9329-24.7136,49.9939-48.3433,100.2116-69.2911l-46.0754,83.1404
					c-54.4027,22.6935-91.3024,48.2925-108.563,75.0657L176.1498,1066.9166"/>
				<path fill="#CCCCCC" d="M120.6422,1157.5516c0.3513-0.5739,0.7115-1.1472,1.0808-1.72l54.4269-88.915
					c-0.3409,0.5287-0.6734,1.058-0.9977,1.5876C158.7992,1095.2185,136.9952,1130.8374,120.6422,1157.5516"/>
				<path fill="#754C24" d="M1318.4171,1119.2557c81.9927,18.9385,151.2396,42.8906,201.0914,71.2135l-49.3123-85.0453
					c-46.2904-26.2996-110.5905-48.5406-186.7258-66.1262L1318.4171,1119.2557"/>
				<path fill="#FF7BAC" d="M1024.651,1001.0162c94.0359,7.6664,182.391,20.6283,258.8195,38.2815l34.9467,79.958
					c-82.3086-19.0114-177.4613-32.9705-278.7317-41.2268L1024.651,1001.0162"/>
				<path fill="#FF0000" d="M731.7213,994.5078c99.1599-3.5296,198.8856-1.1588,292.9297,6.5084l15.0344,77.0127
					c-101.2793-8.257-208.6774-10.8102-315.4661-7.009L731.7213,994.5078"/>
				<path fill="#BDCCD4" d="M443.8901,1023.1288c21.6493-3.7582,44.2441-7.2312,67.7519-10.3924
					c71.2688-9.5839,145.514-15.5745,220.0793-18.2286l-7.502,76.5121c-80.3019,2.8583-160.2592,9.3098-237.011,19.631
					c-25.3163,3.4044-49.6495,7.1445-72.9644,11.192L443.8901,1023.1288"/>
				<path fill="#8CC63F" d="M230.286,1080.766c54.4075-22.6956,126.321-42.4851,213.6041-57.6371l-29.6462,78.7141
					c-93.9982,16.3177-171.4444,37.6299-230.0377,62.0714L230.286,1080.766"/>
				<path fill="#808080" d="M121.723,1155.8317c17.2607-26.7732,54.1603-52.3722,108.563-75.0657l-46.0797,83.1483
					c-58.5882,24.4395-98.3267,52.0078-116.9153,80.8408L121.723,1155.8317"/>
				<path fill="#7AC943" d="M66.127,1246.6073c0.3783-0.6179,0.7663-1.2354,1.1639-1.8522l54.432-88.9235
					c-0.3693,0.5728-0.7295,1.1461-1.0808,1.72C104.2876,1184.2683,82.4816,1219.8906,66.127,1246.6073"/>
				<path fill="#FF00FF" d="M1353.321,1199.1161c87.843,20.2898,162.0308,45.9509,215.4396,76.2947l-49.2521-84.9415
					c-49.8518-28.3229-119.0988-52.275-201.0914-71.2135L1353.321,1199.1161"/>
				<path fill="#662D91" d="M1054.7014,1154.9478c108.4963,8.8453,210.4382,23.8004,298.6196,44.1683l-34.9039-79.8604
					c-82.3086-19.0114-177.4613-32.9705-278.7317-41.2268L1054.7014,1154.9478"/>
				<path fill="#22B573" d="M716.7264,1147.4386c114.4082-4.0724,229.4693-1.337,337.975,7.5092l-15.016-76.9188
					c-101.2793-8.257-208.6774-10.8102-315.4661-7.009L716.7264,1147.4386"/>
				<path fill="#999999" d="M384.6339,1180.4608c24.9784-4.3362,51.0478-8.3433,78.1705-11.9906
					c82.2281-11.0576,167.8905-17.9694,253.922-21.0316l7.4929-76.4187c-80.3019,2.8583-160.2592,9.3098-237.011,19.631
					c-25.3163,3.4044-49.6495,7.1445-72.9644,11.192L384.6339,1180.4608"/>
				<path fill="#ED1C24" d="M138.1828,1246.9611c62.774-26.1854,145.746-49.0182,246.4512-66.5002l29.61-78.6179
					c-93.9982,16.3177-171.4444,37.6299-230.0377,62.0714L138.1828,1246.9611"/>
				<path d="M12.9254,1333.5701c19.9149-30.8904,62.4889-60.4258,125.2573-86.609l46.0235-83.0468
					c-58.5882,24.4395-98.3267,52.0078-116.9153,80.8408L12.9254,1333.5701"/>
				<path fill="#333333" d="M11.6784,1335.5544c0.4053-0.6621,0.821-1.3235,1.247-1.9844l54.3656-88.8149
					c-0.3977,0.6168-0.7857,1.2343-1.164,1.8522C49.7925,1273.2915,28.013,1308.8702,11.6784,1335.5544"/>
			</g>
		</g>
		<g enable-background="new    ">
			<defs>
				<path id="SVGID_5_" enable-background="new    " d="M11.6784,1335.5544C284.2,890.3602,556.7113,445.1942,829.2328,0
					c270.8948,446.1657,541.783,892.3065,812.6779,1338.4722c59.324,97.7061-115.035,198.2354-451.3579,243.4625
					c-409.8406,55.1134-904.9941,7.2345-1105.9563-106.9406C5.3143,1429.9506-16.3355,1381.3179,11.6784,1335.5544z"/>
			</defs>
			<clipPath id="SVGID_6_">
				<use xlink:href="#SVGID_5_"  overflow="visible"/>
			</clipPath>
			<g clip-path="url(#SVGID_6_)">
				<path fill="#754C24" d="M775.5778,95.1293c-1.8168-2.06-2.0308-4.1609-0.796-6.1782
					C791.1171,62.2658,812.8975,26.6853,829.2328,0c0,0,0,0,0,0L775.5778,95.1293"/>
				<path fill="#FCEE21" d="M785.9811,101.0399c-2.423-0.8515-4.5573-1.7874-6.3428-2.8018
					c-1.7856-1.0145-3.1323-2.0563-4.0605-3.1088L829.2328,0L785.9811,101.0399"/>
				<path fill="#00A99D" d="M803.5035,105.0898c-6.6755-0.9815-12.6764-2.3469-17.5223-4.0499L829.2328,0c0,0,0,0,0,0
					L803.5035,105.0898"/>
				<path fill="#534741" d="M825.0742,106.8359c-7.5449-0.1671-14.8951-0.7646-21.5707-1.7461L829.2328,0L825.0742,106.8359"/>
				<path fill="#93278F" d="M847.8107,105.9999c-7.4534,0.7399-15.1923,1.0031-22.7365,0.836L829.2328,0L847.8107,105.9999"/>
				<path fill="#603813" d="M867.7229,102.5473c-4.1171,1.1202-8.9488,2.0768-14.4253,2.8133
					c-1.8065,0.2429-3.6379,0.4558-5.4869,0.6394L829.2328,0c0,0,0,0,0,0L867.7229,102.5473"/>
				<path fill="#FFFF00" d="M880.1929,97.3433c-2.7834,1.9353-6.9948,3.7143-12.47,5.204L829.2328,0c0,0,0,0,0,0L880.1929,97.3433"
					/>
				<path fill="#F15A24" d="M884.095,91.2017c0.2367,2.1147-1.1187,4.2063-3.9022,6.1416L829.2328,0L884.095,91.2017"/>
				<path fill="#FFFF00" d="M883.3591,89.1454c0.4158,0.6849,0.6592,1.3718,0.7359,2.0563L829.2328,0c0,0,0,0,0,0L883.3591,89.1454"
					/>
				<path fill="#FCEE21" d="M721.8647,190.3615c-3.6356-4.1222-4.0639-8.3264-1.5928-12.3631
					c16.353-26.7142,38.157-62.3331,54.5099-89.0473c-1.2348,2.0173-1.0208,4.1182,0.796,6.1782L721.8647,190.3615"/>
				<path fill="#4D4D4D" d="M785.9811,101.0399c-2.423-0.8515-4.5573-1.7874-6.3428-2.8018
					c-1.7856-1.0145-3.1323-2.0563-4.0605-3.1088l-53.7132,95.2323c1.8575,2.1062,4.5524,4.1909,8.1255,6.221
					c3.5731,2.03,7.8439,3.9027,12.6924,5.6066L785.9811,101.0399"/>
				<path fill="#C69C6D" d="M803.5035,105.0898c-6.6755-0.9815-12.6764-2.3469-17.5223-4.0499l-43.2986,101.1493
					c9.6972,3.4078,21.7054,6.1402,35.0637,8.1043L803.5035,105.0898"/>
				<path fill="#FF00FF" d="M825.0742,106.8359c-7.5449-0.1671-14.8951-0.7646-21.5707-1.7461l-25.7572,105.2036
					c13.3583,1.964,28.0667,3.1597,43.1647,3.4941L825.0742,106.8359"/>
				<path fill="#A67C52" d="M847.8107,105.9999c-7.4534,0.7399-15.1923,1.0031-22.7365,0.836l-4.1632,106.9516
					c15.0966,0.3344,30.5826-0.1923,45.4976-1.6729L847.8107,105.9999"/>
				<path fill="#FF1D25" d="M867.7229,102.5473c-4.1171,1.1202-8.9488,2.0768-14.4253,2.8133
					c-1.8065,0.2429-3.6379,0.4558-5.4869,0.6394l18.5979,106.1147c3.7-0.3673,7.3648-0.7933,10.9799-1.2794
					c10.9589-1.4737,20.6275-3.388,28.8661-5.6296L867.7229,102.5473"/>
				<path fill="#FF1D25" d="M880.1929,97.3433c-2.7834,1.9353-6.9948,3.7143-12.47,5.204l38.5317,102.6583
					c10.9563-2.981,19.3837-6.541,24.9535-10.4137L880.1929,97.3433"/>
				<path fill="#1B1464" d="M884.095,91.2017c0.2367,2.1147-1.1187,4.2063-3.9022,6.1416l51.0152,97.4486
					c5.5699-3.8727,8.2822-8.058,7.8085-12.2898L884.095,91.2017"/>
				<path fill="#C7B299" d="M937.544,178.3873c0.8321,1.3705,1.3192,2.7451,1.4725,4.1148L884.095,91.2017
					c-0.0767-0.6845-0.3201-1.3715-0.7359-2.0563L937.544,178.3873"/>
				<path fill="#0071BC" d="M668.1464,285.6028c-5.4545-6.1846-6.0971-12.4922-2.3897-18.5486
					c16.3545-26.7167,38.1606-62.339,54.5151-89.0557c-2.4711,4.0367-2.0428,8.2409,1.5928,12.3631L668.1464,285.6028"/>
				<path fill="#F15A24" d="M742.6826,202.1891c-4.8486-1.7039-9.1194-3.5766-12.6924-5.6066
					c-3.5731-2.03-6.2679-4.1148-8.1254-6.221l-53.7183,95.2413c2.7869,3.1599,6.83,6.2877,12.1908,9.3334
					c5.3607,3.0456,11.7683,5.8553,19.0427,8.4117L742.6826,202.1891"/>
				<path fill="#93278F" d="M777.7463,210.2934c-13.3583-1.964-25.3665-4.6964-35.0637-8.1043l-43.3027,101.1588
					c14.549,5.1129,32.5649,9.2123,52.6068,12.159L777.7463,210.2934"/>
				<path fill="#808080" d="M820.9109,213.7875c-15.098-0.3344-29.8064-1.5301-43.1647-3.4941l-25.7597,105.2135
					c20.0417,2.9467,42.1091,4.7406,64.7607,5.2423L820.9109,213.7875"/>
				<path fill="#F15A24" d="M866.4086,212.1146c-14.915,1.4806-30.401,2.0073-45.4976,1.6729l-4.1636,106.9617
					c22.6497,0.5017,45.8837-0.2885,68.261-2.5099L866.4086,212.1146"/>
				<path fill="#FCEE21" d="M906.2546,205.2056c-8.2386,2.2416-17.9072,4.1559-28.8661,5.6296
					c-3.6151,0.4861-7.2798,0.9121-10.9799,1.2794l18.5997,106.1247c5.5511-0.5511,11.0496-1.1902,16.4733-1.9196
					c16.4418-2.211,30.9478-5.083,43.3084-8.4462L906.2546,205.2056"/>
				<path fill="#C69C6D" d="M931.2081,194.7919c-5.5698,3.8727-13.9972,7.4326-24.9535,10.4137l38.5353,102.668
					c16.4379-4.4725,29.0816-9.8136,37.4381-15.6238L931.2081,194.7919"/>
				<path fill="#93278F" d="M939.0165,182.5021c0.4738,4.2318-2.2386,8.4171-7.8085,12.2898l51.02,97.4579
					c8.3566-5.8103,12.426-12.0896,11.7153-18.4386L939.0165,182.5021"/>
				<path fill="#00FF00" d="M991.7339,267.6376c1.2484,2.0561,1.9792,4.1185,2.2094,6.1736l-54.9268-91.309
					c-0.1533-1.3698-0.6404-2.7444-1.4725-4.1148L991.7339,267.6376"/>
				<path fill="#662D91" d="M614.4333,380.835c-7.2733-8.2468-8.1301-16.6577-3.1866-24.7335
					c16.353-26.7142,38.157-62.3332,54.51-89.0474c-3.7074,6.0564-3.0648,12.364,2.3897,18.5486L614.4333,380.835"/>
				<path fill="#808080" d="M699.3799,303.3479c-7.2744-2.5564-13.6819-5.3661-19.0427-8.4117
					c-5.3608-3.0457-9.4039-6.1735-12.1908-9.3334l-53.7131,95.2323c3.7162,4.2135,9.1074,8.3843,16.2557,12.4456
					c7.1482,4.0612,15.6923,7.8078,25.3923,11.2166L699.3799,303.3479"/>
				<path fill="#F7931E" d="M751.9866,315.5069c-20.0418-2.9467-38.0578-7.0461-52.6068-12.159l-43.2986,101.1493
					c19.4002,6.8177,43.4235,12.2841,70.1481,16.2133L751.9866,315.5069"/>
				<path fill="#F7931E" d="M816.7473,320.7492c-22.6517-0.5018-44.7191-2.2957-64.7607-5.2423l-25.7573,105.2036
					c26.7244,3.9292,56.15,6.3213,86.3547,6.9903L816.7473,320.7492"/>
				<path fill="#FFFF00" d="M885.0083,318.2393c-22.3773,2.2214-45.6113,3.0116-68.261,2.5099l-4.1632,106.9516
					c30.2021,0.669,61.1833-0.3847,91.0221-3.3468L885.0083,318.2393"/>
				<path fill="#ED1C24" d="M944.7899,307.8736c-12.3606,3.3631-26.8666,6.2351-43.3084,8.4462
					c-5.4237,0.7293-10.9221,1.3685-16.4732,1.9196l18.5979,106.1147c7.4021-0.7348,14.7339-1.5871,21.9661-2.5597
					c21.9243-2.9483,41.2672-6.7779,57.7493-11.2625L944.7899,307.8736"/>
				<path fill="#D9E021" d="M982.228,292.2498c-8.3565,5.8102-21.0002,11.1513-37.4381,15.6238l38.5317,102.6583
					c21.919-5.9638,38.7786-13.0859,49.9216-20.8335L982.228,292.2498"/>
				<path fill="#39B54A" d="M993.9433,273.8112c0.7107,6.349-3.3587,12.6283-11.7153,18.4386l51.0151,97.4486
					c11.1431-7.7477,16.5693-16.1208,15.6216-24.5868L993.9433,273.8112"/>
				<path fill="#FF0000" d="M1045.9188,356.8795c1.6647,2.7417,2.6393,5.4918,2.9459,8.2321l-54.9214-91.3004
					c-0.2301-2.0551-0.9609-4.1174-2.2094-6.1736L1045.9188,356.8795"/>
				<path fill="#C69C6D" d="M560.7202,476.0673c-9.092-10.309-10.1632-20.8232-3.9835-30.9184
					c16.353-26.7142,38.157-62.3331,54.51-89.0473c-4.9435,8.0758-4.0867,16.4867,3.1866,24.7335L560.7202,476.0673"/>
				<path fill="#FF931E" d="M656.0813,404.4972c-9.7-3.4088-18.2441-7.1554-25.3923-11.2166
					c-7.1484-4.0613-12.5396-8.232-16.2557-12.4456l-53.7131,95.2323c4.6454,5.2672,11.3848,10.4809,20.3207,15.5577
					c8.9357,5.0767,19.6164,9.7602,31.7419,14.0214L656.0813,404.4972"/>
				<path fill="#754C24" d="M726.2294,420.7105c-26.7245-3.9292-50.7479-9.3956-70.1481-16.2133l-43.2986,101.1493
					c24.2514,8.5225,54.2821,15.3558,87.6895,20.2676L726.2294,420.7105"/>
				<path fill="#603813" d="M812.5841,427.7008c-30.2048-0.6691-59.6303-3.0611-86.3547-6.9903l-25.7572,105.2036
					c33.4072,4.9117,70.1909,7.902,107.9487,8.7383L812.5841,427.7008"/>
				<path fill="#F15A24" d="M903.6062,424.354c-29.8388,2.9621-60.8199,4.0158-91.0221,3.3468l-4.1632,106.9516
					c37.7545,0.8363,76.4829-0.4808,113.7832-4.1837L903.6062,424.354"/>
				<path fill="#00FF00" d="M983.3217,410.5319c-16.4822,4.4846-35.8251,8.3142-57.7493,11.2625
					c-7.2322,0.9726-14.564,1.8248-21.9661,2.5597l18.5979,106.1147c9.2531-0.9186,18.4183-1.9839,27.459-3.1997
					c27.4066-3.6855,51.5865-8.4728,72.1902-14.0788L983.3217,410.5319"/>
				<path fill="#009245" d="M1033.2433,389.6984c-11.143,7.7476-28.0026,14.8697-49.9216,20.8335l38.5317,102.6583
					c27.4001-7.4552,48.4756-16.3582,62.4051-26.0432l-51.0153-97.4486"/>
				<path fill="#93278F" d="M1048.8647,365.1116c0.9478,8.466-4.4785,16.8392-15.6215,24.5868l51.0151,97.4486
					c13.9294-9.685,20.7126-20.152,19.528-30.735L1048.8647,365.1116"/>
				<path d="M1100.1036,446.1214c2.0809,3.4273,3.2992,6.865,3.6827,10.2906l-54.9216-91.3004
					c-0.3066-2.7403-1.2813-5.4904-2.9459-8.2321L1100.1036,446.1214"/>
				<path fill="#B3B3B3" d="M507.0022,571.308c-10.9109-12.3714-12.1964-24.989-4.7803-37.1038
					c16.3544-26.7166,38.1604-62.3387,54.5149-89.0553c-6.1798,10.0952-5.1086,20.6094,3.9834,30.9184L507.0022,571.308"/>
				<path fill="#22B573" d="M612.7827,505.6464c-12.1255-4.2612-22.8062-8.9447-31.7419-14.0214
					c-8.9359-5.0769-15.6752-10.2905-20.3207-15.5577l-53.718,95.2408c5.5748,6.321,13.6624,12.5777,24.386,18.6702
					c10.7233,6.0923,23.5408,11.7128,38.092,16.8265L612.7827,505.6464"/>
				<path fill="#00FFFF" d="M700.4722,525.9141c-33.4073-4.9118-63.438-11.7451-87.6895-20.2676l-43.3024,101.1583
					c29.1031,10.2275,65.1416,18.4279,105.2324,24.3223L700.4722,525.9141"/>
				<path fill="#8CC63F" d="M808.4209,534.6524c-37.7578-0.8364-74.5416-3.8266-107.9487-8.7383l-25.7596,105.213
					c40.0905,5.8943,84.2332,9.4828,129.5447,10.4865L808.4209,534.6524"/>
				<path fill="#009245" d="M922.2041,530.4687c-37.3003,3.7029-76.0287,5.02-113.7832,4.1837l-4.1636,106.9612
					c45.3076,1.0036,91.7839-0.577,136.5464-5.0207L922.2041,530.4687"/>
				<path fill="#FF7BAC" d="M1021.8533,513.1902c-20.6037,5.606-44.7836,10.3933-72.1902,14.0788
					c-9.0407,1.2158-18.2059,2.2811-27.459,3.1997l18.5996,106.1242c11.1042-1.1024,22.103-2.3809,32.9524-3.8398
					c32.8895-4.4229,61.9067-10.1678,86.6323-16.8954L1021.8533,513.1902"/>
				<path fill="#3FA9F5" d="M1084.2584,487.147c-13.9294,9.685-35.005,18.588-62.4051,26.0432l38.5351,102.6675
					c32.8818-8.9467,58.1737-19.6308,74.8898-31.2534L1084.2584,487.147"/>
				<path fill="#7AC943" d="M1103.7864,456.412c1.1847,10.583-5.5985,21.05-19.528,30.735l51.0198,97.4574
					c16.7161-11.6226,24.8563-24.1835,23.4346-36.8838L1103.7864,456.412"/>
				<path fill="#006837" d="M1154.2933,535.3713c2.4973,4.113,3.9592,8.2384,4.4194,12.3493l-54.9264-91.3086
					c-0.3835-3.4256-1.6018-6.8633-3.6827-10.2906L1154.2933,535.3713"/>
				<path fill="#FCEE21" d="M453.289,666.5403c-12.7297-14.4336-14.2294-29.1544-5.5772-43.2888
					c16.353-26.7142,38.157-62.3331,54.51-89.0473c-7.4161,12.1149-6.1306,24.7324,4.7803,37.1038L453.289,666.5403"/>
				<path fill="#8CC63F" d="M569.4802,606.8047c-14.5513-5.1137-27.3688-10.7341-38.092-16.8265
					c-10.7236-6.0925-18.8112-12.3492-24.386-18.6702l-53.7131,95.2323c6.5041,7.3746,15.9398,14.6742,28.4509,21.7823
					c12.5108,7.1079,27.4648,13.6652,44.4417,19.6313L569.4802,606.8047"/>
				<path fill="#FCEE21" d="M674.7126,631.1271c-40.0908-5.8944-76.1293-14.0948-105.2324-24.3223L526.1817,707.954
					c33.9543,11.9324,76.0002,21.4997,122.7737,28.3766L674.7126,631.1271"/>
				<path fill="#FF00FF" d="M804.2573,641.6136c-45.3116-1.0037-89.4542-4.5922-129.5447-10.4865l-25.7573,105.2036
					c46.7733,6.8769,98.2741,11.0635,151.1387,12.2346L804.2573,641.6136"/>
				<path fill="#603813" d="M940.8037,636.5929c-44.7625,4.4437-91.2388,6.0243-136.5464,5.0207l-4.1633,106.9516
					c52.86,1.1709,107.0835-0.6732,159.3076-5.8576L940.8037,636.5929"/>
				<path fill="#39B54A" d="M1060.3884,615.8577c-24.7256,6.7275-53.7428,12.4725-86.6323,16.8954
					c-10.8494,1.459-21.8481,2.7375-32.9524,3.8398l18.5979,106.1147c12.9553-1.2861,25.7875-2.7778,38.4453-4.4799
					c38.3719-5.1601,72.2261-11.8628,101.0732-19.7117L1060.3884,615.8577"/>
				<path fill="#666666" d="M1135.2782,584.6044c-16.7161,11.6226-42.0079,22.3066-74.8898,31.2533l38.5317,102.6583
					c38.3628-10.438,67.8707-22.9031,87.3732-36.463L1135.2782,584.6044"/>
				<path fill="#F15A24" d="M1158.7128,547.7206c1.4218,12.7003-6.7185,25.2612-23.4346,36.8838l51.0151,97.4487
					c19.5026-13.56,28.9996-28.2148,27.3409-43.032L1158.7128,547.7206"/>
				<path fill="#D4145A" d="M1208.4781,624.6132c2.9136,4.7986,4.6193,9.6117,5.1561,14.4078l-54.9215-91.3004
					c-0.4602-4.1109-1.9221-8.2363-4.4194-12.3493L1208.4781,624.6132"/>
				<path fill="#998675" d="M399.5759,761.7726c-14.5485-16.4958-16.2625-33.3199-6.374-49.4737
					c16.353-26.7142,38.157-62.3331,54.51-89.0474c-8.6523,14.1343-7.1526,28.8552,5.5771,43.2888L399.5759,761.7726"/>
				<path fill="#00FF00" d="M526.1817,707.954c-16.9769-5.9661-31.9309-12.5234-44.4417-19.6313
					c-12.5112-7.1082-21.9469-14.4078-28.4509-21.7824l-53.7131,95.2323c7.4333,8.4282,18.2172,16.7708,32.5158,24.8945
					c14.2983,8.1234,31.3889,15.6176,50.7914,22.4361L526.1817,707.954"/>
				<path fill="#FF7BAC" d="M648.9554,736.3306c-46.7735-6.877-88.8193-16.4443-122.7737-28.3766l-43.2986,101.1493
					c38.8056,13.6372,86.8588,24.5714,140.3151,32.4309L648.9554,736.3306"/>
				<path fill="#666666" d="M800.0941,748.5652c-52.8646-1.171-104.3654-5.3577-151.1387-12.2346l-25.7572,105.2036
					c53.456,7.8595,112.3151,12.6442,172.7327,13.9826L800.0941,748.5652"/>
				<path fill="#D9E021" d="M959.4016,742.7076c-52.2241,5.1844-106.4476,7.0285-159.3076,5.8576l-4.1632,106.9516
					c60.4124,1.3382,122.3831-0.7694,182.0687-6.6945L959.4016,742.7076"/>
				<path fill="#C69C6D" d="M1098.9202,718.516c-28.8472,7.8489-62.7013,14.5516-101.0732,19.7117
					c-12.6578,1.7021-25.4901,3.1938-38.4453,4.4799l18.5979,106.1147c14.8063-1.4698,29.4719-3.1746,43.9382-5.12
					c43.8544-5.8973,82.5455-13.5577,115.5142-22.528L1098.9202,718.516"/>
				<path fill="#F15A24" d="M1186.2933,682.053c-19.5024,13.5599-49.0104,26.025-87.3732,36.463l38.5317,102.6583
					c43.8439-11.9293,77.5677-26.1754,99.8566-41.6727L1186.2933,682.053"/>
				<path fill="#D9E021" d="M1213.6343,639.021c1.6587,14.8173-7.8384,29.472-27.3409,43.032l51.0151,97.4486
					c22.2891-15.4974,33.1431-32.246,31.2474-49.1802L1213.6343,639.021"/>
				<path fill="#0071BC" d="M1262.6631,713.855c3.3297,5.4842,5.2792,10.985,5.8928,16.4664l-54.9216-91.3004
					c-0.5369-4.7961-2.2426-9.6093-5.1561-14.4078C1224.7336,651.3857,1246.4076,687.0825,1262.6631,713.855"/>
				<path fill="#29ABE2" d="M345.8579,857.0133c-16.3675-18.5582-18.2957-37.4857-7.1709-55.6591
					c16.3545-26.7166,38.1604-62.3387,54.5149-89.0553c-9.8885,16.1537-8.1745,32.9778,6.374,49.4737L345.8579,857.0133"/>
				<path fill="#8C6239" d="M482.8831,809.1032c-19.4024-6.8185-36.4931-14.3127-50.7914-22.4361
					c-14.2987-8.1237-25.0825-16.4663-32.5158-24.8945l-53.718,95.2408c8.3627,9.482,20.4948,18.8676,36.5811,28.007
					c16.0859,9.1391,35.3133,17.5703,57.1415,25.2412L482.8831,809.1032"/>
				<path fill="#9E005D" d="M623.1982,841.5342c-53.4563-7.8595-101.5095-18.7937-140.3151-32.431l-43.3024,101.1583
					c43.6573,15.3422,97.7183,27.6435,157.8579,36.4857L623.1982,841.5342"/>
				<path fill="#808080" d="M795.9308,855.5168c-60.4176-1.3384-119.2767-6.1231-172.7327-13.9826l-25.7595,105.213
					c60.1393,8.8421,126.3572,14.2251,194.3286,15.7307L795.9308,855.5168"/>
				<path fill="#FCEE21" d="M977.9995,848.8223c-59.6856,5.9251-121.6563,8.0327-182.0687,6.6945l-4.1636,106.9612
					c67.9655,1.5055,137.684-0.8657,204.8318-7.5316L977.9995,848.8223"/>
				<path fill="#9E005D" d="M1137.4519,821.1743c-32.9688,8.9703-71.6598,16.6306-115.5142,22.528
					c-14.4663,1.9454-29.1319,3.6501-43.9382,5.12l18.5996,106.1242c16.6574-1.6536,33.1566-3.5715,49.4315-5.7601
					c49.3373-6.6346,92.8657-15.2527,129.9564-25.3445L1137.4519,821.1743"/>
				<path fill="#999999" d="M1237.3085,779.5016c-22.2888,15.4973-56.0127,29.7433-99.8566,41.6727l38.5352,102.6675
					c49.3256-13.4208,87.2656-29.4479,112.3412-46.8828L1237.3085,779.5016"/>
				<path fill="#29ABE2" d="M1268.5559,730.3214c1.8956,16.9343-8.9584,33.6829-31.2474,49.1802l51.0198,97.4574
					c25.0757-17.4349,37.2867-36.2775,35.1541-55.329L1268.5559,730.3214"/>
				<path fill="#999999" d="M1316.8528,803.1049c3.7461,6.1698,5.9392,12.3584,6.6295,18.5251l-54.9264-91.3086
					c-0.6136-5.4814-2.5631-10.9822-5.8928-16.4664L1316.8528,803.1049"/>
				<path fill="#39B54A" d="M292.1448,952.2456c-18.1862-20.6204-20.3287-41.6512-7.9677-61.8441
					c16.353-26.7142,38.157-62.3331,54.51-89.0473c-11.1248,18.1733-9.1965,37.1009,7.1709,55.6591L292.1448,952.2456"/>
				<path fill="#006837" d="M439.5806,910.2615c-21.8282-7.671-41.0556-16.1021-57.1415-25.2412
					c-16.0864-9.1393-28.2185-18.525-36.5811-28.007l-53.7132,95.2323c9.292,10.5356,22.7722,20.9642,40.6461,31.1191
					c17.8734,10.1546,39.2374,19.5226,63.4912,28.046L439.5806,910.2615"/>
				<path fill="#7AC943" d="M597.4386,946.7472c-60.1396-8.8422-114.2007-21.1434-157.858-36.4857l-43.2986,101.1492
					c48.5085,17.0471,108.5769,30.7153,175.3993,40.54L597.4386,946.7472"/>
				<path fill="#00FFFF" d="M791.7673,962.4779c-67.9714-1.5056-134.1893-6.8886-194.3287-15.7307l-25.7572,105.2036
					c66.8221,9.8246,140.3983,15.8058,215.9227,17.4788L791.7673,962.4779"/>
				<path fill="#736357" d="M996.5991,954.9464c-67.1478,6.6659-136.8664,9.037-204.8318,7.5315l-4.1632,106.9517
					c75.5178,1.6727,152.9836-0.9618,227.593-8.3684L996.5991,954.9464"/>
				<path fill="#29ABE2" d="M1175.9871,923.8418c-37.0907,10.0918-80.6191,18.7099-129.9564,25.3445
					c-16.2749,2.1886-32.7741,4.1065-49.4315,5.7601l18.5979,106.1147c18.5084-1.8374,36.8409-3.9684,54.9244-6.4001
					c54.8197-7.3719,103.1851-16.9476,144.3972-28.1609L1175.9871,923.8418"/>
				<path fill="#2E3192" d="M1288.3282,876.959c-25.0756,17.4349-63.0156,33.462-112.3412,46.8828l38.5316,102.6583
					c54.8066-14.9122,96.9628-32.7203,124.8247-52.0925L1288.3282,876.959"/>
				<path fill="#FF00FF" d="M1323.4823,821.63c2.1327,19.0515-10.0784,37.8941-35.1541,55.329l51.0151,97.4487
					c27.8622-19.3723,41.4302-40.3087,39.0604-61.4772L1323.4823,821.63"/>
				<path fill="#B3B3B3" d="M1371.0376,892.3468c4.1624,6.8554,6.5992,13.7317,7.3662,20.5836l-54.9215-91.3004
					c-0.6903-6.1667-2.8834-12.3553-6.6295-18.5251L1371.0376,892.3468"/>
				<path fill="#3FA9F5" d="M238.4316,1047.4778c-20.005-22.6826-22.3618-45.8166-8.7646-68.0289
					c16.353-26.7142,38.157-62.3331,54.51-89.0474c-12.361,20.1929-10.2185,41.2236,7.9677,61.8441L238.4316,1047.4778"/>
				<path fill="#736357" d="M396.2821,1011.4108c-24.2538-8.5234-45.6178-17.8914-63.4912-28.046
					c-17.8739-10.155-31.3541-20.5835-40.6461-31.1191l-53.7131,95.2322c10.2212,11.5894,25.0496,23.0609,44.711,34.2313
					c19.6609,11.1702,43.1614,21.4751,69.8408,30.851L396.2821,1011.4108"/>
				<path fill="#7AC943" d="M571.6814,1051.9508c-66.8224-9.8247-126.8908-23.4929-175.3993-40.54l-43.2986,101.1493
					c53.3598,18.7518,119.4355,33.787,192.9407,44.5942L571.6814,1051.9508"/>
				<path fill="#ED1E79" d="M787.6041,1069.4296c-75.5244-1.673-149.1005-7.6542-215.9227-17.4788l-25.7572,105.2035
					c73.5048,10.8073,154.4391,17.3865,237.5167,19.2268L787.6041,1069.4296"/>
				<path fill="#00FF00" d="M1015.197,1061.0612c-74.6093,7.4066-152.0751,10.0411-227.593,8.3684l-4.1632,106.9515
					c83.0702,1.8401,168.2832-1.058,250.3541-9.2053L1015.197,1061.0612"/>
				<path fill="#22B573" d="M1214.5187,1026.5001c-41.2122,11.2133-89.5775,20.7889-144.3972,28.1609
					c-18.0835,2.4318-36.416,4.5627-54.9244,6.4001l18.5979,106.1146c20.3594-2.0211,40.5254-4.3652,60.4174-7.0402
					c60.3021-8.1093,113.5044-18.6426,158.8381-30.9773L1214.5187,1026.5001"/>
				<path fill="#00A99D" d="M1339.3434,974.4077c-27.8619,19.3722-70.0181,37.1803-124.8247,52.0925l38.5317,102.6583
					c60.2877-16.4036,106.6598-35.9926,137.3082-57.3021L1339.3434,974.4077"/>
				<path fill="#CCCCCC" d="M1378.4038,912.9304c2.3698,21.1685-11.1982,42.1049-39.0604,61.4772l51.0153,97.4487
					c30.6486-21.3097,45.5734-44.34,42.9667-67.6255L1378.4038,912.9304"/>
				<path fill="#00A99D" d="M1425.2224,981.5887c4.5787,7.541,7.2593,15.1049,8.1029,22.6421l-54.9215-91.3004
					c-0.767-6.8519-3.2039-13.7282-7.3662-20.5836L1425.2224,981.5887"/>
				<path fill="#662D91" d="M184.7137,1142.7186c-21.8239-24.745-24.395-49.9825-9.5615-74.2144
					c16.3545-26.7167,38.1604-62.3387,54.5149-89.0554c-13.5972,22.2123-11.2404,45.3463,8.7646,68.0289L184.7137,1142.7186"/>
				<path fill="#B3B3B3" d="M352.9835,1112.5601c-26.6794-9.3759-50.1799-19.6808-69.8408-30.851
					c-19.6615-11.1704-34.4898-22.642-44.711-34.2313l-53.718,95.2408c11.1506,12.6431,27.3272,25.1576,48.7763,37.3438
					c21.4486,12.1858,47.0858,23.4277,76.191,33.656L352.9835,1112.5601"/>
				<path fill="#8C6239" d="M545.9242,1157.1543c-73.5052-10.8073-139.5809-25.8424-192.9407-44.5942l-43.3025,101.1583
					c58.2115,20.4569,130.295,36.859,210.4836,48.6489L545.9242,1157.1543"/>
				<path fill="#CCCCCC" d="M783.4409,1176.3811c-83.0775-1.8403-164.0118-8.4196-237.5167-19.2268l-25.7595,105.213
					c80.1882,11.7898,168.4814,18.9674,259.1125,20.975L783.4409,1176.3811"/>
				<path fill="#39B54A" d="M1033.7949,1167.1758c-82.0709,8.1473-167.2839,11.0454-250.3541,9.2053l-4.1636,106.9612
					c90.6234,2.0074,183.5842-1.1542,273.1173-10.0422L1033.7949,1167.1758"/>
				<path fill="#C7B299" d="M1253.0504,1129.1583c-45.3337,12.3347-98.536,22.868-158.8381,30.9773
					c-19.892,2.6749-40.058,5.019-60.4174,7.0402l18.5996,106.1241c22.2106-2.2048,44.2101-4.7621,65.9106-7.6803
					c65.785-8.8464,123.8247-20.3375,173.2804-33.7937l-38.5352-102.6675"/>
				<path d="M1390.3586,1071.8563c-30.6484,21.3096-77.0205,40.8986-137.3082,57.302l38.5352,102.6676
					c65.7694-17.895,116.3577-39.2651,149.7927-62.5123L1390.3586,1071.8563"/>
				<path fill="#D4145A" d="M1433.3253,1004.2308c2.6067,23.2855-12.3181,46.3158-42.9667,67.6255l51.0197,97.4573
					c33.4353-23.2472,49.7172-48.3715,46.8735-73.7742L1433.3253,1004.2308"/>
				<path fill="#9E005D" d="M1479.4121,1070.8386c4.995,8.2267,7.9193,16.4783,8.8397,24.7008l-54.9265-91.3086
					c-0.8436-7.5372-3.5242-15.1011-8.1029-22.6421L1479.4121,1070.8386"/>
				<path fill="#CCCCCC" d="M131.0005,1237.9508c-23.6427-26.8071-26.428-54.1478-10.3583-80.3992
					c16.353-26.7142,38.157-62.3331,54.51-89.0474c-14.8335,24.2318-12.2624,49.4694,9.5615,74.2144l-53.7131,95.2323"/>
				<path fill="#C69C6D" d="M309.681,1213.7184c-29.1052-10.2283-54.7425-21.4702-76.191-33.656
					c-21.4492-12.1862-37.6257-24.7007-48.7763-37.3438l-53.7131,95.2323c12.0798,13.6967,29.6046,27.2542,52.8413,40.4558
					c23.236,13.2014,51.0099,25.3802,82.5406,36.4608L309.681,1213.7184"/>
				<path fill="#00FFFF" d="M520.1646,1262.3673c-80.1886-11.7899-152.2721-28.192-210.4836-48.6489l-43.2986,101.1492
					c63.0627,22.1617,141.1536,39.9309,228.025,52.7034L520.1646,1262.3673"/>
				<path fill="#00A99D" d="M779.2772,1283.3423c-90.6312-2.0076-178.9244-9.1852-259.1126-20.975l-25.7572,105.2036
					c86.871,12.7723,182.5223,20.548,280.7066,22.7229L779.2772,1283.3423"/>
				<path fill="#FF0000" d="M1052.3945,1273.3c-89.5331,8.8881-182.494,12.0497-273.1173,10.0422l-4.1632,106.9515
					c98.1757,2.1748,198.8838-1.2504,295.8784-10.8792l-18.5979-106.1147"/>
				<path fill="#534741" d="M1291.5856,1231.8259c-49.4557,13.4562-107.4954,24.9473-173.2804,33.7937
					c-21.7006,2.9182-43.7001,5.4755-65.9106,7.6804l18.5979,106.1146c24.0615-2.3887,47.8945-5.1591,71.4036-8.3204
					c71.2675-9.5837,134.144-22.0325,187.7213-36.6101L1291.5856,1231.8259"/>
				<path fill="#0071BC" d="M1441.3783,1169.3136c-33.4351,23.2472-84.0233,44.6173-149.7927,62.5123l38.5316,102.6582
					c71.2505-19.3862,126.0548-42.5374,162.2764-67.7218L1441.3783,1169.3136"/>
				<path fill="#FBB03B" d="M1488.2518,1095.5394c2.8436,25.4027-13.4382,50.527-46.8735,73.7742l51.0153,97.4487
					c36.2217-25.1847,53.8605-52.4027,50.7798-79.9225L1488.2518,1095.5394"/>
				<path fill="#00A99D" d="M1533.5969,1160.0804c5.4113,8.9124,8.5792,17.8517,9.5764,26.7594l-54.9215-91.3004
					c-0.9204-8.2225-3.8447-16.4741-8.8397-24.7008L1533.5969,1160.0804"/>
				<path fill="#7AC943" d="M77.2823,1333.1921c-25.4616-28.8696-28.4612-58.3138-11.1553-86.5848
					c16.3545-26.7167,38.1606-62.339,54.5151-89.0557c-16.0697,26.2513-13.2843,53.592,10.3583,80.3992L77.2823,1333.1921"/>
				<path fill="#662D91" d="M266.3824,1314.8676c-31.5307-11.0806-59.3046-23.2594-82.5406-36.4608
					c-23.2367-13.2017-40.7614-26.7592-52.8413-40.4559l-53.7182,95.2413c13.0092,14.7505,31.8822,29.351,56.9066,43.5684
					c25.0237,14.217,54.9343,27.3328,88.8909,39.2659L266.3824,1314.8676"/>
				<path fill="#2E3192" d="M494.4074,1367.5709c-86.8714-12.7725-164.9622-30.5416-228.025-52.7034l-43.3027,101.1588
					c67.9144,23.8668,152.0132,43.0029,245.5679,56.7581L494.4074,1367.5709"/>
				<path fill="#603813" d="M775.114,1390.2938c-98.1843-2.1749-193.8356-9.9506-280.7066-22.7229l-25.7596,105.2135
					c93.5543,13.755,196.5646,22.1289,302.3027,24.4712L775.114,1390.2938"/>
				<path fill="#FF1D25" d="M1070.9924,1379.4147c-96.9946,9.6288-197.7027,13.054-295.8784,10.8792l-4.1636,106.9617
					c105.7288,2.342,214.1848-1.3464,318.6417-11.7161L1070.9924,1379.4147"/>
				<path fill="#FFFF00" d="M1330.1173,1334.4841c-53.5773,14.5776-116.4539,27.0264-187.7213,36.6101
					c-23.509,3.1614-47.342,5.9318-71.4036,8.3204l18.5997,106.1248c25.9126-2.5724,51.5792-5.556,76.897-8.9606
					c76.7504-10.321,144.4642-23.7275,202.1635-39.4266l-38.5354-102.6681"/>
				<path fill="#A67C52" d="M1492.3936,1266.7623c-36.2216,25.1844-91.0259,48.3356-162.2762,67.7218l38.5353,102.6681
					c76.7321-20.8778,135.7527-45.8101,174.7609-72.9321L1492.3936,1266.7623"/>
				<path fill="#662D91" d="M1543.1733,1186.8398c3.0807,27.5198-14.5581,54.7378-50.7798,79.9225l51.0199,97.4578
					c39.0084-27.1222,58.0043-56.4342,54.6866-86.0712L1543.1733,1186.8398"/>
				<path fill="#A67C52" d="M1587.787,1249.3308c5.8275,9.5979,9.2393,19.225,10.3131,28.8181l-54.9268-91.3091
					c-0.9972-8.9077-4.1652-17.847-9.5764-26.7594L1587.787,1249.3308"/>
				<path fill="#333333" d="M23.6296,1428.3171c-27.2783-30.9296-30.492-62.4746-11.9512-92.7627
					c16.3346-26.6842,38.114-62.2629,54.4486-88.9471c-17.306,28.271-14.3063,57.7152,11.1553,86.5848L23.6296,1428.3171"/>
				<path fill="#00FF00" d="M179.83,1517.0618c-36.3794-12.7847-68.4242-26.8362-95.2334-42.0676
					c-26.8099-15.2318-47.0295-30.874-60.967-46.677l53.6527-95.125c13.0092,14.7505,31.8822,29.351,56.9066,43.5684
					c25.0237,14.217,54.9343,27.3328,88.8909,39.2659L179.83,1517.0618"/>
				<path fill="#29ABE2" d="M442.9195,1577.8695c-100.2301-14.7365-190.3294-35.238-263.0896-60.8077l43.2498-101.0354
					c67.9144,23.8668,152.0132,43.0029,245.5679,56.7581L442.9195,1577.8695"/>
				<path fill="#333333" d="M766.7919,1604.0867c-113.2825-2.5093-223.6428-11.4807-323.8723-26.2172l25.7282-105.0851
					c93.5543,13.755,196.5646,22.1289,302.3027,24.4712L766.7919,1604.0867"/>
				<path fill="#2E3192" d="M1108.1691,1591.5345c-111.91,11.1095-228.1045,15.0613-341.3772,12.5521l4.1586-106.8312
					c105.7288,2.342,214.1848-1.3464,318.6417-11.7161L1108.1691,1591.5345"/>
				<path fill="#3FA9F5" d="M1407.1409,1539.6948c-61.816,16.8193-134.3615,31.1824-216.588,42.2399
					c-27.1243,3.6476-54.6222,6.844-82.3838,9.5999l-18.5769-105.9951c25.9126-2.5724,51.5792-5.556,76.897-8.9606
					c76.7504-10.321,144.4642-23.7275,202.1635-39.4266L1407.1409,1539.6948"/>
				<path fill="#FF0000" d="M1594.3712,1461.5591c-41.7915,29.0573-105.0233,55.7684-187.2303,78.1357l-38.4883-102.5426
					c76.7321-20.8778,135.7527-45.8101,174.7609-72.9321c15.2874,29.2017,35.6704,68.1372,50.9578,97.3389"/>
				<path fill="#808080" d="M1652.9597,1369.3464c3.5544,31.7517-16.7968,63.1552-58.5885,92.2126
					c-15.2874-29.2018-35.6704-68.1373-50.9578-97.339c39.0084-27.1222,58.0043-56.4342,54.6866-86.0712L1652.9597,1369.3464"/>
				<path fill="#A67C52" d="M1641.9108,1338.4722c6.2434,10.2828,9.8984,20.5968,11.049,30.8743l-54.8596-91.1975
					c-1.0739-9.5931-4.4856-19.2202-10.3131-28.8181L1641.9108,1338.4722"/>
			</g>
		</g>
	</g>
</g>
</svg>
